<?xml version="1.0" standalone="no"?><!-- Generator: Gravit.io --><svg xmlns="http://www.w3.org/2000/svg" xmlns:xlink="http://www.w3.org/1999/xlink" style="isolation:isolate" viewBox="0 0 768 768" width="768" height="768"><defs><clipPath id="_clipPath_awFkxe3p6BHSV0q3wXLNodDt54tVyvNb"><rect width="768" height="768"/></clipPath></defs><g clip-path="url(#_clipPath_awFkxe3p6BHSV0q3wXLNodDt54tVyvNb)"><g id="icomoon-ignore"><g opacity="0.3"><line x1="16" y1="0" x2="16" y2="768" vector-effect="non-scaling-stroke" stroke-width="1" stroke="rgb(68,159,219)" stroke-linejoin="miter" stroke-linecap="butt" stroke-miterlimit="4"/></g><line x1="32" y1="0" x2="32" y2="768" vector-effect="non-scaling-stroke" stroke-width="1" stroke="rgb(68,159,219)" stroke-linejoin="miter" stroke-linecap="butt" stroke-miterlimit="4"/><g opacity="0.3"><line x1="48" y1="0" x2="48" y2="768" vector-effect="non-scaling-stroke" stroke-width="1" stroke="rgb(68,159,219)" stroke-linejoin="miter" stroke-linecap="butt" stroke-miterlimit="4"/></g><line x1="64" y1="0" x2="64" y2="768" vector-effect="non-scaling-stroke" stroke-width="1" stroke="rgb(68,159,219)" stroke-linejoin="miter" stroke-linecap="butt" stroke-miterlimit="4"/><g opacity="0.3"><line x1="80" y1="0" x2="80" y2="768" vector-effect="non-scaling-stroke" stroke-width="1" stroke="rgb(68,159,219)" stroke-linejoin="miter" stroke-linecap="butt" stroke-miterlimit="4"/></g><line x1="96" y1="0" x2="96" y2="768" vector-effect="non-scaling-stroke" stroke-width="1" stroke="rgb(68,159,219)" stroke-linejoin="miter" stroke-linecap="butt" stroke-miterlimit="4"/><g opacity="0.3"><line x1="112" y1="0" x2="112" y2="768" vector-effect="non-scaling-stroke" stroke-width="1" stroke="rgb(68,159,219)" stroke-linejoin="miter" stroke-linecap="butt" stroke-miterlimit="4"/></g><line x1="128" y1="0" x2="128" y2="768" vector-effect="non-scaling-stroke" stroke-width="1" stroke="rgb(68,159,219)" stroke-linejoin="miter" stroke-linecap="butt" stroke-miterlimit="4"/><g opacity="0.3"><line x1="144" y1="0" x2="144" y2="768" vector-effect="non-scaling-stroke" stroke-width="1" stroke="rgb(68,159,219)" stroke-linejoin="miter" stroke-linecap="butt" stroke-miterlimit="4"/></g><line x1="160" y1="0" x2="160" y2="768" vector-effect="non-scaling-stroke" stroke-width="1" stroke="rgb(68,159,219)" stroke-linejoin="miter" stroke-linecap="butt" stroke-miterlimit="4"/><g opacity="0.3"><line x1="176" y1="0" x2="176" y2="768" vector-effect="non-scaling-stroke" stroke-width="1" stroke="rgb(68,159,219)" stroke-linejoin="miter" stroke-linecap="butt" stroke-miterlimit="4"/></g><line x1="192" y1="0" x2="192" y2="768" vector-effect="non-scaling-stroke" stroke-width="1" stroke="rgb(68,159,219)" stroke-linejoin="miter" stroke-linecap="butt" stroke-miterlimit="4"/><g opacity="0.3"><line x1="208" y1="0" x2="208" y2="768" vector-effect="non-scaling-stroke" stroke-width="1" stroke="rgb(68,159,219)" stroke-linejoin="miter" stroke-linecap="butt" stroke-miterlimit="4"/></g><line x1="224" y1="0" x2="224" y2="768" vector-effect="non-scaling-stroke" stroke-width="1" stroke="rgb(68,159,219)" stroke-linejoin="miter" stroke-linecap="butt" stroke-miterlimit="4"/><g opacity="0.3"><line x1="240" y1="0" x2="240" y2="768" vector-effect="non-scaling-stroke" stroke-width="1" stroke="rgb(68,159,219)" stroke-linejoin="miter" stroke-linecap="butt" stroke-miterlimit="4"/></g><line x1="256" y1="0" x2="256" y2="768" vector-effect="non-scaling-stroke" stroke-width="1" stroke="rgb(68,159,219)" stroke-linejoin="miter" stroke-linecap="butt" stroke-miterlimit="4"/><g opacity="0.3"><line x1="272" y1="0" x2="272" y2="768" vector-effect="non-scaling-stroke" stroke-width="1" stroke="rgb(68,159,219)" stroke-linejoin="miter" stroke-linecap="butt" stroke-miterlimit="4"/></g><line x1="288" y1="0" x2="288" y2="768" vector-effect="non-scaling-stroke" stroke-width="1" stroke="rgb(68,159,219)" stroke-linejoin="miter" stroke-linecap="butt" stroke-miterlimit="4"/><g opacity="0.3"><line x1="304" y1="0" x2="304" y2="768" vector-effect="non-scaling-stroke" stroke-width="1" stroke="rgb(68,159,219)" stroke-linejoin="miter" stroke-linecap="butt" stroke-miterlimit="4"/></g><line x1="320" y1="0" x2="320" y2="768" vector-effect="non-scaling-stroke" stroke-width="1" stroke="rgb(68,159,219)" stroke-linejoin="miter" stroke-linecap="butt" stroke-miterlimit="4"/><g opacity="0.3"><line x1="336" y1="0" x2="336" y2="768" vector-effect="non-scaling-stroke" stroke-width="1" stroke="rgb(68,159,219)" stroke-linejoin="miter" stroke-linecap="butt" stroke-miterlimit="4"/></g><line x1="352" y1="0" x2="352" y2="768" vector-effect="non-scaling-stroke" stroke-width="1" stroke="rgb(68,159,219)" stroke-linejoin="miter" stroke-linecap="butt" stroke-miterlimit="4"/><g opacity="0.3"><line x1="368" y1="0" x2="368" y2="768" vector-effect="non-scaling-stroke" stroke-width="1" stroke="rgb(68,159,219)" stroke-linejoin="miter" stroke-linecap="butt" stroke-miterlimit="4"/></g><line x1="384" y1="0" x2="384" y2="768" vector-effect="non-scaling-stroke" stroke-width="1" stroke="rgb(68,159,219)" stroke-linejoin="miter" stroke-linecap="butt" stroke-miterlimit="4"/><g opacity="0.3"><line x1="400" y1="0" x2="400" y2="768" vector-effect="non-scaling-stroke" stroke-width="1" stroke="rgb(68,159,219)" stroke-linejoin="miter" stroke-linecap="butt" stroke-miterlimit="4"/></g><line x1="416" y1="0" x2="416" y2="768" vector-effect="non-scaling-stroke" stroke-width="1" stroke="rgb(68,159,219)" stroke-linejoin="miter" stroke-linecap="butt" stroke-miterlimit="4"/><g opacity="0.3"><line x1="432" y1="0" x2="432" y2="768" vector-effect="non-scaling-stroke" stroke-width="1" stroke="rgb(68,159,219)" stroke-linejoin="miter" stroke-linecap="butt" stroke-miterlimit="4"/></g><line x1="448" y1="0" x2="448" y2="768" vector-effect="non-scaling-stroke" stroke-width="1" stroke="rgb(68,159,219)" stroke-linejoin="miter" stroke-linecap="butt" stroke-miterlimit="4"/><g opacity="0.3"><line x1="464" y1="0" x2="464" y2="768" vector-effect="non-scaling-stroke" stroke-width="1" stroke="rgb(68,159,219)" stroke-linejoin="miter" stroke-linecap="butt" stroke-miterlimit="4"/></g><line x1="480" y1="0" x2="480" y2="768" vector-effect="non-scaling-stroke" stroke-width="1" stroke="rgb(68,159,219)" stroke-linejoin="miter" stroke-linecap="butt" stroke-miterlimit="4"/><g opacity="0.3"><line x1="496" y1="0" x2="496" y2="768" vector-effect="non-scaling-stroke" stroke-width="1" stroke="rgb(68,159,219)" stroke-linejoin="miter" stroke-linecap="butt" stroke-miterlimit="4"/></g><line x1="512" y1="0" x2="512" y2="768" vector-effect="non-scaling-stroke" stroke-width="1" stroke="rgb(68,159,219)" stroke-linejoin="miter" stroke-linecap="butt" stroke-miterlimit="4"/><g opacity="0.3"><line x1="528" y1="0" x2="528" y2="768" vector-effect="non-scaling-stroke" stroke-width="1" stroke="rgb(68,159,219)" stroke-linejoin="miter" stroke-linecap="butt" stroke-miterlimit="4"/></g><line x1="544" y1="0" x2="544" y2="768" vector-effect="non-scaling-stroke" stroke-width="1" stroke="rgb(68,159,219)" stroke-linejoin="miter" stroke-linecap="butt" stroke-miterlimit="4"/><g opacity="0.3"><line x1="560" y1="0" x2="560" y2="768" vector-effect="non-scaling-stroke" stroke-width="1" stroke="rgb(68,159,219)" stroke-linejoin="miter" stroke-linecap="butt" stroke-miterlimit="4"/></g><line x1="576" y1="0" x2="576" y2="768" vector-effect="non-scaling-stroke" stroke-width="1" stroke="rgb(68,159,219)" stroke-linejoin="miter" stroke-linecap="butt" stroke-miterlimit="4"/><g opacity="0.3"><line x1="592" y1="0" x2="592" y2="768" vector-effect="non-scaling-stroke" stroke-width="1" stroke="rgb(68,159,219)" stroke-linejoin="miter" stroke-linecap="butt" stroke-miterlimit="4"/></g><line x1="608" y1="0" x2="608" y2="768" vector-effect="non-scaling-stroke" stroke-width="1" stroke="rgb(68,159,219)" stroke-linejoin="miter" stroke-linecap="butt" stroke-miterlimit="4"/><g opacity="0.3"><line x1="624" y1="0" x2="624" y2="768" vector-effect="non-scaling-stroke" stroke-width="1" stroke="rgb(68,159,219)" stroke-linejoin="miter" stroke-linecap="butt" stroke-miterlimit="4"/></g><line x1="640" y1="0" x2="640" y2="768" vector-effect="non-scaling-stroke" stroke-width="1" stroke="rgb(68,159,219)" stroke-linejoin="miter" stroke-linecap="butt" stroke-miterlimit="4"/><g opacity="0.3"><line x1="656" y1="0" x2="656" y2="768" vector-effect="non-scaling-stroke" stroke-width="1" stroke="rgb(68,159,219)" stroke-linejoin="miter" stroke-linecap="butt" stroke-miterlimit="4"/></g><line x1="672" y1="0" x2="672" y2="768" vector-effect="non-scaling-stroke" stroke-width="1" stroke="rgb(68,159,219)" stroke-linejoin="miter" stroke-linecap="butt" stroke-miterlimit="4"/><g opacity="0.3"><line x1="688" y1="0" x2="688" y2="768" vector-effect="non-scaling-stroke" stroke-width="1" stroke="rgb(68,159,219)" stroke-linejoin="miter" stroke-linecap="butt" stroke-miterlimit="4"/></g><line x1="704" y1="0" x2="704" y2="768" vector-effect="non-scaling-stroke" stroke-width="1" stroke="rgb(68,159,219)" stroke-linejoin="miter" stroke-linecap="butt" stroke-miterlimit="4"/><g opacity="0.3"><line x1="720" y1="0" x2="720" y2="768" vector-effect="non-scaling-stroke" stroke-width="1" stroke="rgb(68,159,219)" stroke-linejoin="miter" stroke-linecap="butt" stroke-miterlimit="4"/></g><line x1="736" y1="0" x2="736" y2="768" vector-effect="non-scaling-stroke" stroke-width="1" stroke="rgb(68,159,219)" stroke-linejoin="miter" stroke-linecap="butt" stroke-miterlimit="4"/><g opacity="0.3"><line x1="752" y1="0" x2="752" y2="768" vector-effect="non-scaling-stroke" stroke-width="1" stroke="rgb(68,159,219)" stroke-linejoin="miter" stroke-linecap="butt" stroke-miterlimit="4"/></g><g opacity="0.3"><line x1="0" y1="16" x2="768" y2="16" vector-effect="non-scaling-stroke" stroke-width="1" stroke="rgb(68,159,219)" stroke-linejoin="miter" stroke-linecap="butt" stroke-miterlimit="4"/></g><line x1="0" y1="32" x2="768" y2="32" vector-effect="non-scaling-stroke" stroke-width="1" stroke="rgb(68,159,219)" stroke-linejoin="miter" stroke-linecap="butt" stroke-miterlimit="4"/><g opacity="0.3"><line x1="0" y1="48" x2="768" y2="48" vector-effect="non-scaling-stroke" stroke-width="1" stroke="rgb(68,159,219)" stroke-linejoin="miter" stroke-linecap="butt" stroke-miterlimit="4"/></g><line x1="0" y1="64" x2="768" y2="64" vector-effect="non-scaling-stroke" stroke-width="1" stroke="rgb(68,159,219)" stroke-linejoin="miter" stroke-linecap="butt" stroke-miterlimit="4"/><g opacity="0.3"><line x1="0" y1="80" x2="768" y2="80" vector-effect="non-scaling-stroke" stroke-width="1" stroke="rgb(68,159,219)" stroke-linejoin="miter" stroke-linecap="butt" stroke-miterlimit="4"/></g><line x1="0" y1="96" x2="768" y2="96" vector-effect="non-scaling-stroke" stroke-width="1" stroke="rgb(68,159,219)" stroke-linejoin="miter" stroke-linecap="butt" stroke-miterlimit="4"/><g opacity="0.3"><line x1="0" y1="112" x2="768" y2="112" vector-effect="non-scaling-stroke" stroke-width="1" stroke="rgb(68,159,219)" stroke-linejoin="miter" stroke-linecap="butt" stroke-miterlimit="4"/></g><line x1="0" y1="128" x2="768" y2="128" vector-effect="non-scaling-stroke" stroke-width="1" stroke="rgb(68,159,219)" stroke-linejoin="miter" stroke-linecap="butt" stroke-miterlimit="4"/><g opacity="0.3"><line x1="0" y1="144" x2="768" y2="144" vector-effect="non-scaling-stroke" stroke-width="1" stroke="rgb(68,159,219)" stroke-linejoin="miter" stroke-linecap="butt" stroke-miterlimit="4"/></g><line x1="0" y1="160" x2="768" y2="160" vector-effect="non-scaling-stroke" stroke-width="1" stroke="rgb(68,159,219)" stroke-linejoin="miter" stroke-linecap="butt" stroke-miterlimit="4"/><g opacity="0.3"><line x1="0" y1="176" x2="768" y2="176" vector-effect="non-scaling-stroke" stroke-width="1" stroke="rgb(68,159,219)" stroke-linejoin="miter" stroke-linecap="butt" stroke-miterlimit="4"/></g><line x1="0" y1="192" x2="768" y2="192" vector-effect="non-scaling-stroke" stroke-width="1" stroke="rgb(68,159,219)" stroke-linejoin="miter" stroke-linecap="butt" stroke-miterlimit="4"/><g opacity="0.3"><line x1="0" y1="208" x2="768" y2="208" vector-effect="non-scaling-stroke" stroke-width="1" stroke="rgb(68,159,219)" stroke-linejoin="miter" stroke-linecap="butt" stroke-miterlimit="4"/></g><line x1="0" y1="224" x2="768" y2="224" vector-effect="non-scaling-stroke" stroke-width="1" stroke="rgb(68,159,219)" stroke-linejoin="miter" stroke-linecap="butt" stroke-miterlimit="4"/><g opacity="0.3"><line x1="0" y1="240" x2="768" y2="240" vector-effect="non-scaling-stroke" stroke-width="1" stroke="rgb(68,159,219)" stroke-linejoin="miter" stroke-linecap="butt" stroke-miterlimit="4"/></g><line x1="0" y1="256" x2="768" y2="256" vector-effect="non-scaling-stroke" stroke-width="1" stroke="rgb(68,159,219)" stroke-linejoin="miter" stroke-linecap="butt" stroke-miterlimit="4"/><g opacity="0.3"><line x1="0" y1="272" x2="768" y2="272" vector-effect="non-scaling-stroke" stroke-width="1" stroke="rgb(68,159,219)" stroke-linejoin="miter" stroke-linecap="butt" stroke-miterlimit="4"/></g><line x1="0" y1="288" x2="768" y2="288" vector-effect="non-scaling-stroke" stroke-width="1" stroke="rgb(68,159,219)" stroke-linejoin="miter" stroke-linecap="butt" stroke-miterlimit="4"/><g opacity="0.3"><line x1="0" y1="304" x2="768" y2="304" vector-effect="non-scaling-stroke" stroke-width="1" stroke="rgb(68,159,219)" stroke-linejoin="miter" stroke-linecap="butt" stroke-miterlimit="4"/></g><line x1="0" y1="320" x2="768" y2="320" vector-effect="non-scaling-stroke" stroke-width="1" stroke="rgb(68,159,219)" stroke-linejoin="miter" stroke-linecap="butt" stroke-miterlimit="4"/><g opacity="0.3"><line x1="0" y1="336" x2="768" y2="336" vector-effect="non-scaling-stroke" stroke-width="1" stroke="rgb(68,159,219)" stroke-linejoin="miter" stroke-linecap="butt" stroke-miterlimit="4"/></g><line x1="0" y1="352" x2="768" y2="352" vector-effect="non-scaling-stroke" stroke-width="1" stroke="rgb(68,159,219)" stroke-linejoin="miter" stroke-linecap="butt" stroke-miterlimit="4"/><g opacity="0.3"><line x1="0" y1="368" x2="768" y2="368" vector-effect="non-scaling-stroke" stroke-width="1" stroke="rgb(68,159,219)" stroke-linejoin="miter" stroke-linecap="butt" stroke-miterlimit="4"/></g><line x1="0" y1="384" x2="768" y2="384" vector-effect="non-scaling-stroke" stroke-width="1" stroke="rgb(68,159,219)" stroke-linejoin="miter" stroke-linecap="butt" stroke-miterlimit="4"/><g opacity="0.3"><line x1="0" y1="400" x2="768" y2="400" vector-effect="non-scaling-stroke" stroke-width="1" stroke="rgb(68,159,219)" stroke-linejoin="miter" stroke-linecap="butt" stroke-miterlimit="4"/></g><line x1="0" y1="416" x2="768" y2="416" vector-effect="non-scaling-stroke" stroke-width="1" stroke="rgb(68,159,219)" stroke-linejoin="miter" stroke-linecap="butt" stroke-miterlimit="4"/><g opacity="0.3"><line x1="0" y1="432" x2="768" y2="432" vector-effect="non-scaling-stroke" stroke-width="1" stroke="rgb(68,159,219)" stroke-linejoin="miter" stroke-linecap="butt" stroke-miterlimit="4"/></g><line x1="0" y1="448" x2="768" y2="448" vector-effect="non-scaling-stroke" stroke-width="1" stroke="rgb(68,159,219)" stroke-linejoin="miter" stroke-linecap="butt" stroke-miterlimit="4"/><g opacity="0.3"><line x1="0" y1="464" x2="768" y2="464" vector-effect="non-scaling-stroke" stroke-width="1" stroke="rgb(68,159,219)" stroke-linejoin="miter" stroke-linecap="butt" stroke-miterlimit="4"/></g><line x1="0" y1="480" x2="768" y2="480" vector-effect="non-scaling-stroke" stroke-width="1" stroke="rgb(68,159,219)" stroke-linejoin="miter" stroke-linecap="butt" stroke-miterlimit="4"/><g opacity="0.3"><line x1="0" y1="496" x2="768" y2="496" vector-effect="non-scaling-stroke" stroke-width="1" stroke="rgb(68,159,219)" stroke-linejoin="miter" stroke-linecap="butt" stroke-miterlimit="4"/></g><line x1="0" y1="512" x2="768" y2="512" vector-effect="non-scaling-stroke" stroke-width="1" stroke="rgb(68,159,219)" stroke-linejoin="miter" stroke-linecap="butt" stroke-miterlimit="4"/><g opacity="0.3"><line x1="0" y1="528" x2="768" y2="528" vector-effect="non-scaling-stroke" stroke-width="1" stroke="rgb(68,159,219)" stroke-linejoin="miter" stroke-linecap="butt" stroke-miterlimit="4"/></g><line x1="0" y1="544" x2="768" y2="544" vector-effect="non-scaling-stroke" stroke-width="1" stroke="rgb(68,159,219)" stroke-linejoin="miter" stroke-linecap="butt" stroke-miterlimit="4"/><g opacity="0.3"><line x1="0" y1="560" x2="768" y2="560" vector-effect="non-scaling-stroke" stroke-width="1" stroke="rgb(68,159,219)" stroke-linejoin="miter" stroke-linecap="butt" stroke-miterlimit="4"/></g><line x1="0" y1="576" x2="768" y2="576" vector-effect="non-scaling-stroke" stroke-width="1" stroke="rgb(68,159,219)" stroke-linejoin="miter" stroke-linecap="butt" stroke-miterlimit="4"/><g opacity="0.3"><line x1="0" y1="592" x2="768" y2="592" vector-effect="non-scaling-stroke" stroke-width="1" stroke="rgb(68,159,219)" stroke-linejoin="miter" stroke-linecap="butt" stroke-miterlimit="4"/></g><line x1="0" y1="608" x2="768" y2="608" vector-effect="non-scaling-stroke" stroke-width="1" stroke="rgb(68,159,219)" stroke-linejoin="miter" stroke-linecap="butt" stroke-miterlimit="4"/><g opacity="0.3"><line x1="0" y1="624" x2="768" y2="624" vector-effect="non-scaling-stroke" stroke-width="1" stroke="rgb(68,159,219)" stroke-linejoin="miter" stroke-linecap="butt" stroke-miterlimit="4"/></g><line x1="0" y1="640" x2="768" y2="640" vector-effect="non-scaling-stroke" stroke-width="1" stroke="rgb(68,159,219)" stroke-linejoin="miter" stroke-linecap="butt" stroke-miterlimit="4"/><g opacity="0.3"><line x1="0" y1="656" x2="768" y2="656" vector-effect="non-scaling-stroke" stroke-width="1" stroke="rgb(68,159,219)" stroke-linejoin="miter" stroke-linecap="butt" stroke-miterlimit="4"/></g><line x1="0" y1="672" x2="768" y2="672" vector-effect="non-scaling-stroke" stroke-width="1" stroke="rgb(68,159,219)" stroke-linejoin="miter" stroke-linecap="butt" stroke-miterlimit="4"/><g opacity="0.3"><line x1="0" y1="688" x2="768" y2="688" vector-effect="non-scaling-stroke" stroke-width="1" stroke="rgb(68,159,219)" stroke-linejoin="miter" stroke-linecap="butt" stroke-miterlimit="4"/></g><line x1="0" y1="704" x2="768" y2="704" vector-effect="non-scaling-stroke" stroke-width="1" stroke="rgb(68,159,219)" stroke-linejoin="miter" stroke-linecap="butt" stroke-miterlimit="4"/><g opacity="0.3"><line x1="0" y1="720" x2="768" y2="720" vector-effect="non-scaling-stroke" stroke-width="1" stroke="rgb(68,159,219)" stroke-linejoin="miter" stroke-linecap="butt" stroke-miterlimit="4"/></g><line x1="0" y1="736" x2="768" y2="736" vector-effect="non-scaling-stroke" stroke-width="1" stroke="rgb(68,159,219)" stroke-linejoin="miter" stroke-linecap="butt" stroke-miterlimit="4"/><g opacity="0.3"><line x1="0" y1="752" x2="768" y2="752" vector-effect="non-scaling-stroke" stroke-width="1" stroke="rgb(68,159,219)" stroke-linejoin="miter" stroke-linecap="butt" stroke-miterlimit="4"/></g></g><g id="Group"><path d=" M 65 384 C 65 333.4 85.1 284.7 120.9 248.9 C 156.7 213.1 205.4 193 256 193 C 306.6 193 355.3 213.1 391.1 248.9 C 426.9 284.7 447 333.4 447 384 C 447 434.6 426.9 483.3 391.1 519.1 C 355.3 554.9 306.6 575 256 575 C 205.4 575 156.7 554.9 120.9 519.1 C 85.1 483.3 65 434.6 65 384 Z  M 129 384 C 129 350.3 142.4 318 166.2 294.2 C 190 270.4 222.3 257 256 257 C 289.7 257 322 270.4 345.8 294.2 C 369.6 318 383 350.3 383 384 C 383 417.7 369.6 450 345.8 473.8 C 322 497.6 289.7 511 256 511 C 222.3 511 190 497.6 166.2 473.8 C 142.4 450 129 417.7 129 384 Z " fill-rule="evenodd" fill="rgb(0,0,0)"/><path d=" M 512 160 C 512 124.677 540.677 96 576 96 C 611.323 96 640 124.677 640 160 C 640 195.323 611.323 224 576 224 C 540.677 224 512 195.323 512 160 Z  M 448 160 C 448 126.1 461.5 93.5 485.5 69.5 C 509.5 45.5 542.1 32 576 32 C 609.9 32 642.5 45.5 666.5 69.5 C 690.5 93.5 704 126.1 704 160 C 704 193.9 690.5 226.5 666.5 250.5 C 642.5 274.5 609.9 288 576 288 C 542.1 288 509.5 274.5 485.5 250.5 C 461.5 226.5 448 193.9 448 160 Z " fill-rule="evenodd" fill="rgb(0,0,0)"/><path d=" M 512 606 C 512 570.677 540.677 542 576 542 C 611.323 542 640 570.677 640 606 C 640 641.323 611.323 670 576 670 C 540.677 670 512 641.323 512 606 Z  M 448 606 C 448 572.1 461.5 539.5 485.5 515.5 C 509.5 491.5 542.1 478 576 478 C 609.9 478 642.5 491.5 666.5 515.5 C 690.5 539.5 704 572.1 704 606 C 704 639.9 690.5 672.5 666.5 696.5 C 642.5 720.5 609.9 734 576 734 C 542.1 734 509.5 720.5 485.5 696.5 C 461.5 672.5 448 639.9 448 606 Z " fill-rule="evenodd" fill="rgb(0,0,0)"/><path d=" M 369.3 502.4 L 343.1 484 L 379.8 431.6 L 406 449.9 L 508.3 521.5 L 534.5 539.9 L 497.8 592.3 L 471.6 574 L 369.3 502.4 Z " fill="rgb(0,0,0)"/><path d=" M 478.1 189.5 L 504.3 171.1 L 541 223.6 L 514.8 241.9 L 410.9 314.6 L 384.7 333 L 348 280.6 L 374.2 262.2 L 478.1 189.5 Z " fill="rgb(0,0,0)"/></g></g></svg>