<svg height="1024pt" viewBox="0 0 1024 1024" width="1024pt" xmlns="http://www.w3.org/2000/svg" xmlns:xlink="http://www.w3.org/1999/xlink"><clipPath id="a"><path d="m0 0h1024v1024h-1024z"/></clipPath><g clip-path="url(#a)"><path d="m79.954 924.235c-30.873-78.749 31.095-288.422 112.239-491.486 10.836-27.117 21.724-53.009 32.665-77.677q129.319-291.567 268.428-355.072-7.438 55.888-6.348 76.859 1.09 20.971 4.055 37.387 43.332-.91 101.378 7.885 58.046 8.795 98.856 26.996 44.389-33.829 79.94-48.786 35.552-14.958 93.891-20.673-97.423 307.99-104.345 424.216c-11.325 190.153 5.754 313.659 9.46 367.766 24.584 3.255 48.535.482 84.435-12.98 20.681-7.755 48.389-31.011 40.023-69.671-5.42-25.051-39.286-29.491-59.294-26.683-8.279 1.162-24.979-.992-28.906-14.082-4.447-14.824 7.676-26.155 17.788-30.389 22.233-9.306 67.268-16.809 100.327 13.802 27.982 25.909 28.842 64.758 23.265 94.281-5.254 27.809-25.713 48.977-42.566 61.832-32.547 24.826-87.835 40.574-132.155 46.96-2.854 30.002-28.682 41.663-48.879 50.511-64.469 28.242-184.754 43.021-309.238 37.695-179.914-7.698-312.932-42.349-335.019-98.691z" fill="#446adb"/><g fill="#fff"><path d="m449.6 365.5c-.4-2.4.2-4.8 1.7-6.8 1.4-2 3.6-3.3 6-3.6 2.4-.4 4.9.2 6.8 1.6 2 1.5 3.3 3.6 3.7 6 .4 3 1.3 5.8 2.6 8.5.7 1.5 1.8 2.8 3 3.9 1.3 1 2.7 1.9 4.3 2.3 2.7.9 5.6 1.3 8.5 1.3 3.1 0 6.2-.5 9.2-1.3 1.6-.5 3.2-1.2 4.5-2.3 1.2-.9 2.2-2 2.9-3.3 1.1-1.9 1.9-4 2.4-6.2.5-2.4 1.9-4.5 3.9-5.9 2-1.3 4.5-1.8 6.9-1.3s4.5 1.9 5.8 3.9c1.4 2 1.9 4.5 1.4 6.9-.9 4.2-2.4 8.1-4.5 11.8-1.9 3.4-4.5 6.4-7.6 8.7-3.2 2.5-6.8 4.3-10.7 5.3-4.6 1.3-9.3 2-14.1 2.1-4.8 0-9.5-.7-14-2.1-4-1.2-7.7-3.3-10.8-6-3.2-2.7-5.8-6-7.6-9.7-2.1-4.4-3.6-9-4.3-13.8z"/><path d="m458.372 184c19.184 4.836 4.731 42.829-1.333 59.216-6.064 16.386-19.232 54.918-35.342 51.613-16.11-3.304-10.917-42.683-3.068-66.15s20.56-49.514 39.743-44.679z"/><path d="m623.373 208.9c19.183 4.835 8.385 42.455 2.32 58.841-6.064 16.387-19.231 54.918-35.342 51.614-16.11-3.305-10.916-42.684-3.068-66.151 7.849-23.466 16.906-49.14 36.09-44.304z"/></g></g></svg>