<svg height="1024pt" viewBox="0 0 1024 1024" width="1024pt" xmlns="http://www.w3.org/2000/svg" xmlns:xlink="http://www.w3.org/1999/xlink"><clipPath id="a"><path d="m0 0h1024v1024h-1024z"/></clipPath><clipPath id="b"><circle cx="512" cy="512" r="460.8"/></clipPath><filter id="c" color-interpolation-filters="sRGB" height="400%" width="400%" x="-200%" y="-200%"><feGaussianBlur in="SourceGraphic" stdDeviation="20.60932350163" xmlns="http://www.w3.org/2000/svg"/><feOffset dx="0" dy="24" result="pf_100_offsetBlur" xmlns="http://www.w3.org/2000/svg"/><feFlood flood-opacity=".65" xmlns="http://www.w3.org/2000/svg"/><feComposite in2="pf_100_offsetBlur" operator="in" result="pf_100_dropShadow" xmlns="http://www.w3.org/2000/svg"/><feBlend in="SourceGraphic" in2="pf_100_dropShadow" mode="normal" xmlns="http://www.w3.org/2000/svg"/></filter><g clip-path="url(#a)"><path d="m0 0h1024v1024h-1024z" fill="none"/><g filter="url(#c)"><circle cx="512" cy="512" fill="#fff" r="460.8"/><g clip-path="url(#b)"><path d="m73.776 1189.114c-37.024-82.145 17.779-308.508 93.336-528.857 10.09-29.425 20.3-57.55 30.632-84.375q122.114-317.065 266.745-392.01-4.948 59.855-2.676 82.109 2.272 22.253 6.298 39.561 46.053-3.268 108.276 3.01 62.223 6.277 106.608 23.476 45.431-38.347 82.461-56.146 37.03-17.8 98.795-26.976-87.308 332.846-88.506 456.868c-1.959 202.908 22.764 333.402 29.578 390.77 26.328 2.16 51.663-2.061 89.143-18.289 21.592-9.348 49.837-35.561 38.885-76.248-7.096-26.364-43.362-29.291-64.5-25.242-8.747 1.676-26.628.27-31.501-13.449-5.518-15.535 6.779-28.234 17.313-33.274 23.16-11.082 70.675-21.454 107.472 9.36 31.146 26.08 34.122 67.367 29.754 99.073-4.114 29.865-24.758 53.472-42.005 68.043-33.31 28.14-91.297 47.828-138.111 56.973-1.445 32.071-28.305 45.848-49.323 56.333-67.091 33.468-194.281 55.574-327.004 56.512-191.823 1.357-335.181-28.451-361.67-87.222z" fill="#446adb"/><g fill="#fff"><path d="m437.404 575.052c-.553-2.532-.042-5.118 1.448-7.325 1.383-2.202 3.655-3.702 6.192-4.148 2.532-.553 5.224-.048 7.32 1.341 2.207 1.49 3.702 3.655 4.254 6.187.585 3.171 1.691 6.102 3.218 8.906.824 1.558 2.063 2.883 3.398 3.99 1.436.995 2.974 1.878 4.697 2.218 2.921.815 6.027 1.086 9.112.933 3.299-.165 6.57-.861 9.72-1.872 1.675-.617 3.34-1.446 4.665-2.685 1.229-1.022 2.235-2.245 2.91-3.665 1.07-2.08 1.81-4.357 2.225-6.724.404-2.58 1.783-4.888 3.836-6.484 2.059-1.489 4.692-2.154 7.272-1.749s4.889 1.783 6.378 3.841c1.595 2.054 2.26 4.687 1.855 7.267-.734 4.516-2.123 8.745-4.161 12.793-1.841 3.718-4.448 7.048-7.624 9.66-3.272 2.829-7.007 4.935-11.103 6.206-4.825 1.627-9.788 2.621-14.89 2.982-5.107.255-10.144-.24-15.006-1.491-4.319-1.064-8.367-3.102-11.809-5.81-3.548-2.703-6.489-6.076-8.6-9.917-2.468-4.57-4.308-9.385-5.307-14.454z"/><path d="m437.107 381.486c20.666 4.127 7.305 45.315 1.723 63.071-5.583 17.755-17.547 59.448-34.863 56.787-17.315-2.66-13.879-44.832-6.773-70.215 7.105-25.384 19.247-53.77 39.913-49.643z"/><path d="m613.974 399.222c20.666 4.127 11.174 44.723 5.592 62.479-5.583 17.756-17.548 59.449-34.863 56.788s-13.879-44.833-6.774-70.216c7.106-25.383 15.379-53.179 36.045-49.051z"/></g></g></g></g></svg>