<?xml version="1.0" encoding="UTF-8" standalone="no"?><!-- Generator: Gravit.io --><svg xmlns="http://www.w3.org/2000/svg" xmlns:xlink="http://www.w3.org/1999/xlink" style="isolation:isolate" viewBox="0 0 1024 1024" width="1024pt" height="1024pt"><defs><clipPath id="_clipPath_Wo387pKQ954vZKFBc2XNVO4SN5bohRHJ"><rect width="1024" height="1024"/></clipPath></defs><g clip-path="url(#_clipPath_Wo387pKQ954vZKFBc2XNVO4SN5bohRHJ)"><g/><rect x="0" y="0" width="1024" height="1024" transform="matrix(1,0,0,1,0,0)" fill="rgb(255,255,255)"/><clipPath id="_clipPath_BrzO2zs22T2hFxDwcprMIYlgXL5FeM5w"><rect x="0" y="0" width="1024" height="1024" transform="matrix(1,0,0,1,0,0)" fill="rgb(255,255,255)"/></clipPath><g clip-path="url(#_clipPath_BrzO2zs22T2hFxDwcprMIYlgXL5FeM5w)"><g><g><path d=" M 28.891 1302.926 C -13.455 1208.971 49.227 950.064 135.646 698.036 C 147.186 664.381 158.865 632.213 170.682 601.531 Q 310.352 238.881 475.776 153.161 Q 470.117 221.622 472.716 247.075 Q 475.315 272.528 479.919 292.324 Q 532.594 288.587 603.762 295.766 Q 674.931 302.946 725.696 322.618 Q 777.659 278.758 820.013 258.4 Q 862.367 238.041 933.012 227.546 Q 833.152 608.244 831.782 750.097 C 829.541 982.176 857.818 1131.432 865.612 1197.048 C 895.725 1199.518 924.703 1194.69 967.571 1176.129 C 992.267 1165.437 1024.573 1135.456 1012.047 1088.919 C 1003.931 1058.764 962.45 1055.417 938.273 1060.048 C 928.269 1061.965 907.817 1060.357 902.243 1044.666 C 895.932 1026.897 909.997 1012.372 922.046 1006.607 C 948.535 993.933 1002.882 982.07 1044.969 1017.313 C 1080.592 1047.143 1083.996 1094.366 1079 1130.63 C 1074.295 1164.789 1050.683 1191.79 1030.956 1208.455 C 992.857 1240.641 926.534 1263.16 872.989 1273.62 C 871.337 1310.302 840.615 1326.059 816.575 1338.052 C 739.838 1376.331 594.363 1401.615 442.558 1402.689 C 223.157 1404.24 59.189 1370.147 28.891 1302.926 Z " fill="rgb(68,106,219)"/><path d=" M 444.797 600.581 C 444.165 597.685 444.749 594.728 446.453 592.203 C 448.036 589.684 450.634 587.969 453.536 587.458 C 456.432 586.826 459.511 587.404 461.908 588.993 C 464.433 590.697 466.142 593.173 466.774 596.069 C 467.443 599.696 468.708 603.048 470.454 606.255 C 471.397 608.038 472.815 609.553 474.342 610.819 C 475.984 611.957 477.742 612.967 479.714 613.357 C 483.054 614.288 486.607 614.599 490.136 614.423 C 493.908 614.235 497.65 613.438 501.252 612.282 C 503.169 611.577 505.074 610.628 506.589 609.211 C 507.994 608.043 509.145 606.643 509.917 605.019 C 511.141 602.64 511.987 600.036 512.462 597.329 C 512.924 594.378 514.501 591.737 516.849 589.912 C 519.204 588.209 522.216 587.449 525.167 587.912 C 528.118 588.374 530.758 589.951 532.462 592.305 C 534.287 594.654 535.047 597.666 534.584 600.617 C 533.744 605.782 532.155 610.619 529.824 615.249 C 527.718 619.502 524.737 623.31 521.104 626.297 C 517.362 629.534 513.09 631.942 508.405 633.396 C 502.886 635.257 497.209 636.394 491.374 636.807 C 485.533 637.098 479.772 636.532 474.211 635.101 C 469.27 633.884 464.64 631.553 460.704 628.455 C 456.646 625.364 453.282 621.506 450.867 617.113 C 448.045 611.886 445.94 606.38 444.797 600.581 Z " fill="rgb(255,255,255)"/><path d=" M 444.457 379.186 C 468.095 383.907 452.814 431.016 446.429 451.325 C 440.043 471.633 426.359 519.32 406.554 516.277 C 386.749 513.233 390.679 464.999 398.806 435.966 C 406.933 406.933 420.82 374.466 444.457 379.186 Z " fill="rgb(255,255,255)"/><path d=" M 646.753 399.472 C 670.391 404.192 659.534 450.626 653.149 470.934 C 646.763 491.243 633.079 538.929 613.274 535.886 C 593.469 532.843 597.399 484.608 605.526 455.576 C 613.653 426.543 623.116 394.751 646.753 399.472 Z " fill="rgb(255,255,255)"/></g></g></g><rect x="889.943" y="940.508" width="134.057" height="83.492" transform="matrix(1,0,0,1,0,0)" fill="rgb(255,255,255)"/></g></svg>