<svg height="1024pt" viewBox="0 0 1024 1024" width="1024pt" xmlns="http://www.w3.org/2000/svg" xmlns:xlink="http://www.w3.org/1999/xlink"><clipPath id="a"><path d="m0 0h1024v1024h-1024z"/></clipPath><clipPath id="b"><path d="m0 0h1024v1024h-1024z"/></clipPath><g clip-path="url(#a)"><path d="m0 0h1024v1024h-1024z" fill="#fff"/><g clip-path="url(#b)"><path d="m28.891 1302.926c-42.346-93.955 20.336-352.862 106.755-604.89 11.54-33.655 23.219-65.823 35.036-96.505q139.67-362.65 305.094-448.37-5.659 68.461-3.06 93.914 2.599 25.453 7.203 45.249 52.675-3.737 123.843 3.442 71.169 7.18 121.934 26.852 51.963-43.86 94.317-64.218 42.354-20.359 112.999-30.854-99.86 380.698-101.23 522.551c-2.241 232.079 26.036 381.335 33.83 446.951 30.113 2.47 59.091-2.358 101.959-20.919 24.696-10.692 57.002-40.673 44.476-87.21-8.116-30.155-49.597-33.502-73.774-28.871-10.004 1.917-30.456.309-36.03-15.382-6.311-17.769 7.754-32.294 19.803-38.059 26.489-12.674 80.836-24.537 122.923 10.706 35.623 29.83 39.027 77.053 34.031 113.317-4.705 34.159-28.317 61.16-48.044 77.825-38.099 32.186-104.422 54.705-157.967 65.165-1.652 36.682-32.374 52.439-56.414 64.432-76.737 38.279-222.212 63.563-374.017 64.637-219.401 1.551-383.369-32.542-413.667-99.763z" fill="#446adb"/><g fill="#fff"><path d="m444.797 600.581c-.632-2.896-.048-5.853 1.656-8.378 1.583-2.519 4.181-4.234 7.083-4.745 2.896-.632 5.975-.054 8.372 1.535 2.525 1.704 4.234 4.18 4.866 7.076.669 3.627 1.934 6.979 3.68 10.186.943 1.783 2.361 3.298 3.888 4.564 1.642 1.138 3.4 2.148 5.372 2.538 3.34.931 6.893 1.242 10.422 1.066 3.772-.188 7.514-.985 11.116-2.141 1.917-.705 3.822-1.654 5.337-3.071 1.405-1.168 2.556-2.568 3.328-4.192 1.224-2.379 2.07-4.983 2.545-7.69.462-2.951 2.039-5.592 4.387-7.417 2.355-1.703 5.367-2.463 8.318-2 2.951.462 5.591 2.039 7.295 4.393 1.825 2.349 2.585 5.361 2.122 8.312-.84 5.165-2.429 10.002-4.76 14.632-2.106 4.253-5.087 8.061-8.72 11.048-3.742 3.237-8.014 5.645-12.699 7.099-5.519 1.861-11.196 2.998-17.031 3.411-5.841.291-11.602-.275-17.163-1.706-4.941-1.217-9.571-3.548-13.507-6.646-4.058-3.091-7.422-6.949-9.837-11.342-2.822-5.227-4.927-10.733-6.07-16.532z"/><path d="m444.457 379.186c23.638 4.721 8.357 51.83 1.972 72.139-6.386 20.308-20.07 67.995-39.875 64.952-19.805-3.044-15.875-51.278-7.748-80.311s22.014-61.5 45.651-56.78z"/><path d="m646.753 399.472c23.638 4.72 12.781 51.154 6.396 71.462-6.386 20.309-20.07 67.995-39.875 64.952s-15.875-51.278-7.748-80.31c8.127-29.033 17.59-60.825 41.227-56.104z"/></g></g><path d="m889.943 940.508h134.057v83.492h-134.057z" fill="#fff"/></g></svg>