<svg height="1024pt" viewBox="0 0 1024 1024" width="1024pt" xmlns="http://www.w3.org/2000/svg" xmlns:xlink="http://www.w3.org/1999/xlink"><clipPath id="a"><path d="m0 0h1024v1024h-1024z"/></clipPath><g clip-path="url(#a)"><path d="m0 0h1024v1024h-1024z" fill="none"/><path d="m115.477 893.615c-28.579-72.9 28.785-266.999 103.903-454.98 10.031-25.102 20.11-49.071 30.238-71.906q119.713-269.91 248.489-328.698-6.886 51.737-5.877 71.15 1.01 19.414 3.754 34.61 40.114-.843 93.848 7.299 53.734 8.142 91.513 24.991 41.092-31.317 74.003-45.163 32.91-13.846 86.916-19.137-90.186 285.113-96.594 392.706c-10.484 176.028 5.326 290.361 8.757 340.448 22.758 3.014 44.93.447 78.163-12.015 19.146-7.18 44.795-28.708 37.051-64.496-5.018-23.19-36.369-27.301-54.89-24.701-7.664 1.076-23.124-.918-26.759-13.036-4.117-13.723 7.106-24.213 16.467-28.132 20.581-8.615 62.271-15.561 92.875 12.776 25.903 23.985 26.7 59.949 21.536 87.279-4.864 25.743-23.803 45.339-39.403 57.239-30.13 22.982-81.311 37.56-122.339 43.471-2.642 27.774-26.552 38.569-45.249 46.76-59.68 26.144-171.03 39.825-286.267 34.895-166.551-7.126-289.688-39.203-310.135-91.36z" style="fill:none;stroke-width:16;stroke-dasharray:32 52;stroke:#446adb;stroke-linejoin:round;stroke-linecap:round;stroke-miterlimit:3"/><g fill="#446adb"><path d="m457.666 376.382c-.37-2.222.185-4.444 1.574-6.295 1.296-1.851 3.333-3.055 5.554-3.333 2.222-.37 4.536.186 6.295 1.482 1.852 1.388 3.055 3.332 3.425 5.554.371 2.777 1.204 5.369 2.407 7.869.648 1.388 1.667 2.592 2.777 3.61 1.204.926 2.5 1.759 3.981 2.129 2.499.833 5.184 1.203 7.869 1.203 2.869 0 5.739-.462 8.516-1.203 1.481-.463 2.963-1.111 4.166-2.129 1.111-.833 2.037-1.852 2.685-3.055 1.018-1.759 1.758-3.703 2.221-5.74.463-2.221 1.759-4.165 3.611-5.461 1.851-1.204 4.165-1.667 6.387-1.204s4.166 1.759 5.369 3.611c1.296 1.851 1.759 4.165 1.296 6.387-.833 3.888-2.221 7.498-4.165 10.924-1.759 3.147-4.166 5.924-7.036 8.053-2.962 2.315-6.295 3.981-9.905 4.907-4.258 1.203-8.609 1.851-13.053 1.944-4.443 0-8.794-.648-12.96-1.944-3.703-1.111-7.128-3.055-9.998-5.555-2.962-2.499-5.369-5.554-7.035-8.979-1.944-4.073-3.333-8.332-3.981-12.775z"/><path d="m465.787 208.364c17.758 4.477 4.38 39.647-1.234 54.817-5.614 15.169-17.804 50.838-32.717 47.779-14.914-3.059-10.106-39.513-2.84-61.236 7.266-21.724 19.033-45.837 36.791-41.36z"/><path d="m618.531 231.414c17.758 4.476 7.762 39.301 2.149 54.471-5.614 15.169-17.804 50.838-32.717 47.779-14.914-3.059-10.106-39.513-2.84-61.236 7.266-21.724 15.65-45.491 33.408-41.014z"/></g></g></svg>