<?xml version="1.0" encoding="UTF-8" standalone="no"?><!-- Generator: Gravit.io --><svg xmlns="http://www.w3.org/2000/svg" xmlns:xlink="http://www.w3.org/1999/xlink" style="isolation:isolate" viewBox="0 0 1024 1024" width="1024pt" height="1024pt"><defs><clipPath id="_clipPath_ToGl1HY1Fgl16uUuXBUl0CTr2tw7ZLiN"><rect width="1024" height="1024"/></clipPath></defs><g clip-path="url(#_clipPath_ToGl1HY1Fgl16uUuXBUl0CTr2tw7ZLiN)"><rect width="1024" height="1024" style="fill:rgb(0,0,0)" fill-opacity="0"/><g><path d=" M 115.477 893.615 C 86.898 820.715 144.262 626.616 219.38 438.635 C 229.411 413.533 239.49 389.564 249.618 366.729 Q 369.331 96.819 498.107 38.031 Q 491.221 89.768 492.23 109.181 Q 493.24 128.595 495.984 143.791 Q 536.098 142.948 589.832 151.09 Q 643.566 159.232 681.345 176.081 Q 722.437 144.764 755.348 130.918 Q 788.258 117.072 842.264 111.781 Q 752.078 396.894 745.67 504.487 C 735.186 680.515 750.996 794.848 754.427 844.935 C 777.185 847.949 799.357 845.382 832.59 832.92 C 851.736 825.74 877.385 804.212 869.641 768.424 C 864.623 745.234 833.272 741.123 814.751 743.723 C 807.087 744.799 791.627 742.805 787.992 730.687 C 783.875 716.964 795.098 706.474 804.459 702.555 C 825.04 693.94 866.73 686.994 897.334 715.331 C 923.237 739.316 924.034 775.28 918.87 802.61 C 914.006 828.353 895.067 847.949 879.467 859.849 C 849.337 882.831 798.156 897.409 757.128 903.32 C 754.486 931.094 730.576 941.889 711.879 950.08 C 652.199 976.224 540.849 989.905 425.612 984.975 C 259.061 977.849 135.924 945.772 115.477 893.615 Z " fill="none" vector-effect="non-scaling-stroke" stroke-width="16" stroke-dasharray="32,52" stroke="rgb(68,106,219)" stroke-linejoin="round" stroke-linecap="round" stroke-miterlimit="3"/><path d=" M 457.666 376.382 C 457.296 374.16 457.851 371.938 459.24 370.087 C 460.536 368.236 462.573 367.032 464.794 366.754 C 467.016 366.384 469.33 366.94 471.089 368.236 C 472.941 369.624 474.144 371.568 474.514 373.79 C 474.885 376.567 475.718 379.159 476.921 381.659 C 477.569 383.047 478.588 384.251 479.698 385.269 C 480.902 386.195 482.198 387.028 483.679 387.398 C 486.178 388.231 488.863 388.601 491.548 388.601 C 494.417 388.601 497.287 388.139 500.064 387.398 C 501.545 386.935 503.027 386.287 504.23 385.269 C 505.341 384.436 506.267 383.417 506.915 382.214 C 507.933 380.455 508.673 378.511 509.136 376.474 C 509.599 374.253 510.895 372.309 512.747 371.013 C 514.598 369.809 516.912 369.346 519.134 369.809 C 521.356 370.272 523.3 371.568 524.503 373.42 C 525.799 375.271 526.262 377.585 525.799 379.807 C 524.966 383.695 523.578 387.305 521.634 390.731 C 519.875 393.878 517.468 396.655 514.598 398.784 C 511.636 401.099 508.303 402.765 504.693 403.691 C 500.435 404.894 496.084 405.542 491.64 405.635 C 487.197 405.635 482.846 404.987 478.68 403.691 C 474.977 402.58 471.552 400.636 468.682 398.136 C 465.72 395.637 463.313 392.582 461.647 389.157 C 459.703 385.084 458.314 380.825 457.666 376.382 Z " fill="rgb(68,106,219)"/><path d=" M 465.787 208.364 C 483.545 212.841 470.167 248.011 464.553 263.181 C 458.939 278.35 446.749 314.019 431.836 310.96 C 416.922 307.901 421.73 271.447 428.996 249.724 C 436.262 228 448.029 203.887 465.787 208.364 Z " fill="rgb(68,106,219)"/><path d=" M 618.531 231.414 C 636.289 235.89 626.293 270.715 620.68 285.885 C 615.066 301.054 602.876 336.723 587.963 333.664 C 573.049 330.605 577.857 294.151 585.123 272.428 C 592.389 250.704 600.773 226.937 618.531 231.414 Z " fill="rgb(68,106,219)"/></g></g></svg>