<svg height="1024pt" viewBox="0 0 2048 1024" width="2048pt" xmlns="http://www.w3.org/2000/svg" xmlns:xlink="http://www.w3.org/1999/xlink"><clipPath id="a"><path d="m0 0h2048v1024h-2048z"/></clipPath><g clip-path="url(#a)"><path d="m0 0h2048v1024h-2048z" fill="none"/><g fill="#fff"><path d="m1333.3 614.6c4.3 2.1 9 3.2 13.8 3.4 7.1-.3 13.9-3 19.4-7.7 9-7.8 16.4-17.3 21.7-28 3.1-6.3 8.6-11.1 15.2-13.4 6.7-2.3 14-1.8 20.3 1.3s11.1 8.6 13.4 15.3c2.2 6.6 1.8 13.9-1.3 20.2-8.5 17.2-20.3 32.4-34.8 44.8-15 12.9-34 20.2-53.7 20.5-14.5-.1-28.7-3.9-41.4-11-10.8-6.2-18.9-16.3-22.7-28.2-3.4-10.3-4.9-21.1-4.6-31.9.2-14.1 1.8-28.2 4.6-42 3.1-16 7-31.9 11.7-47.5 10.4-35 22.8-69.4 37.1-103 13.2-32 28-63.4 44.2-94 6.5-12.2 13.5-24.3 20.8-36 5.6-9.3 12-18 19.1-26.1 4.6-5.3 11.1-8.6 18.2-9.1 7-.5 13.9 1.9 19.2 6.5s8.5 11.1 9 18.2c.5 7-1.8 13.9-6.4 19.2-5.2 5.9-9.9 12.3-13.9 19.1-6.8 10.7-13.2 21.8-19.1 33-15.5 29.2-29.6 59.2-42.2 89.7-13.6 31.9-25.3 64.5-35.2 97.7-4.2 14-7.7 28.3-10.5 42.7-2.2 10.8-3.4 21.8-3.6 32.9-.2 4.5.4 9 1.7 13.4z"/><path d="m1305.246 400.349c-4.969-.331-9.939-2.651-13.584-6.627s-5.632-8.945-5.301-14.247c.331-5.301 2.651-10.271 6.626-13.915 3.645-3.313 8.946-5.301 14.247-4.97 29.488 1.325 59.303.295 88.795-2.982 17.892-1.988 48.311-9.483 66.372-15.974 17.299-6.217 37.056-8.037 33.605 13.572-2.674 16.748-13.4 23.17-23.583 27.091-21.477 8.271-60.896 14.517-71.755 14.739-33.392.68-63.614 4.638-95.422 3.313z"/><path d="m1687 644.3c-3.9 3.3-8 6.4-12.3 9.3-15.3 9.9-32 17.6-49.4 23-12.4 3.9-24.9 7.2-37.6 10-4.9 1.1-9.8 2.2-14.7 3.5-7.3 18.4-15 36.8-22.9 55.1-13.1 30.6-28.2 60.4-45.4 89-7.5 12.5-15.8 24.5-24.9 35.9-8.2 10.5-17.6 20.2-27.8 28.8-7.6 6.1-16.3 10.5-25.6 13.2-9.1 2.7-18.6 4.1-28.2 4.1-19.7.5-39.1-5.9-54.6-18.2-8.9-7.3-15.9-16.7-20.5-27.3-4.8-11.6-7.2-24.1-7-36.7 0 0 .1-.1.1-.2l.1-4.8c0-.2 0-.3 0-.5 1.2-26.6 10.5-52.3 26.7-73.5 12.1-15 26.4-27.9 42.5-38.5 33.4-23.5 69.5-42.8 107.6-57.4 13.3-4.8 26.6-9.2 40.2-13.2 2.9-7.6 5.7-15.3 8.6-23.1l38.5-108c11.2-32.4 22.7-64.7 34.5-96.9 10.3-28.4 21.5-56.5 33.7-84.2 2.8-6.5 8.1-11.5 14.6-14.1 6.6-2.6 13.9-2.4 20.3.4s11.5 8.1 14.1 14.7c2.5 6.5 2.4 13.8-.5 20.2-11.6 26.7-22.5 53.8-32.4 81.2l-34.2 96.1-34.9 97.9c4.7-1.3 9.3-2.7 14-4.1 12.6-3.9 24.7-9.5 35.9-16.6 5-3.5 9.6-7.4 13.8-11.9 2.2-2.5 4.6-4.8 7.2-6.9 6.2-5.2 14-8 22.1-7.9 8.1.4 15.9 3.9 21.7 9.6 2.4 2.2 4.7 4.6 6.8 7 5.1 5.7 10.8 10.8 16.9 15.4 2.2 1.4 4.6 2.4 7.2 3 4.9 1.5 9.9 2.2 15 2.1 7.4.4 14.6-2.1 20.3-6.8 2.8-2.7 5-6.1 6.4-9.8 2.6-7.2 4-14.9 3.9-22.7 0-.1 0-.2 0-.3l.1-1.2c-.2-8.1-1.7-16.2-4.6-23.7-3.7-9.6-8-18.8-12.8-27.8-7.4-13.7-13.6-27.9-18.7-42.5-2.3-7.1-3.4-14.5-3.5-21.9-.3-24 11.2-46.7 30.7-60.5 11.6-8.1 25.2-12.4 39.3-12.5 12.7-.1 25.2 3.8 35.6 11 11.3 8.2 19.6 19.9 23.5 33.3 1.3 3.9 2 8 2.3 12.1 1 8.8-1.6 17.7-7.1 24.7-5.5 6.9-13.5 11.4-22.3 12.4-13 1-25.3-6.4-30.5-18.4-3-7.1-2.8-15 .4-21.9-.5-.1-1-.2-1.5-.2-3.3 0-6.5 1-9.2 2.8-5.3 3.9-8.4 10.2-8.1 16.8-.1 1.9.2 3.8.7 5.6 4.1 11.7 9.2 23.1 15.1 34.1 5.9 10.9 11 22.2 15.5 33.8 5.2 13.5 8 27.8 8.2 42.3v.6 1.5c0 14-2.5 27.9-7.3 41.1-4.4 11.7-11.5 22.2-20.6 30.7-15.6 13.7-35.9 21-56.6 20.5-9.5-.1-19-1.4-28.1-4-8.5-2.2-16.6-5.9-23.8-10.9-5.8-4.2-11.3-8.8-16.5-13.7zm-179.7 66.2c-32.5 12.9-63.4 29.6-92 49.8-11.5 7.5-21.9 16.8-30.6 27.4-9.3 12.5-14.7 27.4-15.4 43l-.2 4.4c0 5.1.9 10.2 2.8 14.9 1.2 2.6 2.9 4.9 5.1 6.8 5.9 4.5 13.1 6.7 20.5 6.4 4.8.1 9.5-.6 14.1-2 2.5-.7 4.8-1.8 6.9-3.4 7.2-6.2 13.8-13.1 19.7-20.5 7.7-9.7 14.7-19.8 21.1-30.4 15.9-26.6 30-54.2 42.1-82.7 2-4.6 4-9.1 5.9-13.7z" fill-rule="evenodd"/><circle cx="1694.685252" cy="265.355065" r="29.819199"/><circle cx="1492.170934" cy="603.051473" r="33.285032"/><path d="m1200.9 465.4c1-6.2 4.2-11.9 9.1-16-.3-.7-.7-1.3-1-1.9-.8-1.2-2-2.1-3.4-2.4l-3.7-.2c-4.3.2-8.4 1.3-12.2 3.3-7 3.8-13.8 8.1-20.2 12.9-.2.2-.4.3-.6.5l-.5.3c-12.8 9.3-23.8 20.8-32.4 34.1-11 16.2-19 34.3-23.6 53.4-1.5 6-2.3 12.2-2.3 18.3-.1 8.2 1.9 16.4 5.7 23.6 3.7 6.7 8.8 12.4 15 16.9 15.5 10.7 34 16.3 52.8 15.8 12.2.2 24.3-2.2 35.4-7.3 17-8.3 32.5-19.4 45.8-32.9 5-5 9.7-10.5 13.8-16.3 1.5-1.8 2.7-3.9 3.4-6.1 2.1-6.7 6.8-12.3 13-15.5 6.3-3.3 13.5-3.9 20.2-1.8s12.3 6.8 15.6 13.1c3.2 6.2 3.8 13.5 1.7 20.2-2.5 8-6.4 15.4-11.6 22-5.6 7.8-11.8 15.1-18.7 21.9-17.6 17.8-38 32.4-60.5 43.3-18.2 8.4-38 12.7-58 12.4-29.8.5-59-8.4-83.5-25.5-12.8-9.2-23.5-21.1-31.1-35-8-15.1-12.2-32-12-49.2.1-10.2 1.3-20.4 3.8-30.4 6-25.1 16.5-48.9 31-70.3 12.2-18.5 27.6-34.7 45.5-47.7.1-.1.2-.2.3-.2l.3-.2c8.5-6.4 17.4-12.1 26.8-17.1 11.4-6 24-9.3 36.9-9.6.8 0 1.5 0 2.2.1l6.1.3c.6.1 1.2.1 1.8.2 17.6 2.3 33.3 12.4 42.5 27.7 6.9 11.4 10.6 24.6 10.5 38 .1 6-.7 12-2.5 17.7-2.6 10-9.7 18.2-19.2 22.2-2.1.9-4.3 1.6-6.6 1.9l-2.5.3c-.4.1-.8.1-1.1.2-7.8.8-15.6-1.6-21.7-6.6-6.1-4.9-9.9-12.1-10.7-19.9-.3-2.3-.2-4.6.2-6.8z"/><path d="m604.8 365.9c-.7 3.8-2.1 7.4-4 10.7-1.8 3-4.1 5.7-6.9 7.8-2.9 2.2-6.1 3.8-9.6 4.8-4.1 1.2-8.4 1.8-12.7 1.8-4.3.1-8.6-.6-12.7-1.8-3.6-1.1-6.9-3-9.7-5.4-2.9-2.4-5.2-5.4-6.8-8.8-1.9-3.9-3.3-8.1-3.9-12.4-.3-2.2.2-4.4 1.5-6.2 1.3-1.7 3.2-2.9 5.4-3.2 2.2-.4 4.4.2 6.2 1.5 1.7 1.3 2.9 3.2 3.3 5.4.4 2.6 1.2 5.2 2.3 7.6.7 1.3 1.6 2.5 2.8 3.5 1.1 1 2.4 1.7 3.8 2.1 2.5.8 5.1 1.2 7.7 1.2 2.8 0 5.6-.4 8.3-1.2 1.5-.4 2.8-1.1 4.1-2 1-.9 1.9-1.9 2.6-3 1-1.8 1.7-3.7 2.1-5.7.4-2.1 1.7-4 3.5-5.2 1.9-1.2 4.1-1.7 6.3-1.2 2.1.4 4 1.7 5.2 3.5s1.7 4.1 1.2 6.2zm-58.415-167.033c17.303 4.362 4.267 38.63-1.203 53.411-5.47 14.78-17.347 49.534-31.878 46.554-14.531-2.981-9.846-38.5-2.767-59.666 7.08-21.167 18.545-44.661 35.848-40.299zm-341.326 667.676c-27.846-71.03 28.047-260.151 101.238-443.311 9.773-24.458 19.594-47.812 29.463-70.062q116.643-262.988 242.116-320.268-6.709 50.41-5.726 69.326.983 18.915 3.658 33.722 39.084-.821 91.44 7.112 52.357 7.932 89.167 24.349 40.038-30.513 72.104-44.004 32.067-13.491 84.688-18.646-87.873 277.801-94.117 382.634c-10.215 171.514 5.189 282.914 8.532 331.717 22.174 2.937 43.778.436 76.159-11.707 18.654-6.995 43.646-27.972 36.101-62.842-4.89-22.595-35.436-26.6-53.483-24.067-7.467 1.048-22.531-.895-26.073-12.702-4.011-13.371 6.924-23.592 16.045-27.41 20.053-8.394 60.674-15.162 90.493 12.448 25.239 23.37 26.015 58.411 20.984 85.04-4.739 25.083-23.193 44.177-38.393 55.771-29.357 22.393-79.226 36.598-119.202 42.357-2.574 27.061-25.87 37.58-44.087 45.56-58.15 25.474-166.645 38.804-278.926 34-162.28-6.943-282.259-38.197-302.181-89.017zm490.152-645.218c17.303 4.362 7.564 38.294 2.094 53.074-5.47 14.781-17.347 49.535-31.878 46.555-14.531-2.981-9.847-38.5-2.767-59.667 7.079-21.166 15.249-44.324 32.551-39.962z" fill-rule="evenodd"/></g></g></svg>