<svg width="24" height="24" viewBox="0 0 24 24" xmlns="http://www.w3.org/2000/svg"
    fill="none"
    stroke="currentColor"
    stroke-width="2"
    stroke-linecap="round"
    stroke-linejoin="round"
    class="feather feather-array-2d">
  <g>
    <path d="M0 0C0 0 3 0 3 0C3.55228 0 4 0.447715 4 1C4 1 4 17 4 17C4 17.5523 3.55228 18 3 18C3 18 0 18 0 18" transform="translate(17 3)" />
    <path d="M4 18C4 18 1 18 1 18C0.447715 18 0 17.5523 0 17C0 17 0 1 0 1C0 0.447715 0.447715 0 1 0C1 0 4 0 4 0" transform="translate(3 3)" />
    <path d="M0 0C0 0 1 0 1 0C1.55228 0 2 0.447715 2 1C2 1 2 9 2 9C2 9.55229 1.55228 10 1 10C1 10 0 10 0 10" transform="translate(15 7)" />
    <path d="M2 10C2 10 1 10 1 10C0.447715 10 0 9.5523 0 9C0 9 0 1 0 1C0 0.447715 0.447727 0 1 0C1 0 2 0 2 0" transform="translate(7 7)" />
  </g>
</svg>
