<svg width="24" height="24" viewBox="0 0 24 24" xmlns="http://www.w3.org/2000/svg" fill="none" stroke="currentColor" stroke-width="1" stroke-linecap="round" stroke-linejoin="round" class="feather feather-behavior">
    <path d="M12 19V4" stroke-width="2"/>
    <path d="M10 9H12"/>
    <path d="M13 16V16C14.3807 16 15.5 14.8807 15.5 13.5L15.5 12"/>
    <path d="M10 9C10 9.82843 9.32843 10.5 8.5 10.5C7.67157 10.5 7 9.82843 7 9C7 8.17157 7.67157 7.5 8.5 7.5C9.32843 7.5 10 8.17157 10 9Z"/>
    <circle cx="15.5" cy="10.5" r="1.5"/>
    <circle cx="8.5" cy="15.5" r="1.5"/>
    <path d="M12 19C12.1667 19.6667 13 21 15 21C17 21 19 20 19 18C19.8333 18 21 17 21 15C21 13 19.5 12 19 12C20.5 10.5 19.5 5.5 17 6C17.5 5 16.1 3 14.5 3C12.9 3 12.3333 3.5 12 4" stroke-width="2"/>
    <path d="M12 19C11.8333 19.6667 11 21 9 21C7 21 5 20 5 18C4.16667 18 3 17 3 15C3 13 4.5 12 5 12C3.5 10.5 4.5 5.5 7 6C6.5 5 7.9 3 9.5 3C11.1 3 11.6667 3.5 12 4" stroke-width="2"/>
    <path d="M5 12H6.5C7.60457 12 8.5 12.8954 8.5 14V14"/>
</svg>
