<svg width="24" height="24" viewBox="0 0 24 24" xmlns="http://www.w3.org/2000/svg" fill="none" stroke="currentColor" stroke-width="2" stroke-linecap="round" stroke-linejoin="round" class="feather feather-bool">
<path d="M3 11L3 6H4C5.10457 6 6 6.89543 6 8V8.55848C6 9.41934 5.44914 10.1836 4.63246 10.4558L3 11ZM3 11V18H4C5.10457 18 6 17.1046 6 16V13.4415C6 12.5807 5.44914 11.8164 4.63246 11.5442L3 11ZM21 18V6M18 16.5V13.5C18 12.6716 17.3284 12 16.5 12V12C15.6716 12 15 12.6716 15 13.5V16.5C15 17.3284 15.6716 18 16.5 18V18C17.3284 18 18 17.3284 18 16.5ZM10.5 12V12C9.67157 12 9 12.6716 9 13.5V16.5C9 17.3284 9.67157 18 10.5 18V18C11.3284 18 12 17.3284 12 16.5V13.5C12 12.6716 11.3284 12 10.5 12Z"/>
</svg>
