<svg fill="none" height="24" viewBox="0 0 24 24" width="24" xmlns="http://www.w3.org/2000/svg"><path d="m23 19c0 .5304-.2107 1.0391-.5858 1.4142s-.8838.5858-1.4142.5858h-18c-.53043 0-1.03914-.2107-1.41421-.5858-.37508-.3751-.58579-.8838-.58579-1.4142v-11c0-.53043.21071-1.03914.58579-1.41421.37507-.37508.88378-.58579 1.41421-.58579h4l2-3h6l2 3h4c.5304 0 1.0391.21071 1.4142.58579.3751.37507.5858.88378.5858 1.41421z"/><path d="m12 17c2.2091 0 4-1.7909 4-4s-1.7909-4-4-4c-2.20914 0-4 1.7909-4 4s1.79086 4 4 4z"/></svg>