<svg width="24" height="24" viewBox="0 0 24 24" fill="none" xmlns="http://www.w3.org/2000/svg" stroke="currentColor" stroke-width="2" stroke-linecap="round" stroke-linejoin="round" class="feather">
<path d="M22 5C22 3.89543 21 3 19.7778 3C17 3 17 4.99998 12 4.00002L11.9989 3.99979C7 3.00005 6.99979 3.00001 4.22222 3C3 3 2 3.89543 2 5V19C2 20.1046 2.94445 21 4.22222 21C7 21 7 21 12 20C17 19 17 21 19.7778 21C21.0051 21 22 20.1046 22 19V5Z"/>
<path d="M2 9C2 9 9.5 9 13 9.3125C16.5 9.62499 22 9 22 9"/>
<path d="M2 15C2 15 9.5 15 13 14.6875C16.5 14.375 22 15 22 15"/>
<path d="M5 6H5.01"/>
<path d="M5 12H5.01"/>
<path d="M5 18H5.01"/>
</svg>
