<svg width="67" height="64" viewBox="0 0 67 64" fill="none" xmlns="http://www.w3.org/2000/svg">
<path d="M53.5 34.5C55.5 34.5 57.5 37 57 39C56.5 41 55 42.5 53 42.5C51 42.5 49.5 41 49.5 39C49.5 37 50.5 34.5 53.5 34.5Z"/>
<path d="M26.5 36.0001C29.5 35.5001 32.5 37.5001 32 40.0001C31.5 42.5001 29.5 44.0001 27.5 44.0001C25.5 44.0001 23.5 43 23 41.0001C22.5001 39.0001 23.5 36.5001 26.5 36.0001Z"/>
<path fill-rule="evenodd" clip-rule="evenodd" d="M12 6.49994C9.60001 8.49994 9 16.5 9 18.5C7 20.5 6 23.5 5 28.5C3.18003 37.5998 11.1094 43.4451 18.9206 49.2032C19.281 49.4689 19.6411 49.7344 20 50C21.6834 51.2457 23.9892 52.6685 26.5 54C25.9587 53.5969 25 51.5 26.5 49C26.5 51.7218 27.658 54.3831 29.8095 55.655L30.5 56C35.5 58.5 40.2214 59.5052 42.5 57C46.4773 58.9302 49.5 55.5 50.5 54C50.5823 53.8766 50.6635 53.7606 50.7439 53.651C52.072 51.6178 52.6573 48.472 52.5 48C52.9818 49.2044 53.0283 50.5829 52.6398 51.7581C52.9105 51.5319 53.1944 51.2902 53.5 51C60.7482 44.1163 62.5 37.0374 62.5 31C62.5 24.6192 62.0845 24.0548 58.9814 19.8391L58.9802 19.8375C58.6794 19.4288 58.3534 18.9859 58 18.5C58.5 16 58.5 14 58.5 10C58.5 6 57.5 0 54 0C52.0184 0 49.2847 1.98993 47.5281 3.26864C47.1281 3.55978 46.7782 3.81451 46.5 3.99996C44.6667 3.49996 39.6 2.49996 34 2.49996C28.4 2.49996 22.6667 4.83328 20.5 5.99994C18.6667 5.33327 14.4 4.49994 12 6.49994ZM56 15.5C54.5 16 50 12.5001 49.5 10C49 7.49997 52 3.50007 54.5 3.50002C57 3.49998 57.5 15 56 15.5ZM21.5 18.5001C23 15.5001 17.5 9.00009 14 11.0001C10.5 13.0001 11 23.0001 12 23.5001C13 24.0001 20 21.5001 21.5 18.5001ZM42.5 55.5C44.5 55 46.0993 54.404 46.5 52C46.9007 49.5959 45 49 42 49.5C39 50 36.5 51.5 37.5 53.5C38.5 55.5 40.5 56 42.5 55.5ZM20.5 46C14.3849 45.3916 14.1505 33.4834 19 31C23.8495 28.5165 26.2505 29.5 30 32C32.114 33.4095 33.4336 36.0905 34.541 38.3404C35.3978 40.0811 36.1276 41.5638 37 42C39 43 36.5 31.5 32.5 24.5C28.5 17.5 28.5 11.0001 35.5 9.49996C42.5 7.99983 47 15 47.5 20.5C47.7225 22.948 46.8555 26.8819 46.001 30.7585C44.9358 35.5914 43.8902 40.3353 45 42C45.9365 43.4047 46.9826 40.7531 48.2924 37.4333C49.7798 33.6634 51.6071 29.0317 54 28.5C58.5 27.5 60 32 60 36.5C60 41 55.5 49 50.5 46C47.3447 44.1068 45.7823 45.0013 44.1794 45.919C43.2423 46.4555 42.2913 47 41 47C39.6253 47 38.8676 46.0743 38.1211 45.1622C36.9671 43.7522 35.8397 42.3747 32.5 44.5C28.1805 47.2487 26.0735 46.8866 23.146 46.3835C22.3459 46.246 21.4846 46.0979 20.5 46Z"/>
<path d="M29 57.5C18 52.5 12.5 47.5 8.5 43.5C5.66293 40.6628 4.8381 38.9996 4.24149 37.7965C3.99694 37.3034 3.79073 36.8876 3.5 36.5C2.5 38.5 3 42 4.5 44C2.5 44 0.603746 45.4484 0 46.5C0.302606 46.5 0.650063 46.4259 1.03365 46.3442C2.12893 46.111 3.51875 45.815 5 47C3.1866 47.1248 2.5 48 1.5 49.5C1.66667 49.3333 5 49 10.5 52C11.448 52.517 12.3217 53.0044 13.1467 53.4646C17.1084 55.6745 19.948 57.2585 24.5 58.5C32 60.5454 38.5 61 40 59.5C38.8333 59.5 33.3183 59.4628 29 57.5Z"/>
<path d="M53.9947 53.2962C54.662 52.6916 55.3332 52.0835 56 51.5C60 48 61 45.5 62 42.5C63 44 63 45.5 62.5 46.5C64 46 66 46.5 66.5 47.5C64.5 47.5 63.5 48 62.5 49C63.5 49 65.5 49 66.5 50C62.4246 50.8151 60.3423 52.2945 58.087 53.8968C57.5754 54.2603 57.0548 54.6302 56.5 55C54.2674 56.4884 50.5 59 47 58.5C48.979 57.8403 51.4594 55.5931 53.9947 53.2962Z"/>
</svg>
