<svg xmlns="http://www.w3.org/2000/svg" width="24" height="24" viewBox="0 0 24 24" fill="none" stroke="currentColor" stroke-width="2" stroke-linecap="round" stroke-linejoin="round" class="feather feather-code-alt">
<path d="M9 3H8.39835C6.59385 3 5.19769 4.58155 5.42151 6.3721L5.67028 8.36221C5.85847 9.86773 4.89298 11.2768 3.42105 11.6447L2 12L3.42105 12.3553C4.89299 12.7232 5.85847 14.1323 5.67028 15.6378L5.42151 17.6279C5.19769 19.4185 6.59385 21 8.39835 21H9"/>
<path d="M15 3H15.6017C17.4061 3 18.8023 4.58155 18.5785 6.3721L18.3297 8.36221C18.1415 9.86773 19.107 11.2768 20.579 11.6447L22 12L20.579 12.3553C19.107 12.7232 18.1415 14.1323 18.3297 15.6378L18.5785 17.6279C18.8023 19.4185 17.4061 21 15.6017 21H15"/>
</svg>
