<svg xmlns="http://www.w3.org/2000/svg" width="24" height="24" viewBox="0 0 24 24" fill="none" stroke="currentColor" stroke-width="2" stroke-linecap="round" stroke-linejoin="round" class="feather feather-sort-numerically">
<path d="M14.1159 22C18.4702 22 22 17.5228 22 12C22 6.47715 18.4702 2 14.1159 2M14.1159 22C9.7617 22 5.85507 17.5228 5.85507 12C5.85507 6.47715 9.7617 2 14.1159 2M14.1159 22H9.71015C4.75362 22 2 17.5228 2 12C2 6.47715 4.75362 2 9.71015 2H14.1159"/>
<path d="M16.1213 9.87868C14.9498 8.70711 13.0503 8.70711 11.8787 9.87868C10.7071 11.0503 10.7071 12.9497 11.8787 14.1213C13.0503 15.2929 14.9498 15.2929 16.1213 14.1213"/>
<path d="M11.5 7.5L16.5 16.5"/>
</svg>
