<svg width="24" height="24" viewBox="0 0 24 24" fill="none" xmlns="http://www.w3.org/2000/svg" fill="none" stroke="currentColor" stroke-width="2" stroke-linecap="round" stroke-linejoin="round" class="feather feather-ctmod">
<path d="M18 8C19.6569 8 21 6.65685 21 5C21 3.34315 19.6569 2 18 2C16.3431 2 15 3.34315 15 5C15 6.65685 16.3431 8 18 8Z"/>
<path d="M7 17C9.76142 17 12 14.7614 12 12C12 9.23858 9.76142 7 7 7C4.23858 7 2 9.23858 2 12C2 14.7614 4.23858 17 7 17Z"/>
<path d="M18 22C19.6569 22 21 20.6569 21 19C21 17.3431 19.6569 16 18 16C16.3431 16 15 17.3431 15 19C15 20.6569 16.3431 22 18 22Z"/>
<path d="M15.42 17.49L11 15"/>
<path d="M15.41 6.51001L11.1432 9"/>
</svg>
