<svg viewBox="0 0 24 24" xmlns="http://www.w3.org/2000/svg"><path d="m3.129 1.338c-1.047.622-3.109 2.991-3.129 3.612v1.029c0 1.304 1.219 2.45 2.325 2.45 1.329 0 2.436-1.101 2.436-2.408 0 1.307 1.069 2.408 2.398 2.408s2.364-1.101 2.364-2.408c0 1.307 1.137 2.408 2.466 2.408h.024c1.329 0 2.466-1.101 2.466-2.408 0 1.307 1.035 2.408 2.364 2.408s2.398-1.101 2.398-2.408c0 1.307 1.107 2.408 2.436 2.408 1.107 0 2.325-1.146 2.325-2.45v-1.029c-.02-.621-2.082-2.991-3.129-3.612-3.254-.114-5.51-.134-8.871-.133s-7.945.053-8.871.133zm6.377 6.477c-.133.23-.288.428-.467.601l-.001.001c-.502.49-1.189.794-1.947.794-.001 0-.002 0-.003 0-.759 0-1.447-.303-1.949-.795-.182-.178-.32-.368-.446-.59h-.001c-.126.222-.302.412-.485.59-.502.491-1.19.794-1.949.794-.001 0-.002 0-.003 0-.091 0-.186-.025-.263-.052-.107 1.112-.152 2.175-.168 2.95v.004c-.002.394-.004.717-.006 1.167.021 2.334-.231 7.564 1.029 8.849 1.953.455 5.546.663 9.151.664h.001c3.605-.001 7.198-.209 9.151-.664 1.26-1.285 1.008-6.516 1.029-8.849-.002-.45-.004-.773-.006-1.167v-.004c-.016-.775-.061-1.838-.168-2.95-.077.026-.172.052-.263.052-.001 0-.002 0-.002 0-.759 0-1.447-.303-1.949-.795h.001c-.182-.178-.358-.368-.485-.59h-.001c-.127.222-.265.412-.446.59-.502.491-1.19.795-1.948.795-.001 0-.002 0-.003 0-.758 0-1.445-.304-1.947-.795-.179-.174-.334-.372-.461-.589l-.007-.013c-.132.23-.286.428-.463.602-.502.491-1.19.795-1.949.795-.001 0-.002 0-.003 0-.026 0-.053-.001-.079-.002h-.001c-.026.001-.053.002-.08.002-.001 0-.002 0-.003 0-.759 0-1.447-.303-1.949-.795h.001c-.178-.174-.331-.372-.456-.589l-.007-.013zm-2.004 2.591v.001h.001c.794.002 1.498 0 2.372.953.687-.072 1.406-.108 2.125-.107h.001c.719-.001 1.437.035 2.125.107.873-.953 1.578-.952 2.372-.953h.001v-.001c.375 0 1.875 0 2.92 2.935l1.122 4.026c.832 2.995-.266 3.069-1.636 3.071-2.031-.076-3.156-1.551-3.156-3.026-1.124.184-2.436.276-3.748.276h-.001c-1.312 0-2.624-.092-3.748-.276 0 1.475-1.125 2.95-3.156 3.026-1.37-.003-2.468-.076-1.636-3.071l1.123-4.026c1.045-2.935 2.545-2.935 2.92-2.935zm4.498 2.307v.001c-.002.002-2.138 1.964-2.523 2.662l1.399-.056v1.22c0 .057.561.034 1.123.008h.001c.562.026 1.123.049 1.123-.008v-1.22l1.399.056c-.384-.698-2.523-2.662-2.523-2.662v-.001z"/></svg>