<svg fill="none" height="24" viewBox="0 0 24 24" width="24" xmlns="http://www.w3.org/2000/svg"><path d="m20 3h-16c-1.10457 0-2 .89543-2 2v10c0 1.1046.89543 2 2 2h16c1.1046 0 2-.8954 2-2v-10c0-1.10457-.8954-2-2-2z"/><path d="m8 21h8"/><path d="m12 17v4"/><path d="m17 6v3h-3"/><path d="m14.2923 13.3318c-.7315.4799-1.6013.712-2.4781.6614-.8767-.0507-1.7131-.3814-2.38303-.9422-.66992-.5609-1.13708-1.3215-1.3311-2.1674-.19401-.8458-.10437-1.73105.25543-2.52221.35979-.79116.97025-1.44542 1.7394-1.86419.7691-.41877 1.6552-.57935 2.5248-.45755.8696.12179 1.6726.45755 2.2964 1.13282.6237.67527 1.0839 1.82753 1.0839 1.82753"/></svg>