<svg xmlns="http://www.w3.org/2000/svg" width="24" height="24" viewBox="0 0 24 24" fill="none" stroke="currentColor" stroke-width="2" stroke-linecap="round" stroke-linejoin="round" class="feather feather-snowflake">
    <path d="M12 12V7M12 3V7M12 7L14.5 4.5M12 7L9.5 4.5"/>
    <path d="M12 12L12 17M12 21L12 17M12 17L9.5 19.5M12 17L14.5 19.5"/>
    <path d="M12 12L16.3301 9.49999M19.7942 7.49999L16.3301 9.49999M16.3301 9.49999L19.7452 10.4151M16.3301 9.49999L17.2452 6.08493"/>
    <path d="M12 12L7.66987 14.5M4.20577 16.5L7.66987 14.5M7.66987 14.5L4.25481 13.5849M7.66987 14.5L6.75481 17.9151"/>
    <path d="M12 12L16.3301 14.5M19.7942 16.5L16.3301 14.5M16.3301 14.5L17.2452 17.9151M16.3301 14.5L19.7452 13.5849"/>
    <path d="M12 12L7.66987 9.50001M4.20577 7.50001L7.66987 9.50001M7.66987 9.50001L6.7548 6.08494M7.66987 9.50001L4.2548 10.4151"/>
</svg>
