<svg xmlns="http://www.w3.org/2000/svg" width="24" height="24" viewBox="0 0 24 24" fill="none" stroke="currentColor" stroke-width="2" stroke-linecap="round" stroke-linejoin="round" class="feather feather-sort-numerically">
<path d="M3 9L5 8V17"/>
<path d="M9 10.5C9 9.11929 10.1193 8 11.5 8C12.8807 8 14 9.11929 14 10.5C14 11.0628 13.8139 11.5822 13.5 12L9 17H14"/>
<path d="M17 14.5C17 15.8807 18.1193 17 19.5 17C20.8807 17 22 15.8807 22 14.5C22 13.1193 20.8807 12 19.5 12"/>
<path d="M19.5024 12C20.607 12 21.5024 11.1046 21.5024 10C21.5024 8.89543 20.607 8 19.5024 8C18.7622 8 18.1158 8.4022 17.77 9"/>
</svg>
