<svg width="24" height="24" viewBox="0 0 24 24" fill="none" xmlns="http://www.w3.org/2000/svg" class="feather feather-steamdeck">
<circle cx="9" cy="12" r="4" stroke="currentColor"/>
<path d="M9 2C10.3132 2 11.6136 2.25866 12.8268 2.76121C14.0401 3.26375 15.1425 4.00035 16.0711 4.92893C16.9997 5.85752 17.7362 6.95991 18.2388 8.17317C18.7413 9.38642 19 10.6868 19 12C19 13.3132 18.7413 14.6136 18.2388 15.8268C17.7362 17.0401 16.9997 18.1425 16.0711 19.0711C15.1425 19.9997 14.0401 20.7363 12.8268 21.2388C11.6136 21.7413 10.3132 22 8.99999 22L8.99999 19C9.91925 19 10.8295 18.8189 11.6788 18.4672C12.5281 18.1154 13.2997 17.5998 13.9497 16.9498C14.5998 16.2997 15.1154 15.5281 15.4672 14.6788C15.8189 13.8295 16 12.9193 16 12C16 11.0807 15.8189 10.1705 15.4672 9.32122C15.1154 8.47194 14.5998 7.70026 13.9497 7.05025C13.2997 6.40024 12.5281 5.88463 11.6788 5.53284C10.8295 5.18106 9.91925 5 9 5L9 2Z" stroke="currentColor"/>
</svg>
