<svg width="24" height="24" viewBox="0 0 24 24" xmlns="http://www.w3.org/2000/svg" class="feather feather-textbox">
<path d="M19 15C19.4079 15 19.7222 15 20.0002 15C21.1048 15 22 14.1046 22 13V7C22 5.89543 21.1046 5 20 5C14.6667 5 9.33333 5 4 5C2.89543 5 2 5.89543 2 7V13C2 14.1046 2.89574 15 4.00031 15C6.36539 15 8.37188 15 11 15" stroke="currentColor"/>
<path d="M13 9C14.0831 9.21662 15 10 15 10M15 10C15 10 15.9169 9.21662 17 9M15 10V19M15 19C15 19 14.0831 19.7834 13 20M15 19C15 19 15.9169 19.7834 17 20" stroke="currentColor"/>
</svg>
