<svg width="24" height="24" viewBox="0 0 24 24" fill="none" xmlns="http://www.w3.org/2000/svg" class="feather feather-to-back">
<path d="M4 9H13C14.1046 9 15 9.89543 15 11V20C15 21.1046 14.1046 22 13 22H4C2.89543 22 2 21.1046 2 20V11C2 9.89543 2.89543 9 4 9Z" stroke="currentColor"/>
<path d="M19 15H20C20.5304 15 21.0391 14.7893 21.4142 14.4142C21.7893 14.0391 22 13.5304 22 13V4C22 3.46957 21.7893 2.96086 21.4142 2.58579C21.0391 2.21071 20.5304 2 20 2H11C10.4696 2 9.96086 2.21071 9.58579 2.58579C9.21071 2.96086 9 3.46957 9 4V5" stroke="currentColor"/>
</svg>
