<svg width="172" height="209" viewBox="0 0 172 209" fill="none" xmlns="http://www.w3.org/2000/svg">
<path d="M123.065 92.0959C117.413 94.4114 114.727 100.824 117.071 106.408L133.209 144.852C134.382 147.643 139.004 148.406 143.527 146.554L147.622 144.877C152.144 143.025 154.864 139.254 153.692 136.462L137.553 98.0187C135.209 92.4346 128.718 89.7811 123.065 92.0959Z" fill="#5144DB"/>
<path d="M151.024 161.681C147.104 161.681 143.927 158.543 143.927 154.672C143.927 150.801 147.104 147.662 151.024 147.662C154.943 147.662 158.12 150.801 158.12 154.672C158.12 158.543 154.943 161.681 151.024 161.681Z" fill="#5144DB" fill-opacity="0.35"/>
<path d="M157.96 183.804C156.123 183.804 154.634 182.333 154.634 180.519C154.634 178.704 156.123 177.233 157.96 177.233C159.797 177.233 161.286 178.704 161.286 180.519C161.286 182.333 159.797 183.804 157.96 183.804Z" fill="#5144DB" fill-opacity="0.35"/>
<path d="M155.743 169.567C155.743 166.544 153.258 164.09 150.198 164.09C147.138 164.09 144.655 166.544 144.655 169.567C144.655 172.589 147.138 175.042 150.198 175.042C153.258 175.042 155.743 172.589 155.743 169.567Z" fill="#5144DB" fill-opacity="0.35"/>
<path d="M140.219 160.805C140.231 161.666 153.882 162.81 163.504 169.567C174.395 177.215 174.038 192.839 166.831 191.471C159.623 190.102 169.676 181.141 157.96 175.042C148.79 170.268 138.708 170.309 138.445 170.995C135.998 177.38 131.151 182.675 124.697 187.09C126.776 198.453 130.49 205.77 126.914 206.803C115.549 210.089 108.737 201.568 105.847 195.851C92.4481 199.527 83.0284 199.69 70.366 194.756C71.8384 200.985 74.425 209.255 70.366 208.994C56.0033 208.07 45.2796 187.075 41.5377 174.488C37.795 161.9 32.8054 136.505 33.7756 116.997C34.7458 97.488 41.5445 72.1956 43.7547 62.2364C45.807 52.9901 50.231 44.4649 57.0603 36.6263C60.537 42.1298 63.113 48.1226 64.8216 54.5701C73.7817 52.5038 78.9336 51.4303 89.2152 53.4748C90.4369 49.1569 93.9448 40.0243 100.303 33.7612C107.042 42.257 113.136 71.7183 114.718 77.5688C119.564 95.4939 119.984 106.935 125.806 116.997C134.017 131.19 139.927 137.689 140.219 160.805Z" fill="#446ADB"/>
<path d="M84.7797 67.712C83.5786 70.7241 83.2092 74.3748 83.6716 78.6641" stroke="white" stroke-width="3.36" stroke-miterlimit="3" stroke-linecap="round" stroke-linejoin="round"/>
<path d="M61.6879 67.712C60.4868 70.7241 60.1171 74.3748 60.579 78.6641" stroke="white" stroke-width="3.36" stroke-miterlimit="3" stroke-linecap="round" stroke-linejoin="round"/>
<path d="M76.8842 89.7487C76.5611 91.2091 74.4777 92.9021 72.5836 92.9021C70.689 92.9021 69.2105 91.8068 68.1482 89.6162" stroke="white" stroke-width="3.36" stroke-miterlimit="3" stroke-linecap="round" stroke-linejoin="round"/>
<path d="M80.3474 120.282C47.2795 120.282 20.4728 93.8038 20.4728 61.1411C20.4728 28.4783 47.2795 2 80.3474 2C113.415 2 140.222 28.4783 140.222 61.1411C140.222 93.8038 113.415 120.282 80.3474 120.282Z" fill="white" fill-opacity="0.1" stroke="#5144DB" stroke-width="3.36" stroke-miterlimit="3" stroke-linecap="square"/>
<path d="M118.193 21.6077C113.05 24.1777 105.15 32.1864 103.547 37.5409C103.2 38.7001 103.832 40.0258 104.958 40.5L107.72 41.6638C108.846 42.1373 110.091 41.5968 110.498 40.4571C112.43 35.0477 119.977 30.7878 123.674 28.0755C124.656 27.3544 124.812 26.0205 124.02 25.0991L121.607 22.2889C120.815 21.3668 119.285 21.0619 118.193 21.6077Z" fill="white" fill-opacity="0.15"/>
<path d="M140.098 120.931L134.702 120.672C127.255 120.313 120.03 119.366 118.577 118.558C117.124 117.751 109.9 116.805 102.453 116.446L17.4564 112.35C16.8714 118.916 19.2051 126.166 24.4979 134.062C12.9861 131.391 5.67783 123.928 3.26059 114.226C2.90487 112.796 2.67436 110.44 2.7472 108.97L3.07593 102.307C3.14876 100.835 3.86134 98.6751 4.66641 97.4852C6.27656 95.1052 6.10975 91.2764 4.2939 88.9396L3.11936 87.4279C2.0386 86.0372 1.23156 83.4874 1.3175 81.7361L1.46497 78.753C1.55167 77.0017 3.06114 75.6495 4.83333 75.7352L25.3933 76.7256C27.1662 76.8112 28.5352 78.3022 28.4485 80.0527L28.301 83.0366C28.2143 84.7878 27.0676 87.1547 25.7407 88.319L23.3893 90.3822C21.1598 92.3392 19.2323 96.3154 19.0874 99.258L19.0214 100.591L103.044 104.478C110.491 104.822 117.776 104.563 119.301 103.9C120.827 103.236 128.111 102.988 135.557 103.347L140.954 103.607C143.933 103.751 146.232 106.256 146.087 109.198L145.758 115.861C145.613 118.803 143.077 121.075 140.098 120.931Z" fill="#446ADB" stroke="white" stroke-width="2" stroke-miterlimit="3" stroke-linecap="round" stroke-linejoin="round"/>
<path d="M102.648 121.834C100.437 112.081 97.4343 107.538 93.6397 108.205C89.8451 108.872 88.3436 113.869 89.1351 123.196" fill="#446ADB"/>
<path d="M102.648 121.834C100.437 112.081 97.4343 107.538 93.6397 108.205C89.8451 108.872 88.3436 113.869 89.1351 123.196" stroke="white" stroke-width="2" stroke-miterlimit="3" stroke-linecap="round" stroke-linejoin="round"/>
<path d="M63.7806 124.702C63.1977 114.429 60.9564 109.164 57.0568 108.904C53.1571 108.644 50.8257 113.265 50.0626 122.766" fill="#446ADB"/>
<path d="M63.7806 124.702C63.1977 114.429 60.9564 109.164 57.0568 108.904C53.1571 108.644 50.8257 113.265 50.0626 122.766" stroke="white" stroke-width="2" stroke-miterlimit="3" stroke-linecap="round" stroke-linejoin="round"/>
</svg>
