<?xml version="1.0" encoding="utf-8"?>
<!-- Generator: Adobe Illustrator 17.1.0, SVG Export Plug-In . SVG Version: 6.00 Build 0)  -->
<!DOCTYPE svg PUBLIC "-//W3C//DTD SVG 1.1//EN" "http://www.w3.org/Graphics/SVG/1.1/DTD/svg11.dtd">
<svg version="1.1" id="Layer_1" xmlns="http://www.w3.org/2000/svg" xmlns:xlink="http://www.w3.org/1999/xlink" x="0px" y="0px"
	 viewBox="0 0 512 512" enable-background="new 0 0 512 512" xml:space="preserve">
<path fill-rule="evenodd" clip-rule="evenodd" fill="#446ADB" d="M418.9,259c-5.2,11.3,11.6,38.3,5.4,62.6
	c-10.3,40.1-35.8,75.4-66.6,95.4c-10.1,5.2-20.5,6.8-30.7,10.2c-3.4,2.3-2.7,6.8-5.1,10.2c-3.8,5.3-16.4,14.4-22.6,15.7
	c-19,4-36.2-2.8-37.3-12.2c-20.3-0.6-40.8-1.2-61.3-1.7c-27.1,0-54.4-4.1-75.1-5.1c-1.1,6.7-4.9,8.6-10.2,10.2
	c-8.6-0.7-17.4-0.2-25.6-3.4c-8.1-3.4-9.1-8.1-13.7-15.4c-4.9-7.9-14.5-5.5-22.2-15.3c-14.5-18.5-8.7-61.4-6.2-79
	c2.5-18.2,6.3-31.5,11.3-51.4c7.5-29.8,16.5-53.1,25.7-81c5.4-16.5,19.4-44.2,16.2-49.2c-6.6-5.5-42.7-1.7-49.6-8.2
	c-4-5.1,5.4-2.6,9.5-1.9c5.4,3.5,20.6,1.9,29,1.7c0-0.6,0-1.1,0-1.7c-7.1-2.8-26-10.4-23.6-14c3.4-4.6,22,12.8,38.8,14
	c1-1.1,0.2-2.8,0.2-3.4c-7.6-6.3-21.7-16.1-41-17c-6.9,0.9-6.7-6.8,0-6.8c18.4,0.3,39.5,11.1,47.8,22.1c1.5,0.4,2.9,1,5.1-1.7
	c8.9-20.2,35.7-74.9,61.5-74.9c0,0.6,1.1-0.1,1.1,0.5c0.6,0,0,1.2,0.6,1.2c0.7,7.8-0.2,15.9,1.7,22.1c33.2,0.2,63.7,12.8,88.8,23.8
	c11.9,5.2,19.5,14,35.8,15.3c4.1-7.6,7-13.2,18.8-13.6c4.9-1,8.6,5.6,9.5,19.5c-0.6,2.3,1.3,5.5,0.8,7.7c1.6,8.3,4.7,22.8,6.8,32.4
	c3.7,17-3.3,31.4-3.4,47.7c-0.2,1.4,1.6,1.7,1.7,1.7c22.4,5.7,34.7,11.4,44.1,21c20.3-43.5,88.8,1.6,101,16.4
	c3.6,4.4,14.3,9.6,17.1,13.6c2.6,4.4,2.2,8.9,0,13.6c-1,2-2,5.2-3.4,6.8c-2.3,2.8-5.3,4.5-8.5,5.1c-35.1,0.4-38.2-27.3-62.8-33
	C425.6,259.1,421.3,257,418.9,259z M167.7,68.5c-2.8,1.7-5.2,3.2-4.6,6.2c1.2,2,6.2,4,8.5,1.7c1.2-1.3,1.9-2.5,1.7-5.1
	C172.8,68.4,169.9,68.6,167.7,68.5z M325.3,132.6c0.9-2.7,0.2-6.2-1.7-10.2c-2.3-2.9-4.6-2.4-6.8,0c-0.9,2.6-1.2,2.9-1.7,6.8
	C318.6,131.5,318.7,132.1,325.3,132.6z M181.9,146c-7,1.7-12.5,3.3-15.4,13.9c1.6,3,3.8,3.4,6.8,0c4.2-5.7,8.4-7,18.8-6.8
	c2.9,0.5,6.3,3.6,7.6,5.9c3.1,4.9,3.2,6.9,6.2,10.3c1.3-0.1,3.6-2,3.1-3.1c-1.2-11.2-7.1-15.2-14.9-18.5
	C190.7,147.1,188.7,146,181.9,146z M275.8,182c-5.6,0.7-9.6,3.4-11.9,8.5c-0.2,1.7,0,3.6,0.3,3.9c1.1,0,2-0.5,3.1-0.5
	c2.1-1.9,6.3-9.6,22.2-5.1c7.4,4.3,10.5,11,11.9,20.4c1.2,1.5,3,1.5,3.5-0.4c1.3-1.8,0.4-1.1,1-4.6c-0.7-9.5-6.1-15.1-13.4-20
	C286.9,182.2,283.5,181.9,275.8,182z M241.6,228c-15.8-0.3-24.7-6.9-39.3-12.1c-3.1-0.5-1.6,1.8,1.7,5.3
	c6.7,10.5,22.2,15.2,37.7,11.9C248.6,227.7,242.9,229,241.6,228z M379.9,256.9c-7.5-1.3-26.3-27-32.8-22.9c-0.8,1.6,12,8.2,16,20.6
	c2.6,5.3,4.9,10.5,6.3,16.2c0.1,2.5,0,3.4-2.7,4.4c-1.8,0.4-2.1-2.1-3.1-3.6c-4.5-7.4-6.3-16-12.7-23.1c-3.4-3.8-5.5-7.9-11.5-10.3
	c-1.8,1.1-1.6,1.3-2.2,1.8c-20.3,14-2.7,81,3.4,102.2c3.6,12.5,4.2,21.4,12.7,27.6c3.9-0.6,10.6-8,14.6-14
	c7.6-11.3,16.6-28.3,20.5-44.3C390.8,301.6,379.9,279.2,379.9,256.9z M379.1,252.5c1.9,0.3,2-3.3,3.1-10.8
	c-3.9-1.3-12.2-14.3-29.9-15.9c0.6,1.1,13.2,9.8,17.5,15.4C373.6,246.6,376.7,248.1,379.1,252.5z"/>
</svg>
