<?xml version="1.0" encoding="utf-8"?>
<!-- Generator: Adobe Illustrator 17.1.0, SVG Export Plug-In . SVG Version: 6.00 Build 0)  -->
<!DOCTYPE svg PUBLIC "-//W3C//DTD SVG 1.1//EN" "http://www.w3.org/Graphics/SVG/1.1/DTD/svg11.dtd">
<svg version="1.1" id="Layer_1" xmlns="http://www.w3.org/2000/svg" xmlns:xlink="http://www.w3.org/1999/xlink" x="0px" y="0px"
	 viewBox="0 0 512 512" enable-background="new 0 0 512 512" xml:space="preserve">
<g>
	<path fill="#446ADB" d="M160.4,54.4c0,0.2,0.2,0.3,0.4,0.3c0.1,0,0.2,0,0.4,0c0.2,0,0.4,0,0.4,0.3c0.6,0,0,1.2,0.6,1.2
		c0.7,8-0.2,16.3,1.7,22.7c34,0.2,65.1,13.2,90.7,24.4c12.1,5.3,20,14.4,36.6,15.7c4.2-7.7,7.2-13.5,19.2-14
		c0.3-0.1,0.6-0.1,0.9-0.1c4.5,0,7.9,6.7,8.7,20.1c-0.6,2.3,1.4,5.6,0.8,7.9c1.6,8.5,4.8,23.4,7,33.2c3.8,17.4-3.3,32.2-3.5,48.9
		c-0.2,1.4,1.4,1.7,1.7,1.7c0,0,0,0,0,0c22.9,5.8,35.5,11.7,45.1,21.6c6.4-13.8,17.6-18.9,30.3-18.9c28.3,0,64.3,25.3,72.9,35.8
		c3.7,4.5,14.6,9.8,17.4,14c2.6,4.5,2.3,9.2,0,14c-1,2.1-2,5.3-3.5,7c-2.3,2.9-5.4,4.6-8.7,5.2c-0.2,0-0.5,0-0.7,0
		c-35.2,0-38.5-28.1-63.4-33.8c-1.8-0.4-4.4-1.6-6.7-1.6c-1,0-1.9,0.2-2.7,0.9c-5.3,11.5,11.9,39.3,5.5,64.2
		c-10.5,41.1-36.6,77.4-68,97.8c-10.3,5.3-20.9,7-31.4,10.5c-3.5,2.4-2.7,6.9-5.2,10.5c-3.9,5.5-16.7,14.7-23.1,16.1
		c-3.9,0.8-7.7,1.2-11.3,1.2c-14.5,0-25.9-6-26.7-13.7c-20.8-0.6-41.7-1.2-62.7-1.8c-27.7,0-55.6-4.2-76.8-5.2
		c-1.1,6.9-5,8.8-10.5,10.5c-8.8-0.8-17.8-0.2-26.2-3.5c-8.3-3.5-9.3-8.3-14-15.7c-5-8.1-14.9-5.7-22.7-15.7c-14.8-19-8.9-63-6.4-81
		c2.6-18.7,6.5-32.3,11.6-52.7c7.7-30.6,16.9-54.4,26.2-83.1c5.5-16.9,19.8-45.3,16.5-50.4c-6.7-5.7-43.6-1.7-50.7-8.4
		c-1.9-2.5-0.8-3.2,1.4-3.2c2.4,0,6.1,0.9,8.3,1.3c2.8,1.8,8.2,2.3,13.9,2.3c5.6,0,11.5-0.5,15.7-0.6c0-0.6,0-1.2,0-1.7
		c-7.3-2.9-26.6-10.7-24.2-14.4c0.4-0.5,1-0.8,1.8-0.8c6.1,0,22.6,14.1,37.8,15.2c1.1-1.1,0.2-2.9,0.2-3.5
		c-7.7-6.5-22.2-16.5-41.9-17.5c-0.4,0.1-0.8,0.1-1.1,0.1c-5.8,0-5.3-7.1,1.1-7.1c18.8,0.3,40.4,11.4,48.9,22.7
		c0.6,0.2,1.2,0.4,1.8,0.4c1,0,2-0.5,3.4-2.1C106.7,110.5,134,54.5,160.4,54.4 M150.5,74.7c1.1,0,2.1-0.3,2.9-1.1
		c1.3-1.4,1.9-2.5,1.7-5.2c-0.6-3-3.5-2.8-5.8-2.9c-2.9,1.7-5.3,3.3-4.7,6.4C145.5,73.3,148.2,74.7,150.5,74.7 M310.4,131.2
		c0.9-2.8,0.2-6.4-1.7-10.5c-1.1-1.4-2.2-2-3.3-2c-1.2,0-2.4,0.8-3.7,2c-0.9,2.6-1.2,3-1.7,7C303.6,130.1,303.8,130.7,310.4,131.2
		 M151.3,161.7c1.1,0,2.4-0.8,3.9-2.5c4.1-5.5,8.2-7,17.7-7c0.5,0,1,0,1.5,0c3,0.5,6.4,3.7,7.7,6.1c3.1,5.1,3.2,7,6.3,10.5
		c1.3-0.1,3.7-2.1,3.2-3.2c-1.2-11.5-7.2-15.6-15.2-19c-3.4-0.5-5.4-1.7-12.3-1.7c-0.1,0-0.1,0-0.2,0c-7.2,1.8-12.8,3.4-15.7,14.2
		C149,160.8,150.1,161.7,151.3,161.7 M247.9,194.6c1.2,0,2-0.5,3.2-0.5c1.6-1.5,4.6-6.7,13.6-6.7c2.5,0,5.5,0.4,9.1,1.4
		c7.5,4.4,10.7,11.2,12.2,21c0.6,0.7,1.3,1.1,1.9,1.1c0.7,0,1.4-0.5,1.6-1.5c1.3-1.9,0.4-1.2,1.1-4.7c-0.7-9.7-6.2-15.5-13.7-20.6
		c-5.1-1.8-8.4-2.2-14.5-2.2c-0.8,0-1.6,0-2.6,0c-5.7,0.7-9.8,3.5-12.2,8.7C247.4,192.4,247.6,194.3,247.9,194.6 M215.1,235.3
		c3.3,0,6.6-0.3,10-1.1c7.1-5.5,1.2-4.1-0.1-5.2c-16.2-0.3-25.2-7.1-40.1-12.4c-0.3-0.1-0.6-0.1-0.8-0.1c-2.1,0-0.5,2.3,2.6,5.5
		C192,230.5,202.9,235.3,215.1,235.3 M365.6,254.2c1.8,0,1.9-3.7,3-11.1c-4-1.4-12.5-14.6-30.6-16.3c0.6,1.2,13.5,10,17.9,15.8
		c3.9,5.6,7,7,9.5,11.6C365.5,254.2,365.6,254.2,365.6,254.2 M352.4,277.4c-1.5,0-1.8-2.3-2.8-3.7c-4.5-7.6-6.5-16.4-13-23.7
		c-3.5-3.9-5.7-8.1-11.7-10.6c-1.8,1.1-1.7,1.3-2.2,1.8c-20.7,14.4-2.8,83,3.5,104.8c3.7,12.8,4.3,22,12.9,28.3
		c4-0.6,10.8-8.2,15-14.4c7.8-11.6,17-29,20.9-45.4c2.4-10-8.7-33.1-8.7-55.9c-7.1-1.3-24.1-24-31.9-24c-0.6,0-1.2,0.1-1.6,0.4
		c-0.8,1.6,12.3,8.4,16.3,21.1c2.7,5.5,5,10.8,6.4,16.6c0.1,2.5,0,3.5-2.7,4.5C352.6,277.4,352.5,277.4,352.4,277.4 M160.4,47.4
		C160.4,47.4,160.4,47.4,160.4,47.4c-14,0-28.3,11.1-43.7,33.7c-10.2,15-18.4,31.6-23.4,42.5c-4.8-4.6-11.2-8.9-18.5-12.4
		c-10.3-5-21.4-7.8-31.2-7.9c0,0-0.1,0-0.1,0c-7.6,0-12.2,5.5-12.2,10.9c0,4.5,2.8,8.1,7,9.5c-0.1,1.1,0,2.3,0.4,3.4
		c0.5,1.5,1.3,2.8,2.7,4.2c-0.1,0-0.1,0-0.2,0c-0.5-0.1-1.1-0.2-1.7-0.3c-2.4-0.5-5.3-1.1-7.8-1.1c-5.5,0-7.8,2.9-8.6,4.7
		c-0.9,1.8-1.8,5.4,1.7,9.8c0.2,0.3,0.5,0.6,0.7,0.8c5.2,4.9,15.3,5.7,31.3,6.5c5.1,0.3,13,0.6,17.3,1.5c-1.3,5.6-5.9,16.9-8.6,23.5
		c-2.8,6.9-5.7,14.1-7.7,20c-2.6,7.9-5.2,15.6-7.7,23c-6.7,19.7-13,38.3-18.7,60.6c-0.8,3.2-1.6,6.2-2.3,9.1
		c-4,15.8-7.2,28.2-9.4,44.4c-4.2,30.2-7.1,67.2,7.8,86.3c5.2,6.6,11.2,9.1,15.6,10.9c3.6,1.5,5.4,2.3,6.6,4.2
		c0.9,1.5,1.7,2.8,2.4,4.1c3.1,5.5,6,10.6,14.7,14.3c0.1,0,0.1,0.1,0.2,0.1c7.3,2.8,14.5,3.2,21.5,3.5c2.3,0.1,4.4,0.2,6.6,0.4
		c0.2,0,0.4,0,0.6,0c0.7,0,1.4-0.1,2.1-0.3c3.7-1.2,10-3.1,13.4-9.8c6.3,0.4,13.2,1.1,20.4,1.8c15.7,1.5,33.6,3.2,51.3,3.2
		c19,0.5,38.6,1.1,57.8,1.6c4.7,8.3,16.9,13.9,31.7,13.9c4.2,0,8.6-0.5,12.8-1.4c8.5-1.8,22.6-12.2,27.4-18.9c1.7-2.5,2.5-5,3-6.9
		c0.1-0.5,0.3-1.1,0.5-1.6c2.7-0.9,5.5-1.6,8.4-2.4c7.2-2,14.7-4,22.3-7.9c0.2-0.1,0.4-0.2,0.6-0.4c33.8-22,60.3-60.1,71-101.9
		c4-15.5,0-31.5-3.3-44.2c-1.2-4.9-2.7-10.6-3-14.7c0.6,0.2,1.2,0.4,1.8,0.5c8.7,2,14.3,7.4,20.8,13.7c9.9,9.5,21.1,20.3,44.2,20.3
		c0.3,0,0.5,0,0.8,0c0.4,0,0.8,0,1.2-0.1c5.1-1,9.5-3.6,12.8-7.6c1.7-2,2.7-4.5,3.6-6.6c0.3-0.7,0.6-1.3,0.8-1.8c0,0,0-0.1,0-0.1
		c4.3-9.2,2.2-16.2-0.3-20.5c-0.1-0.1-0.2-0.3-0.3-0.4c-2.2-3.2-6.2-5.9-10.5-8.8c-2.7-1.9-6.1-4.2-7.3-5.6
		c-9.4-11.5-47.3-38.4-78.3-38.4c-13.7,0-24.6,5.2-32,15.1c-9-6.9-20.6-11.9-38-16.5c0.4-4.5,1.2-9,2-13.7
		c1.8-10.2,3.8-20.7,1.1-32.7c-1.8-8.1-5-22.9-6.7-31.9c0.1-2.1-0.3-4-0.7-5.4c-0.1-0.4-0.2-0.9-0.3-1.2c0.1-0.5,0.1-1,0.1-1.5
		c-0.5-7.4-1.7-13.2-3.6-17.5c-3.6-8-9.1-9.1-12.1-9.1c-0.6,0-1.1,0-1.7,0.1c-12.9,0.6-18.4,6.8-22.3,13.4
		c-7.2-1.4-12.4-4.5-18.2-8.1c-3.6-2.2-7.4-4.5-11.8-6.4c-27-11.9-55.9-23.5-87.7-24.9c-0.2-2.2-0.2-4.7-0.3-7.2
		c0-3-0.1-6.1-0.4-9.3c-0.1-0.8-0.3-1.5-0.6-2.2c-0.3-1.3-1-2.3-1.8-3.1c-1-1.1-2.3-2-3.9-2.3C162.1,47.6,161.2,47.4,160.4,47.4
		L160.4,47.4z M340.2,365.7c-2.4-3.2-3.6-7.4-5.3-14.2c-0.6-2.3-1.2-4.8-2-7.4c-3.2-11.2-9.1-33.1-11.6-54.1
		c-3.6-29.1,1.2-38.8,4.3-42.1c1.2,1,2.1,2.2,3.4,3.8c0.8,1,1.5,1.9,2.5,2.9c3.3,3.7,5.3,8.2,7.4,13c1.4,3.2,2.9,6.5,4.8,9.7
		c0,0.1,0.1,0.2,0.2,0.2c0.1,0.1,0.2,0.4,0.2,0.5c2.8,6.4,7,6.4,8.4,6.4c0.7,0,1.4-0.1,2.1-0.3c0.2,0,0.4-0.1,0.6-0.2
		c3.5-1.2,5.4-3.1,6.4-5.1c1.1,5.5,2.4,10.7,3.6,15.4c1.8,7.3,3.9,15.5,3.2,18.7c-4.6,19.4-16.4,37.9-19.9,43.1
		C345.5,360.2,342.4,363.7,340.2,365.7L340.2,365.7z"/>
</g>
</svg>
