<svg height="1079" width="1920" xmlns="http://www.w3.org/2000/svg"><path d="m-77-62-23 198 66-58z" fill="#f7986d" stroke="#f7986d"/><path d="m-77-62 43 140 103-49z" fill="#f7986d" stroke="#f7986d"/><path d="m-77-62 146 91 21-78z" fill="#f7966a" stroke="#f7966a"/><path d="m-77-62 167 13 64-16z" fill="#f89467" stroke="#f89467"/><path d="m-77-62 231-3 73-19z" fill="#f8976a" stroke="#f8976a"/><path d="m90-49-21 78 52-5z" fill="#f89f77" stroke="#f89f77"/><path d="m90-49 31 73 33-89z" fill="#f89e74" stroke="#f89e74"/><path d="m154-65-33 89 114 40z" fill="#f8a781" stroke="#f8a781"/><path d="m154-65 81 129-8-148z" fill="#f9a57e" stroke="#f9a57e"/><path d="m227-84 8 148 66-22z" fill="#f9ae8b" stroke="#f9ae8b"/><path d="m227-84 74 126 69-114z" fill="#f9ac87" stroke="#f9ac87"/><path d="m227-84 143 12 187-24z" fill="#faae89" stroke="#faae89"/><path d="m370-72-69 114 103-84z" fill="#f9b391" stroke="#f9b391"/><path d="m370-72 34 30 153-54z" fill="#fab492" stroke="#fab492"/><path d="m404-42-103 84 178-10z" fill="#faba9c" stroke="#faba9c"/><path d="m404-42 75 74 78-128z" fill="#fabc9d" stroke="#fabc9d"/><path d="m557-96-78 128 38 19z" fill="#fac3a7" stroke="#fac3a7"/><path d="m557-96-40 147 154-50z" fill="#fbc7ac" stroke="#fbc7ac"/><path d="m557-96 114 97 9-36z" fill="#fbc8ad" stroke="#fbc8ad"/><path d="m557-96 123 61 36-3z" fill="#fac6ab" stroke="#fac6ab"/><path d="m557-96 159 58 173-27z" fill="#f2c0a7" stroke="#f2c0a7"/><path d="m557-96 332 31 45-8z" fill="#eabaa2" stroke="#eabaa2"/><path d="m557-96 377 23 617-10z" fill="#d1ac9b" stroke="#d1ac9b"/><path d="m557-96 994 13 376 2z" fill="#ac9890" stroke="#ac9890"/><path d="m680-35-9 36 45-39z" fill="#f6c8b0" stroke="#f6c8b0"/><path d="m716-38-45 39 78 27z" fill="#f3c9b4" stroke="#f3c9b4"/><path d="m716-38 33 66 140-93z" fill="#ebc2ad" stroke="#ebc2ad"/><path d="m889-65-140 93 120 62z" fill="#e5c4b4" stroke="#e5c4b4"/><path d="m889-65-20 155 35-8z" fill="#dfc3b6" stroke="#dfc3b6"/><path d="m889-65 15 147 30-155z" fill="#dba" stroke="#dba"/><path d="m934-73-30 155 147-87z" fill="#d7baad" stroke="#d7baad"/><path d="m934-73 117 68 119-31z" fill="#cdb0a2" stroke="#cdb0a2"/><path d="m934-73 236 37 49-15z" fill="#c7ab9e" stroke="#c7ab9e"/><path d="m934-73 285 22 332-32z" fill="#b8a197" stroke="#b8a197"/><path d="m1051-5-147 87 40 25z" fill="#d7c2b8" stroke="#d7c2b8"/><path d="m1051-5-107 112 61 25z" fill="#d3c2ba" stroke="#d3c2ba"/><path d="m1051-5-46 137 88-115z" fill="#cdbbb2" stroke="#cdbbb2"/><path d="m1051-5 42 22 77-53z" fill="#c7b0a6" stroke="#c7b0a6"/><path d="m1170-36-77 53 108-12z" fill="#c1aea5" stroke="#c1aea5"/><path d="m1170-36 31 41 18-56z" fill="#bda8a0" stroke="#bda8a0"/><path d="m1219-51-18 56 124-34z" fill="#b7a69e" stroke="#b7a69e"/><path d="m1219-51 106 22 226-54z" fill="#aa9b95" stroke="#aa9b95"/><path d="m1325-29-124 34 147 69z" fill="#b2a8a5" stroke="#b2a8a5"/><path d="m1325-29 23 103 140-117z" fill="#a7a09f" stroke="#a7a09f"/><path d="m1325-29 163-14 63-40z" fill="#a09693" stroke="#a09693"/><path d="m1488-43-140 117 115 20z" fill="#a2a3a5" stroke="#a2a3a5"/><path d="m1488-43-25 137 108-55z" fill="#9a9da1" stroke="#9a9da1"/><path d="m1488-43 83 82-20-122z" fill="#969495" stroke="#969495"/><path d="m1551-83 20 122 83-54z" fill="#909195" stroke="#909195"/><path d="m1551-83 103 68 95-40z" fill="#898a8d" stroke="#898a8d"/><path d="m1551-83 198 28 178-26z" fill="#808286" stroke="#808286"/><path d="m1654-15-83 54 67 18z" fill="#8d959d" stroke="#8d959d"/><path d="m1654-15-16 72 119 6z" fill="#86939c" stroke="#86939c"/><path d="m1654-15 103 78-8-118z" fill="#828b94" stroke="#828b94"/><path d="m1749-55 8 118 77-89z" fill="#808792" stroke="#808792"/><path d="m1749-55 85 29 93-55z" fill="#807e86" stroke="#807e86"/><path d="m1834-26-77 89 93 35z" fill="#808c9a" stroke="#808c9a"/><path d="m1834-26 16 124 82 7z" fill="#808a9b" stroke="#808a9b"/><path d="m1834-26 98 131 45-23z" fill="#808799" stroke="#808799"/><path d="m1834-26 143 108-50-163z" fill="#807f8d" stroke="#807f8d"/><path d="m1927-81 50 163 47-30z" fill="#807e90" stroke="#807e90"/><path d="m1927-81 97 133 36-124z" fill="#807685" stroke="#807685"/><path d="m2060-72-36 124 58 58z" fill="#807c90" stroke="#807c90"/><path d="m-34 78-66 58 154 65z" fill="#f7a683" stroke="#f7a683"/><path d="m-34 78 88 123 15-172z" fill="#f7a783" stroke="#f7a783"/><path d="m69 29-15 172 79-72z" fill="#f8ae8d" stroke="#f8ae8d"/><path d="m69 29 64 100-12-105z" fill="#f8a884" stroke="#f8a884"/><path d="m121 24 12 105 102-65z" fill="#f8ae8d" stroke="#f8ae8d"/><path d="m235 64-102 65 89 18z" fill="#f8b698" stroke="#f8b698"/><path d="m235 64-13 83 79-105z" fill="#f9b799" stroke="#f9b799"/><path d="m301 42-79 105 85 70z" fill="#f9c0a6" stroke="#f9c0a6"/><path d="m301 42 6 175 91-26z" fill="#f9c7b0" stroke="#f9c7b0"/><path d="m301 42 97 149 28-39z" fill="#fac7b0" stroke="#fac7b0"/><path d="m301 42 125 110 53-120z" fill="#fac3a9" stroke="#fac3a9"/><path d="m479 32-53 120 91-101z" fill="#facab2" stroke="#facab2"/><path d="m517 51-91 101 65 51z" fill="#fad1bd" stroke="#fad1bd"/><path d="m517 51-26 152 95-23z" fill="#fbd7c6" stroke="#fbd7c6"/><path d="m517 51 69 129 85-179z" fill="#fbd4c0" stroke="#fbd4c0"/><path d="m671 1-85 179 109-7z" fill="#fadccc" stroke="#fadccc"/><path d="m671 1 24 172 54-145z" fill="#f4d2c1" stroke="#f4d2c1"/><path d="m749 28-54 145 78-59z" fill="#f0d5c7" stroke="#f0d5c7"/><path d="m749 28 24 86 96-24z" fill="#eacec0" stroke="#eacec0"/><path d="m869 90-96 24 78 91z" fill="#e6d3ca" stroke="#e6d3ca"/><path d="m869 90-18 115 41-18z" fill="#e1d4ce" stroke="#e1d4ce"/><path d="m869 90 23 97 12-105z" fill="#dfcec5" stroke="#dfcec5"/><path d="m904 82-12 105 52-80z" fill="#ddcdc6" stroke="#ddcdc6"/><path d="m1093 17-88 115 143-38z" fill="#cabdb8" stroke="#cabdb8"/><path d="m1093 17 55 77 53-89z" fill="#c2b4ae" stroke="#c2b4ae"/><path d="m1148 94-143 38 139 22z" fill="#c8c2c0" stroke="#c8c2c0"/><path d="m1148 94-4 60 93 17z" fill="#bfbfc0" stroke="#bfbfc0"/><path d="m1148 94 89 77-36-166z" fill="#bdb7b6" stroke="#bdb7b6"/><path d="m1201 5 36 166 111-97z" fill="#b5b2b3" stroke="#b5b2b3"/><path d="m1348 74-111 97 81 10z" fill="#b1b7bd" stroke="#b1b7bd"/><path d="m1348 74-30 107 142-56z" fill="#a9b1b8" stroke="#a9b1b8"/><path d="m1348 74 112 51 3-31z" fill="#a3aab0" stroke="#a3aab0"/><path d="m1463 94-3 31 50 33z" fill="#9dabb4" stroke="#9dabb4"/><path d="m1463 94 47 64 61-119z" fill="#99a5ad" stroke="#99a5ad"/><path d="m1571 39-61 119 114-19z" fill="#93a3af" stroke="#93a3af"/><path d="m1571 39 53 100 14-82z" fill="#8e9da7" stroke="#8e9da7"/><path d="m1638 57-14 82 77 17z" fill="#899fad" stroke="#899fad"/><path d="m1638 57 63 99 56-93z" fill="#8499a7" stroke="#8499a7"/><path d="m1757 63-56 93 135-20z" fill="#8098aa" stroke="#8098aa"/><path d="m1757 63 79 73 14-38z" fill="#8093a5" stroke="#8093a5"/><path d="m1850 98-14 38 96-31z" fill="#8091a5" stroke="#8091a5"/><path d="m1977 82-45 23 134 153z" fill="#808ea9" stroke="#808ea9"/><path d="m1977 82 89 176 16-148z" fill="#808ba7" stroke="#808ba7"/><path d="m1977 82 105 28-58-58z" fill="#80849a" stroke="#80849a"/><path d="m-100 136 28 757-19-667z" fill="#ecb9a6" stroke="#ecb9a6"/><path d="m-100 136 9 90 145-25z" fill="#f7ab8a" stroke="#f7ab8a"/><path d="m96 199 37-70-79 72z" fill="#f8b699" stroke="#f8b699"/><path d="m96 199-42 2 83 53z" fill="#f8bba1" stroke="#f8bba1"/><path d="m96 199 41 55-4-125z" fill="#f8ba9f" stroke="#f8ba9f"/><path d="m133 129 4 125 85-107z" fill="#f8bca1" stroke="#f8bca1"/><path d="m222 147-85 107 90-14z" fill="#f8c3ab" stroke="#f8c3ab"/><path d="m222 147 5 93 80-23z" fill="#f9c6b0" stroke="#f9c6b0"/><path d="m398 191-91 26 78 122z" fill="#fad6c6" stroke="#fad6c6"/><path d="m398 191-13 148 107-35z" fill="#faded3" stroke="#faded3"/><path d="m398 191 94 113-1-101z" fill="#fadcce" stroke="#fadcce"/><path d="m398 191 93 12-65-51z" fill="#fad4c2" stroke="#fad4c2"/><path d="m586 180-95 23 95 87z" fill="#fbe3d7" stroke="#fbe3d7"/><path d="m586 180v110l108-16z" fill="#fbece4" stroke="#fbece4"/><path d="m586 180 108 94 1-101z" fill="#f9e7de" stroke="#f9e7de"/><path d="m695 173-1 101 92 2z" fill="#f2e7e2" stroke="#f2e7e2"/><path d="m695 173 91 103 65-71z" fill="#ece1dc" stroke="#ece1dc"/><path d="m695 173 156 32-78-91z" fill="#ecdad2" stroke="#ecdad2"/><path d="m892 187-41 18-10 102z" fill="#e2dedc" stroke="#e2dedc"/><path d="m892 187-51 120 135-67z" fill="#dedddd" stroke="#dedddd"/><path d="m892 187 84 53 29-108z" fill="#d8d2d0" stroke="#d8d2d0"/><path d="m892 187 113-55-61-25z" fill="#d9cdc8" stroke="#d9cdc8"/><path d="m1005 132-29 108 107 51z" fill="#d0d3d5" stroke="#d0d3d5"/><path d="m1005 132 78 159 61-137z" fill="#caccce" stroke="#caccce"/><path d="m1144 154-61 137 87-26z" fill="#c4ced4" stroke="#c4ced4"/><path d="m1144 154 26 111 67-94z" fill="#bec6cb" stroke="#bec6cb"/><path d="m1237 171-67 94 56 27z" fill="#bbc9d3" stroke="#bbc9d3"/><path d="m1237 171-11 121 92-111z" fill="#b5c3cc" stroke="#b5c3cc"/><path d="m1318 181-92 111 159-20z" fill="#b0c4d1" stroke="#b0c4d1"/><path d="m1318 181 67 91 75-147z" fill="#a7b9c4" stroke="#a7b9c4"/><path d="m1460 125-75 147 95-7z" fill="#a1b9c8" stroke="#a1b9c8"/><path d="m1460 125 20 140 30-107z" fill="#9cb1bf" stroke="#9cb1bf"/><path d="m1510 158-30 107 94 22z" fill="#98b6c8" stroke="#98b6c8"/><path d="m1510 158 64 129 50-148z" fill="#93aebf" stroke="#93aebf"/><path d="m1624 139-50 148 54-2z" fill="#8eb1c5" stroke="#8eb1c5"/><path d="m1624 139 4 146 73-129z" fill="#8aa9bc" stroke="#8aa9bc"/><path d="m1701 156-73 129 142-48z" fill="#84aac1" stroke="#84aac1"/><path d="m1701 156 69 81 66-101z" fill="#809fb5" stroke="#809fb5"/><path d="m1836 136-66 101 69 48z" fill="#80a2bc" stroke="#80a2bc"/><path d="m1836 136 3 149 92 7z" fill="#80a1bd" stroke="#80a1bd"/><path d="m1836 136 95 156 1-187z" fill="#8097b1" stroke="#8097b1"/><path d="m1932 105-1 187 135-34z" fill="#8098b6" stroke="#8098b6"/><path d="m2082 110-16 148 30 80z" fill="#8094b6" stroke="#8094b6"/><path d="m-91 226 19 667 6-124z" fill="#c5aaa5" stroke="#c5aaa5"/><path d="m-91 226 25 543 4-215z" fill="#dab3a7" stroke="#dab3a7"/><path d="m-91 226 29 328 31-175z" fill="#f2bea9" stroke="#f2bea9"/><path d="m-91 226 60 153 46-75z" fill="#f7bba2" stroke="#f7bba2"/><path d="m-91 226 106 78 39-103z" fill="#f7b699" stroke="#f7b699"/><path d="m54 201-39 103 122-50z" fill="#f8bda4" stroke="#f8bda4"/><path d="m137 254-122 50 148 25z" fill="#f8c6b0" stroke="#f8c6b0"/><path d="m137 254 26 75 64-89z" fill="#f8c9b5" stroke="#f8c9b5"/><path d="m227 240-64 89 133 36z" fill="#f9d2c2" stroke="#f9d2c2"/><path d="m227 240 69 125 11-148z" fill="#f9d1c0" stroke="#f9d1c0"/><path d="m307 217-11 148 89-26z" fill="#f9dacd" stroke="#f9dacd"/><path d="m491 203 1 101 94-14z" fill="#fbe5dc" stroke="#fbe5dc"/><path d="m586 290-94 14 81 66z" fill="#fbefe9" stroke="#fbefe9"/><path d="m586 290-13 80 111-15z" fill="#fbf7f4" stroke="#fbf7f4"/><path d="m586 290 98 65 10-81z" fill="#faf4f1" stroke="#faf4f1"/><path d="m694 274-10 81 55-15z" fill="#f4f3f2" stroke="#f4f3f2"/><path d="m694 274 45 66 47-64z" fill="#f0edec" stroke="#f0edec"/><path d="m786 276-47 64 102-33z" fill="#ebeced" stroke="#ebeced"/><path d="m786 276 55 31 10-102z" fill="#e6e3e3" stroke="#e6e3e3"/><path d="m976 240-135 67 131 91z" fill="#dbe4ea" stroke="#dbe4ea"/><path d="m976 240-4 158 66-62z" fill="#d3e1ea" stroke="#d3e1ea"/><path d="m976 240 62 96 45-45z" fill="#cfdae1" stroke="#cfdae1"/><path d="m1083 291-45 45 86-29z" fill="#cadae4" stroke="#cadae4"/><path d="m1083 291 41 16 46-42z" fill="#c5d5de" stroke="#c5d5de"/><path d="m1170 265-46 42 102-15z" fill="#bfd2dd" stroke="#bfd2dd"/><path d="m1226 292-102 15 81 65z" fill="#bed6e3" stroke="#bed6e3"/><path d="m1226 292-21 80 103 43z" fill="#b7d6e8" stroke="#b7d6e8"/><path d="m1226 292 82 123 58-79z" fill="#b1d2e4" stroke="#b1d2e4"/><path d="m1226 292 140 44 19-64z" fill="#aecada" stroke="#aecada"/><path d="m1385 272-19 64 50-16z" fill="#a7c7da" stroke="#a7c7da"/><path d="m1385 272 31 48 64-55z" fill="#a3c2d5" stroke="#a3c2d5"/><path d="m1480 265-64 55 86 45z" fill="#9ec3d9" stroke="#9ec3d9"/><path d="m1480 265 22 100 72-78z" fill="#98bfd5" stroke="#98bfd5"/><path d="m1574 287-72 78 105-23z" fill="#94c0d9" stroke="#94c0d9"/><path d="m1574 287 33 55 21-57z" fill="#8fbad3" stroke="#8fbad3"/><path d="m1628 285-21 57 175 41z" fill="#87b9d6" stroke="#87b9d6"/><path d="m1628 285 154 98-12-146z" fill="#81b2ce" stroke="#81b2ce"/><path d="m1770 237 12 146 29-36z" fill="#80b1d0" stroke="#80b1d0"/><path d="m1770 237 41 110 28-62z" fill="#80abc9" stroke="#80abc9"/><path d="m1839 285-28 62 106-16z" fill="#80acce" stroke="#80acce"/><path d="m1839 285 78 46 14-39z" fill="#80a8c9" stroke="#80a8c9"/><path d="m1931 292-14 39 179 7z" fill="#80a5ca" stroke="#80a5ca"/><path d="m1931 292 165 46-30-80z" fill="#809ec4" stroke="#809ec4"/><path d="m-31 379-31 175 54-106z" fill="#e5baac" stroke="#e5baac"/><path d="m-31 379 23 69 23-144z" fill="#f4c3b0" stroke="#f4c3b0"/><path d="m15 304-23 144 71 38z" fill="#eec3b3" stroke="#eec3b3"/><path d="m15 304 48 182 100-157z" fill="#f5cbba" stroke="#f5cbba"/><path d="m163 329-100 157 54 4z" fill="#eac9bd" stroke="#eac9bd"/><path d="m163 329-46 161 102-59z" fill="#eecec4" stroke="#eecec4"/><path d="m163 329 56 102 77-66z" fill="#f6d7cb" stroke="#f6d7cb"/><path d="m296 365-77 66 151-3z" fill="#f0dad3" stroke="#f0dad3"/><path d="m296 365 74 63 15-89z" fill="#f6e1da" stroke="#f6e1da"/><path d="m385 339-15 89 94 20z" fill="#f1e4e0" stroke="#f1e4e0"/><path d="m385 339 79 109 28-144z" fill="#faeae5" stroke="#faeae5"/><path d="m492 304-28 144 109-78z" fill="#f8efec" stroke="#f8efec"/><path d="m573 370-109 78 59 50z" fill="#ecebec" stroke="#ecebec"/><path d="m573 370-50 128 129-87z" fill="#eff1f4" stroke="#eff1f4"/><path d="m573 370 79 41 32-56z" fill="#f8f9fb" stroke="#f8f9fb"/><path d="m684 355-32 56 146 49z" fill="#eaf3f9" stroke="#eaf3f9"/><path d="m684 355 114 105-59-120z" fill="#ebf3f8" stroke="#ebf3f8"/><path d="m739 340 59 120 43-153z" fill="#e9f1f6" stroke="#e9f1f6"/><path d="m841 307-43 153 39 9z" fill="#ddecf5" stroke="#ddecf5"/><path d="m841 307-4 162 135-71z" fill="#daeaf3" stroke="#daeaf3"/><path d="m972 398-135 71 133 12z" fill="#cbe3f1" stroke="#cbe3f1"/><path d="m972 398-2 83 65-34z" fill="#c5e0ef" stroke="#c5e0ef"/><path d="m972 398 63 49 3-111z" fill="#cbe2ef" stroke="#cbe2ef"/><path d="m1038 336-3 111 89-140z" fill="#cbe1ee" stroke="#cbe1ee"/><path d="m1124 307-89 140 158-11z" fill="#bfdbec" stroke="#bfdbec"/><path d="m1124 307 69 129 12-64z" fill="#bddaeb" stroke="#bddaeb"/><path d="m1205 372-12 64 26 5z" fill="#b1d4e9" stroke="#b1d4e9"/><path d="m1205 372 14 69 89-26z" fill="#aed3e8" stroke="#aed3e8"/><path d="m1366 336-58 79 109 5z" fill="#a4cde4" stroke="#a4cde4"/><path d="m1366 336 51 84-1-100z" fill="#a6cde4" stroke="#a6cde4"/><path d="m1416 320 1 100 85-55z" fill="#9fcae2" stroke="#9fcae2"/><path d="m1502 365-85 55 116 56z" fill="#91c3e0" stroke="#91c3e0"/><path d="m1502 365 31 111 74-134z" fill="#8fc1de" stroke="#8fc1de"/><path d="m1607 342-74 134 96 46z" fill="#80bbdd" stroke="#80bbdd"/><path d="m1607 342 22 180 54-27z" fill="#7ab7db" stroke="#7ab7db"/><path d="m1607 342 76 153 99-112z" fill="#7db8da" stroke="#7db8da"/><path d="m1782 383-99 112 76 4z" fill="#6eb1d8" stroke="#6eb1d8"/><path d="m1782 383-23 116 103-53z" fill="#71afd6" stroke="#71afd6"/><path d="m1782 383 80 63-51-99z" fill="#7ab1d6" stroke="#7ab1d6"/><path d="m1811 347 51 99 55-115z" fill="#7db0d5" stroke="#7db0d5"/><path d="m1917 331-55 115 129 33z" fill="#75a9d3" stroke="#75a9d3"/><path d="m1917 331 74 148 105-141z" fill="#7ca7d0" stroke="#7ca7d0"/><path d="m2096 338-105 141 67 3z" fill="#72a0ce" stroke="#72a0ce"/><path d="m2096 338-38 144 4 147z" fill="#699acd" stroke="#699acd"/><path d="m2096 338-34 291 15 115z" fill="#5994cc" stroke="#5994cc"/><path d="m-8 448-54 106 76-14z" fill="#dbb8ad" stroke="#dbb8ad"/><path d="m-8 448 22 92 49-54z" fill="#dfbdb2" stroke="#dfbdb2"/><path d="m63 486-49 54 107-21z" fill="#dbbfb7" stroke="#dbbfb7"/><path d="m63 486 58 33-4-29z" fill="#dec3bb" stroke="#dec3bb"/><path d="m117 490 4 29 98-88z" fill="#e2c9c1" stroke="#e2c9c1"/><path d="m219 431-98 88 131 70z" fill="#dccac6" stroke="#dccac6"/><path d="m219 431 33 158 61-69z" fill="#ddd0ce" stroke="#ddd0ce"/><path d="m219 431 94 89 57-92z" fill="#e7d7d3" stroke="#e7d7d3"/><path d="m370 428-57 92 88 69z" fill="#ded8d9" stroke="#ded8d9"/><path d="m370 428 31 161 63-141z" fill="#e2dedf" stroke="#e2dedf"/><path d="m464 448-63 141 122-91z" fill="#dee1e5" stroke="#dee1e5"/><path d="m523 498-122 91 139-45z" fill="#d8e0e8" stroke="#d8e0e8"/><path d="m523 498 17 46 112-133z" fill="#e4ecf2" stroke="#e4ecf2"/><path d="m652 411-112 133 142 43z" fill="#dfeef8" stroke="#dfeef8"/><path d="m652 411 30 176 60-47z" fill="#d9edf8" stroke="#d9edf8"/><path d="m652 411 90 129 56-80z" fill="#ddedf7" stroke="#ddedf7"/><path d="m798 460-56 80 86-15z" fill="#cfe7f5" stroke="#cfe7f5"/><path d="m798 460 30 65 9-56z" fill="#d0e7f4" stroke="#d0e7f4"/><path d="m837 469-9 56 142-44z" fill="#c8e3f2" stroke="#c8e3f2"/><path d="m970 481-142 44 81 58z" fill="#bfdef1" stroke="#bfdef1"/><path d="m970 481-61 102 147-75z" fill="#b7daef" stroke="#b7daef"/><path d="m970 481 86 27-21-61z" fill="#badbee" stroke="#badbee"/><path d="m1035 447 21 61 56 18z" fill="#b3d7ec" stroke="#b3d7ec"/><path d="m1035 447 77 79 81-90z" fill="#b2d6eb" stroke="#b2d6eb"/><path d="m1193 436-81 90 107-85z" fill="#abd3ea" stroke="#abd3ea"/><path d="m1219 441-107 85 183-10z" fill="#a3cfe8" stroke="#a3cfe8"/><path d="m1219 441 76 75 13-101z" fill="#a2cde6" stroke="#a2cde6"/><path d="m1308 415-13 101 122-96z" fill="#9ccae4" stroke="#9ccae4"/><path d="m1417 420-122 96 183 73z" fill="#8bc2e2" stroke="#8bc2e2"/><path d="m1417 420 61 169 55-113z" fill="#84bee0" stroke="#84bee0"/><path d="m1533 476-55 113 114-21z" fill="#75b7dd" stroke="#75b7dd"/><path d="m1533 476 59 92 37-46z" fill="#73b6dc" stroke="#73b6dc"/><path d="m1683 495-54 27 120 69z" fill="#65aed9" stroke="#65aed9"/><path d="m1683 495 66 96 10-92z" fill="#62acd7" stroke="#62acd7"/><path d="m1759 499-10 92 108-51z" fill="#5ea7d5" stroke="#5ea7d5"/><path d="m1759 499 98 41 5-94z" fill="#67a9d5" stroke="#67a9d5"/><path d="m1862 446-5 94 85-4z" fill="#65a4d3" stroke="#65a4d3"/><path d="m1862 446 80 90 49-57z" fill="#68a3d1" stroke="#68a3d1"/><path d="m1991 479-49 57 87 57z" fill="#5f9ccf" stroke="#5f9ccf"/><path d="m1991 479 38 114 29-111z" fill="#639bce" stroke="#639bce"/><path d="m2058 482-29 111 33 36z" fill="#5a96cd" stroke="#5a96cd"/><path d="m-62 554-4 215 45-122z" fill="#c0aaa7" stroke="#c0aaa7"/><path d="m-62 554 41 93 35-107z" fill="#cfb2ac" stroke="#cfb2ac"/><path d="m14 540-35 107 68-42z" fill="#ccb4b0" stroke="#ccb4b0"/><path d="m14 540 33 65 74-86z" fill="#d4bbb6" stroke="#d4bbb6"/><path d="m121 519-74 86 112 57z" fill="#cdbdbb" stroke="#cdbdbb"/><path d="m121 519 38 143 93-73z" fill="#cec2c3" stroke="#cec2c3"/><path d="m252 589-93 73 99 22z" fill="#c4c2c8" stroke="#c4c2c8"/><path d="m252 589 6 95 106-44z" fill="#c6c9d0" stroke="#c6c9d0"/><path d="m252 589 112 51-51-120z" fill="#d0ced2" stroke="#d0ced2"/><path d="m313 520 51 120 37-51z" fill="#d0d2d8" stroke="#d0d2d8"/><path d="m401 589-37 51 86 4z" fill="#c9d3dd" stroke="#c9d3dd"/><path d="m401 589 49 55 90-100z" fill="#d0dbe4" stroke="#d0dbe4"/><path d="m540 544-90 100 104-21z" fill="#cddeea" stroke="#cddeea"/><path d="m540 544 14 79 72-1z" fill="#cfe4f1" stroke="#cfe4f1"/><path d="m540 544 86 78 56-35z" fill="#d2e8f6" stroke="#d2e8f6"/><path d="m682 587-56 35 142 72z" fill="#c3e4f7" stroke="#c3e4f7"/><path d="m682 587 86 107-26-154z" fill="#c4e3f5" stroke="#c4e3f5"/><path d="m742 540 26 154 84-47z" fill="#badef4" stroke="#badef4"/><path d="m742 540 110 107-24-122z" fill="#c2e1f4" stroke="#c2e1f4"/><path d="m828 525 24 122 57-64z" fill="#b9ddf2" stroke="#b9ddf2"/><path d="m909 583-57 64 128 7z" fill="#abd7f0" stroke="#abd7f0"/><path d="m909 583 71 71 76-146z" fill="#acd6ee" stroke="#acd6ee"/><path d="m1056 508-76 146 70 10z" fill="#a2d1ec" stroke="#a2d1ec"/><path d="m1056 508-6 156 62-138z" fill="#a5d1eb" stroke="#a5d1eb"/><path d="m1112 526-62 138 92-1z" fill="#98ccea" stroke="#98ccea"/><path d="m1112 526 30 137 167-71z" fill="#93c8e8" stroke="#93c8e8"/><path d="m1112 526 197 66-14-76z" fill="#96c9e7" stroke="#96c9e7"/><path d="m1295 516 14 76 169-3z" fill="#84c0e2" stroke="#84c0e2"/><path d="m1309 592-167 71 141-8z" fill="#84c1e5" stroke="#84c1e5"/><path d="m1309 592-26 63 78 7z" fill="#7cbde3" stroke="#7cbde3"/><path d="m1309 592 52 70 117-73z" fill="#79bbe1" stroke="#79bbe1"/><path d="m1478 589-117 73 135-45z" fill="#70b7df" stroke="#70b7df"/><path d="m1478 589 18 28 13 3z" fill="#6eb5de" stroke="#6eb5de"/><path d="m1478 589 31 31 83-52z" fill="#6db4dd" stroke="#6db4dd"/><path d="m1592 568-83 52 111 27z" fill="#64afdb" stroke="#64afdb"/><path d="m1592 568 28 79 9-125z" fill="#66afda" stroke="#66afda"/><path d="m1629 522-9 125 129-56z" fill="#5eacd9" stroke="#5eacd9"/><path d="m1749 591-129 56 156 131z" fill="#49a2d6" stroke="#49a2d6"/><path d="m1749 591 27 187 22-156z" fill="#489fd4" stroke="#489fd4"/><path d="m1749 591 49 31 24-9z" fill="#52a3d4" stroke="#52a3d4"/><path d="m1749 591 73 22 35-73z" fill="#57a3d4" stroke="#57a3d4"/><path d="m1857 540-35 73 89 49z" fill="#539ed3" stroke="#539ed3"/><path d="m1857 540 54 122 31-126z" fill="#579ed1" stroke="#579ed1"/><path d="m1942 536-31 126 118-69z" fill="#5499cf" stroke="#5499cf"/><path d="m2029 593-118 69 151-33z" fill="#4f94ce" stroke="#4f94ce"/><path d="m-21 647-45 122 151-21z" fill="#b5aaad" stroke="#b5aaad"/><path d="m-21 647 106 101-38-143z" fill="#bfb1b2" stroke="#bfb1b2"/><path d="m47 605 38 143 74-86z" fill="#beb6b9" stroke="#beb6b9"/><path d="m159 662-74 86 52 6z" fill="#b6b5bc" stroke="#b6b5bc"/><path d="m159 662-22 92 127-27z" fill="#b7bac2" stroke="#b7bac2"/><path d="m159 662 105 65-6-43z" fill="#bcbfc8" stroke="#bcbfc8"/><path d="m258 684 6 43 59 7z" fill="#b8c2ce" stroke="#b8c2ce"/><path d="m258 684 65 50 41-94z" fill="#bdc7d2" stroke="#bdc7d2"/><path d="m364 640-41 94 127-90z" fill="#c0ced9" stroke="#c0ced9"/><path d="m450 644-127 90 166 21z" fill="#b9cede" stroke="#b9cede"/><path d="m450 644 39 111 65-132z" fill="#c1d8e7" stroke="#c1d8e7"/><path d="m554 623-65 132 67 7z" fill="#bad8eb" stroke="#bad8eb"/><path d="m554 623 2 139 70-140z" fill="#c2dff1" stroke="#c2dff1"/><path d="m626 622-70 140h140z" fill="#bae0f6" stroke="#bae0f6"/><path d="m626 622 70 140 72-68z" fill="#b8dff6" stroke="#b8dff6"/><path d="m768 694-72 68 37 4z" fill="#abd9f4" stroke="#abd9f4"/><path d="m768 694-35 72 140-15z" fill="#a5d6f3" stroke="#a5d6f3"/><path d="m768 694 105 57-21-104z" fill="#a8d6f1" stroke="#a8d6f1"/><path d="m852 647 21 104h60z" fill="#9ed1f0" stroke="#9ed1f0"/><path d="m852 647 81 104 47-97z" fill="#a0d2ef" stroke="#a0d2ef"/><path d="m980 654-47 97 117-87z" fill="#98cded" stroke="#98cded"/><path d="m1050 664-117 87 133 26z" fill="#8dc8eb" stroke="#8dc8eb"/><path d="m1050 664 16 113 76-114z" fill="#8bc7e9" stroke="#8bc7e9"/><path d="m1142 663-76 114 91-24z" fill="#81c2e8" stroke="#81c2e8"/><path d="m1142 663 15 90 126-98z" fill="#80c0e6" stroke="#80c0e6"/><path d="m1283 655-126 98 109 17z" fill="#75bbe5" stroke="#75bbe5"/><path d="m1283 655-17 115 95-108z" fill="#73bae3" stroke="#73bae3"/><path d="m1361 662-95 108 132-25z" fill="#69b5e1" stroke="#69b5e1"/><path d="m1361 662 37 83 31-13z" fill="#65b3e0" stroke="#65b3e0"/><path d="m1361 662 68 70 67-115z" fill="#6ab4df" stroke="#6ab4df"/><path d="m1496 617-67 115 80-112z" fill="#66b2de" stroke="#66b2de"/><path d="m1509 620-80 112 115 4z" fill="#5eaedd" stroke="#5eaedd"/><path d="m1509 620 35 116 76-89z" fill="#5cacdb" stroke="#5cacdb"/><path d="m1620 647-76 89 133 61z" fill="#4aa4d9" stroke="#4aa4d9"/><path d="m1620 647 57 150 99-19z" fill="#3f9fd6" stroke="#3f9fd6"/><path d="m1798 622-22 156 92 6z" fill="#3c98d3" stroke="#3c98d3"/><path d="m1798 622 70 162 43-122z" fill="#4398d2" stroke="#4398d2"/><path d="m1798 622 113 40-89-49z" fill="#4e9dd3" stroke="#4e9dd3"/><path d="m1911 662-43 122 77-26z" fill="#3b92d0" stroke="#3b92d0"/><path d="m1911 662 34 96 117-129z" fill="#4492ce" stroke="#4492ce"/><path d="m2062 629-117 129 132-14z" fill="#3f8ccc" stroke="#3f8ccc"/><path d="m-66 769-6 124 83-62z" fill="#a09ea7" stroke="#a09ea7"/><path d="m-66 769 77 62 74-83z" fill="#aaa6ad" stroke="#aaa6ad"/><path d="m85 748-74 83 142-14z" fill="#a7abb5" stroke="#a7abb5"/><path d="m85 748 68 69-16-63z" fill="#acb0bb" stroke="#acb0bb"/><path d="m137 754 16 63 111-90z" fill="#aeb6c2" stroke="#aeb6c2"/><path d="m264 727-111 90 144 25z" fill="#a9b9c7" stroke="#a9b9c7"/><path d="m264 727 33 115 26-108z" fill="#aebfcf" stroke="#aebfcf"/><path d="m323 734-26 108 49 1z" fill="#a7bfd1" stroke="#a7bfd1"/><path d="m323 734 23 109 143-88z" fill="#adc6d9" stroke="#adc6d9"/><path d="m489 755-143 88 88 27z" fill="#a5c6dd" stroke="#a5c6dd"/><path d="m489 755-55 115 151-60z" fill="#a7cee6" stroke="#a7cee6"/><path d="m489 755 96 55-29-48z" fill="#aed4eb" stroke="#aed4eb"/><path d="m556 762 29 48 111-48z" fill="#aed9f4" stroke="#aed9f4"/><path d="m696 762-111 48 69 29z" fill="#a9d9f6" stroke="#a9d9f6"/><path d="m696 762-42 77 47-19z" fill="#a4d7f5" stroke="#a4d7f5"/><path d="m696 762 5 58 32-54z" fill="#a6d7f5" stroke="#a6d7f5"/><path d="m733 766-32 54 154-3z" fill="#9cd3f2" stroke="#9cd3f2"/><path d="m733 766 122 51 18-66z" fill="#9ad1f1" stroke="#9ad1f1"/><path d="m873 751-18 66 78-66z" fill="#93cdef" stroke="#93cdef"/><path d="m933 751-78 66 59 53z" fill="#8bc9ee" stroke="#8bc9ee"/><path d="m933 751-19 119 156-46z" fill="#82c5ec" stroke="#82c5ec"/><path d="m933 751 137 73-4-47z" fill="#82c4eb" stroke="#82c4eb"/><path d="m1066 777 4 47 69-2z" fill="#76bee8" stroke="#76bee8"/><path d="m1066 777 73 45 18-69z" fill="#77bee8" stroke="#77bee8"/><path d="m1157 753-18 69 127-52z" fill="#70bae6" stroke="#70bae6"/><path d="m1266 770-127 52 80 52z" fill="#66b6e5" stroke="#66b6e5"/><path d="m1266 770-47 104 152-27z" fill="#5cb0e2" stroke="#5cb0e2"/><path d="m1266 770 105 77 27-102z" fill="#5db0e0" stroke="#5db0e0"/><path d="m1398 745-27 102 85-22z" fill="#53abde" stroke="#53abde"/><path d="m1398 745 58 80-27-93z" fill="#58adde" stroke="#58adde"/><path d="m1429 732 27 93 88-89z" fill="#53aadd" stroke="#53aadd"/><path d="m1544 736-88 89 121-15z" fill="#49a5db" stroke="#49a5db"/><path d="m1544 736 33 74 100-13z" fill="#42a1d9" stroke="#42a1d9"/><path d="m1677 797-100 13 58 36z" fill="#389cd7" stroke="#389cd7"/><path d="m1677 797-42 49 130 44z" fill="#2c97d5" stroke="#2c97d5"/><path d="m1677 797 88 93 11-112z" fill="#2b96d4" stroke="#2b96d4"/><path d="m1776 778-11 112 103-45z" fill="#2890d1" stroke="#2890d1"/><path d="m1776 778 92 67v-61z" fill="#2f91d1" stroke="#2f91d1"/><path d="m1868 784v61l72-8z" fill="#2b8ccf" stroke="#2b8ccf"/><path d="m1868 784 72 53 5-79z" fill="#308dce" stroke="#308dce"/><path d="m1945 758-5 79 64 9z" fill="#2c89cd" stroke="#2c89cd"/><path d="m1945 758 59 88 73-102z" fill="#3288cc" stroke="#3288cc"/><path d="m2077 744-73 102 9 61z" fill="#2983ca" stroke="#2983ca"/><path d="m2077 744-64 163 23 120z" fill="#1e7ec9" stroke="#1e7ec9"/><path d="m2077 744-41 283-12 88z" fill="#1179c9" stroke="#1179c9"/><path d="m-72 893 39 201 47-54z" fill="#8092a6" stroke="#8092a6"/><path d="m-72 893 86 147-22-119z" fill="#8b96a8" stroke="#8b96a8"/><path d="m-72 893 64 28 19-90z" fill="#979ca8" stroke="#979ca8"/><path d="m11 831-19 90 70 11z" fill="#959fad" stroke="#959fad"/><path d="m11 831 51 101 91-115z" fill="#9ca6b4" stroke="#9ca6b4"/><path d="m153 817-91 115 76 8z" fill="#95a6b8" stroke="#95a6b8"/><path d="m153 817-15 123 129-5z" fill="#96acc0" stroke="#96acc0"/><path d="m153 817 114 118 30-93z" fill="#9cb3c7" stroke="#9cb3c7"/><path d="m297 842-30 93 65-32z" fill="#97b6ce" stroke="#97b6ce"/><path d="m297 842 35 61 14-60z" fill="#9dbad1" stroke="#9dbad1"/><path d="m346 843-14 60 69-1z" fill="#99bcd5" stroke="#99bcd5"/><path d="m346 843 55 59 33-32z" fill="#9cc0d9" stroke="#9cc0d9"/><path d="m434 870-33 32 37 124z" fill="#91bedc" stroke="#91bedc"/><path d="m434 870 4 156 155-98z" fill="#90c3e3" stroke="#90c3e3"/><path d="m434 870 159 58-8-118z" fill="#9dccea" stroke="#9dccea"/><path d="m585 810 8 118 61-89z" fill="#a0d3f2" stroke="#a0d3f2"/><path d="m654 839-61 89 49 64z" fill="#94d0f4" stroke="#94d0f4"/><path d="m654 839-12 153 114-33z" fill="#8ecef3" stroke="#8ecef3"/><path d="m654 839 102 120-55-139z" fill="#96d1f4" stroke="#96d1f4"/><path d="m701 820 55 139 99-142z" fill="#90cdf2" stroke="#90cdf2"/><path d="m855 817-99 142 138 3z" fill="#80c6ef" stroke="#80c6ef"/><path d="m855 817 39 145 20-92z" fill="#7fc5ee" stroke="#7fc5ee"/><path d="m914 870-20 92 40-46z" fill="#76c1ed" stroke="#76c1ed"/><path d="m914 870 20 46 102-14z" fill="#75bfeb" stroke="#75bfeb"/><path d="m914 870 122 32 34-78z" fill="#75bfea" stroke="#75bfea"/><path d="m1070 824-34 78 103-80z" fill="#70bbe8" stroke="#70bbe8"/><path d="m1139 822-103 80 150 85z" fill="#61b5e6" stroke="#61b5e6"/><path d="m1139 822 47 165 33-113z" fill="#5cb2e4" stroke="#5cb2e4"/><path d="m1219 874-33 113 83 11z" fill="#4cabe2" stroke="#4cabe2"/><path d="m1219 874 50 124 74-27z" fill="#48a8e1" stroke="#48a8e1"/><path d="m1219 874 124 97 28-124z" fill="#4daae0" stroke="#4daae0"/><path d="m1371 847-28 124 123-52z" fill="#41a4de" stroke="#41a4de"/><path d="m1371 847 95 72-10-94z" fill="#46a5dd" stroke="#46a5dd"/><path d="m1456 825 10 94 111-109z" fill="#41a2db" stroke="#41a2db"/><path d="m1577 810-111 109 145 4z" fill="#359cd9" stroke="#359cd9"/><path d="m1577 810 34 113 24-77z" fill="#329bd8" stroke="#329bd8"/><path d="m1635 846-24 77 154-33z" fill="#2795d5" stroke="#2795d5"/><path d="m1765 890-154 33 105 63z" fill="#1b90d4" stroke="#1b90d4"/><path d="m1765 890-49 96 76 61z" fill="#0f89d1" stroke="#0f89d1"/><path d="m1765 890 27 157 107-115z" fill="#1286d0" stroke="#1286d0"/><path d="m1765 890 134 42-31-87z" fill="#1f8ad0" stroke="#1f8ad0"/><path d="m1868 845 31 87 41-95z" fill="#2288ce" stroke="#2288ce"/><path d="m1940 837-41 95 114-25z" fill="#1e83cc" stroke="#1e83cc"/><path d="m1940 837 73 70-9-61z" fill="#2383cc" stroke="#2383cc"/><path d="m-8 921 22 119 48-108z" fill="#8899ad" stroke="#8899ad"/><path d="m62 932-48 108 120 41z" fill="#7f99b1" stroke="#7f99b1"/><path d="m62 932 72 149 4-141z" fill="#859fb7" stroke="#859fb7"/><path d="m138 940-4 141 94-52z" fill="#80a1bd" stroke="#80a1bd"/><path d="m138 940 90 89 39-94z" fill="#89a9c2" stroke="#89a9c2"/><path d="m267 935-39 94 167 48z" fill="#81adcc" stroke="#81adcc"/><path d="m267 935 128 142-63-174z" fill="#89b3d0" stroke="#89b3d0"/><path d="m332 903 63 174 43-51z" fill="#84b6d7" stroke="#84b6d7"/><path d="m332 903 106 123-37-124z" fill="#8fbad8" stroke="#8fbad8"/><path d="m593 928-155 98 177-5z" fill="#87c4ea" stroke="#87c4ea"/><path d="m593 928 22 93 27-29z" fill="#89cbf2" stroke="#89cbf2"/><path d="m642 992-27 29 164 26z" fill="#7ec7f3" stroke="#7ec7f3"/><path d="m642 992 137 55-23-88z" fill="#7cc6f2" stroke="#7cc6f2"/><path d="m756 959 23 88 115-85z" fill="#75c1ef" stroke="#75c1ef"/><path d="m894 962-115 85 34 30z" fill="#6bbeee" stroke="#6bbeee"/><path d="m894 962-81 115 135-73z" fill="#68bbec" stroke="#68bbec"/><path d="m894 962 54 42-14-88z" fill="#6dbdec" stroke="#6dbdec"/><path d="m934 916 14 88 68 2z" fill="#66b9ea" stroke="#66b9ea"/><path d="m934 916 82 90 20-104z" fill="#69baea" stroke="#69baea"/><path d="m1036 902-20 104 170-19z" fill="#5bb3e7" stroke="#5bb3e7"/><path d="m1186 987-170 19 61 131z" fill="#4bace6" stroke="#4bace6"/><path d="m1186 987-109 150 114-39z" fill="#42a7e3" stroke="#42a7e3"/><path d="m1186 987 5 111 78-100z" fill="#40a6e2" stroke="#40a6e2"/><path d="m1269 998-78 100 102-19z" fill="#37a2e0" stroke="#37a2e0"/><path d="m1269 998 24 81 43-4z" fill="#329fdf" stroke="#329fdf"/><path d="m1269 998 67 77 7-104z" fill="#37a1df" stroke="#37a1df"/><path d="m1343 971-7 104 72-39z" fill="#2f9ddd" stroke="#2f9ddd"/><path d="m1343 971 65 65 58-117z" fill="#349fdc" stroke="#349fdc"/><path d="m1466 919-58 117 118 21z" fill="#2898da" stroke="#2898da"/><path d="m1466 919 60 138 62-86z" fill="#2597d9" stroke="#2597d9"/><path d="m1466 919 122 52 23-48z" fill="#2a98d8" stroke="#2a98d8"/><path d="m1588 971-62 86 151-39z" fill="#1790d6" stroke="#1790d6"/><path d="m1588 971 89 47-66-95z" fill="#1c91d5" stroke="#1c91d5"/><path d="m1611 923 66 95 39-32z" fill="#178fd4" stroke="#178fd4"/><path d="m1716 986-39 32 115 29z" fill="#0887d2" stroke="#0887d2"/><path d="m1899 932-107 115 108 26z" fill="#077fce" stroke="#077fce"/><path d="m1899 932 1 141 86-82z" fill="#0a7dcc" stroke="#0a7dcc"/><path d="m1899 932 87 59 27-84z" fill="#157ecb" stroke="#157ecb"/><path d="m1986 991-86 82 38 32z" fill="#0077cb" stroke="#0077cb"/><path d="m1986 991-48 114 98-78z" fill="#0376ca" stroke="#0376ca"/><path d="m1986 991 50 36-23-120z" fill="#0f7ac9" stroke="#0f7ac9"/><path d="m-33 1094 53 47-40-38z" fill="#788ba7" stroke="#788ba7"/><path d="m-33 1094 13 9 34-63z" fill="#788ea7" stroke="#788ea7"/><path d="m14 1040-34 63 40 38z" fill="#788ea9" stroke="#788ea9"/><path d="m14 1040 6 101 114-60z" fill="#7893af" stroke="#7893af"/><path d="m134 1081-114 60h133z" fill="#7894b4" stroke="#7894b4"/><path d="m134 1081 19 60 75-112z" fill="#799dbd" stroke="#799dbd"/><path d="m228 1029-75 112 117 42z" fill="#799ec2" stroke="#799ec2"/><path d="m228 1029 42 154 30-27z" fill="#79a2c7" stroke="#79a2c7"/><path d="m228 1029 72 127 95-79z" fill="#7aa8cd" stroke="#7aa8cd"/><path d="m395 1077-95 79 166 15z" fill="#7aacd5" stroke="#7aacd5"/><path d="m395 1077 71 94-28-145z" fill="#7ab3db" stroke="#7ab3db"/><path d="m438 1026 28 145 103-88z" fill="#7bb8e2" stroke="#7bb8e2"/><path d="m438 1026 131 57 46-62z" fill="#7dbfe8" stroke="#7dbfe8"/><path d="m569 1083-103 88 96-34z" fill="#7bb8e6" stroke="#7bb8e6"/><path d="m569 1083-7 54 70 1z" fill="#7bbeed" stroke="#7bbeed"/><path d="m569 1083 63 55-17-117z" fill="#7cc2ef" stroke="#7cc2ef"/><path d="m615 1021 17 117 147-91z" fill="#78c4f2" stroke="#78c4f2"/><path d="m779 1047-147 91 77 27z" fill="#74bef1" stroke="#74bef1"/><path d="m779 1047-70 118 104-88z" fill="#6dbcef" stroke="#6dbcef"/><path d="m813 1077-104 88 127-29z" fill="#6bb9ee" stroke="#6bb9ee"/><path d="m813 1077 23 59 131-26z" fill="#62b5ec" stroke="#62b5ec"/><path d="m813 1077 154 33-19-106z" fill="#5db6eb" stroke="#5db6eb"/><path d="m948 1004 19 106 49-104z" fill="#58b4e9" stroke="#58b4e9"/><path d="m1016 1006-49 104 110 27z" fill="#51aee7" stroke="#51aee7"/><path d="m1191 1098-114 39 98 45z" fill="#43a2e3" stroke="#43a2e3"/><path d="m1191 1098-16 84 88-34z" fill="#3c9ee1" stroke="#3c9ee1"/><path d="m1191 1098 72 50 30-69z" fill="#379ee0" stroke="#379ee0"/><path d="m1293 1079-30 69 76 17z" fill="#3299de" stroke="#3299de"/><path d="m1293 1079 46 86-3-90z" fill="#2f9add" stroke="#2f9add"/><path d="m1336 1075 3 90 100-1z" fill="#2995dc" stroke="#2995dc"/><path d="m1336 1075 103 89-31-128z" fill="#2796dc" stroke="#2796dc"/><path d="m1408 1036 31 128 71-45z" fill="#2092d9" stroke="#2092d9"/><path d="m1408 1036 102 83 16-62z" fill="#1d92d9" stroke="#1d92d9"/><path d="m1526 1057-16 62 186 26z" fill="#128ad5" stroke="#128ad5"/><path d="m1526 1057 170 88-19-127z" fill="#0c89d4" stroke="#0c89d4"/><path d="m1677 1018 19 127 64-20z" fill="#0382d2" stroke="#0382d2"/><path d="m1677 1018 83 107 32-78z" fill="#0083d1" stroke="#0083d1"/><path d="m1792 1047-32 78 62-44z" fill="#007fcf" stroke="#007fcf"/><path d="m1792 1047 30 34 78-8z" fill="#007dce" stroke="#007dce"/><path d="m1822 1081-62 44 82-18z" fill="#007cce" stroke="#007cce"/><path d="m1822 1081 20 26 58-34z" fill="#007bcd" stroke="#007bcd"/><path d="m1900 1073-58 34 96-2z" fill="#0078cc" stroke="#0078cc"/><path d="m2036 1027-98 78 86 10z" fill="#0072c9" stroke="#0072c9"/><path d="m20 1141 250 42-117-42z" fill="#7996b9" stroke="#7996b9"/><path d="m270 1183 905-1-709-11z" fill="#7cbdf2" stroke="#7cbdf2"/><path d="m270 1183 196-12-166-15z" fill="#7aa5d0" stroke="#7aa5d0"/><path d="m466 1171 709 11-466-17z" fill="#6cb6ee" stroke="#6cb6ee"/><path d="m466 1171 243-6-147-28z" fill="#7bbaeb" stroke="#7bbaeb"/><path d="m562 1137 147 28-77-27z" fill="#7cc0f2" stroke="#7cc0f2"/><path d="m709 1165 466 17-339-46z" fill="#5eafea" stroke="#5eafea"/><path d="m836 1136 339 46-98-45z" fill="#50a8e6" stroke="#50a8e6"/><path d="m836 1136 241 1-110-27z" fill="#58aee9" stroke="#58aee9"/><path d="m1175 1182 264-18-100 1z" fill="#3095dd" stroke="#3095dd"/><path d="m1175 1182 164-17-76-17z" fill="#3699df" stroke="#3699df"/><path d="m1439 1164 257-19-186-26z" fill="#1689d6" stroke="#1689d6"/><path d="m1696 1145 328-30-264 10z" fill="#0079ce" stroke="#0079ce"/><path d="m1760 1125 264-10-86-10z" fill="#0076cb" stroke="#0076cb"/><path d="m1760 1125 178-20-96 2z" fill="#0079cd" stroke="#0079cd"/></svg>