<svg width="1920" height="1079" xmlns="http://www.w3.org/2000/svg"><g><path d="M-77,-62L-100,136L-34,78Z" fill="#f7986d" stroke="#f7986d"/><path d="M-77,-62L-34,78L69,29Z" fill="#f7986d" stroke="#f7986d"/><path d="M-77,-62L69,29L90,-49Z" fill="#f7966a" stroke="#f7966a"/><path d="M-77,-62L90,-49L154,-65Z" fill="#f89467" stroke="#f89467"/><path d="M-77,-62L154,-65L227,-84Z" fill="#f8976a" stroke="#f8976a"/><path d="M90,-49L69,29L121,24Z" fill="#f89f77" stroke="#f89f77"/><path d="M90,-49L121,24L154,-65Z" fill="#f89e74" stroke="#f89e74"/><path d="M154,-65L121,24L235,64Z" fill="#f8a781" stroke="#f8a781"/><path d="M154,-65L235,64L227,-84Z" fill="#f9a57e" stroke="#f9a57e"/><path d="M227,-84L235,64L301,42Z" fill="#f9ae8b" stroke="#f9ae8b"/><path d="M227,-84L301,42L370,-72Z" fill="#f9ac87" stroke="#f9ac87"/><path d="M227,-84L370,-72L557,-96Z" fill="#faae89" stroke="#faae89"/><path d="M370,-72L301,42L404,-42Z" fill="#f9b391" stroke="#f9b391"/><path d="M370,-72L404,-42L557,-96Z" fill="#fab492" stroke="#fab492"/><path d="M404,-42L301,42L479,32Z" fill="#faba9c" stroke="#faba9c"/><path d="M404,-42L479,32L557,-96Z" fill="#fabc9d" stroke="#fabc9d"/><path d="M557,-96L479,32L517,51Z" fill="#fac3a7" stroke="#fac3a7"/><path d="M557,-96L517,51L671,1Z" fill="#fbc7ac" stroke="#fbc7ac"/><path d="M557,-96L671,1L680,-35Z" fill="#fbc8ad" stroke="#fbc8ad"/><path d="M557,-96L680,-35L716,-38Z" fill="#fac6ab" stroke="#fac6ab"/><path d="M557,-96L716,-38L889,-65Z" fill="#f2c0a7" stroke="#f2c0a7"/><path d="M557,-96L889,-65L934,-73Z" fill="#eabaa2" stroke="#eabaa2"/><path d="M557,-96L934,-73L1551,-83Z" fill="#d1ac9b" stroke="#d1ac9b"/><path d="M557,-96L1551,-83L1927,-81Z" fill="#ac9890" stroke="#ac9890"/><path d="M680,-35L671,1L716,-38Z" fill="#f6c8b0" stroke="#f6c8b0"/><path d="M716,-38L671,1L749,28Z" fill="#f3c9b4" stroke="#f3c9b4"/><path d="M716,-38L749,28L889,-65Z" fill="#ebc2ad" stroke="#ebc2ad"/><path d="M889,-65L749,28L869,90Z" fill="#e5c4b4" stroke="#e5c4b4"/><path d="M889,-65L869,90L904,82Z" fill="#dfc3b6" stroke="#dfc3b6"/><path d="M889,-65L904,82L934,-73Z" fill="#ddbbaa" stroke="#ddbbaa"/><path d="M934,-73L904,82L1051,-5Z" fill="#d7baad" stroke="#d7baad"/><path d="M934,-73L1051,-5L1170,-36Z" fill="#cdb0a2" stroke="#cdb0a2"/><path d="M934,-73L1170,-36L1219,-51Z" fill="#c7ab9e" stroke="#c7ab9e"/><path d="M934,-73L1219,-51L1551,-83Z" fill="#b8a197" stroke="#b8a197"/><path d="M1051,-5L904,82L944,107Z" fill="#d7c2b8" stroke="#d7c2b8"/><path d="M1051,-5L944,107L1005,132Z" fill="#d3c2ba" stroke="#d3c2ba"/><path d="M1051,-5L1005,132L1093,17Z" fill="#cdbbb2" stroke="#cdbbb2"/><path d="M1051,-5L1093,17L1170,-36Z" fill="#c7b0a6" stroke="#c7b0a6"/><path d="M1170,-36L1093,17L1201,5Z" fill="#c1aea5" stroke="#c1aea5"/><path d="M1170,-36L1201,5L1219,-51Z" fill="#bda8a0" stroke="#bda8a0"/><path d="M1219,-51L1201,5L1325,-29Z" fill="#b7a69e" stroke="#b7a69e"/><path d="M1219,-51L1325,-29L1551,-83Z" fill="#aa9b95" stroke="#aa9b95"/><path d="M1325,-29L1201,5L1348,74Z" fill="#b2a8a5" stroke="#b2a8a5"/><path d="M1325,-29L1348,74L1488,-43Z" fill="#a7a09f" stroke="#a7a09f"/><path d="M1325,-29L1488,-43L1551,-83Z" fill="#a09693" stroke="#a09693"/><path d="M1488,-43L1348,74L1463,94Z" fill="#a2a3a5" stroke="#a2a3a5"/><path d="M1488,-43L1463,94L1571,39Z" fill="#9a9da1" stroke="#9a9da1"/><path d="M1488,-43L1571,39L1551,-83Z" fill="#969495" stroke="#969495"/><path d="M1551,-83L1571,39L1654,-15Z" fill="#909195" stroke="#909195"/><path d="M1551,-83L1654,-15L1749,-55Z" fill="#898a8d" stroke="#898a8d"/><path d="M1551,-83L1749,-55L1927,-81Z" fill="#808286" stroke="#808286"/><path d="M1654,-15L1571,39L1638,57Z" fill="#8d959d" stroke="#8d959d"/><path d="M1654,-15L1638,57L1757,63Z" fill="#86939c" stroke="#86939c"/><path d="M1654,-15L1757,63L1749,-55Z" fill="#828b94" stroke="#828b94"/><path d="M1749,-55L1757,63L1834,-26Z" fill="#808792" stroke="#808792"/><path d="M1749,-55L1834,-26L1927,-81Z" fill="#807e86" stroke="#807e86"/><path d="M1834,-26L1757,63L1850,98Z" fill="#808c9a" stroke="#808c9a"/><path d="M1834,-26L1850,98L1932,105Z" fill="#808a9b" stroke="#808a9b"/><path d="M1834,-26L1932,105L1977,82Z" fill="#808799" stroke="#808799"/><path d="M1834,-26L1977,82L1927,-81Z" fill="#807f8d" stroke="#807f8d"/><path d="M1927,-81L1977,82L2024,52Z" fill="#807e90" stroke="#807e90"/><path d="M1927,-81L2024,52L2060,-72Z" fill="#807685" stroke="#807685"/><path d="M2060,-72L2024,52L2082,110Z" fill="#807c90" stroke="#807c90"/><path d="M-34,78L-100,136L54,201Z" fill="#f7a683" stroke="#f7a683"/><path d="M-34,78L54,201L69,29Z" fill="#f7a783" stroke="#f7a783"/><path d="M69,29L54,201L133,129Z" fill="#f8ae8d" stroke="#f8ae8d"/><path d="M69,29L133,129L121,24Z" fill="#f8a884" stroke="#f8a884"/><path d="M121,24L133,129L235,64Z" fill="#f8ae8d" stroke="#f8ae8d"/><path d="M235,64L133,129L222,147Z" fill="#f8b698" stroke="#f8b698"/><path d="M235,64L222,147L301,42Z" fill="#f9b799" stroke="#f9b799"/><path d="M301,42L222,147L307,217Z" fill="#f9c0a6" stroke="#f9c0a6"/><path d="M301,42L307,217L398,191Z" fill="#f9c7b0" stroke="#f9c7b0"/><path d="M301,42L398,191L426,152Z" fill="#fac7b0" stroke="#fac7b0"/><path d="M301,42L426,152L479,32Z" fill="#fac3a9" stroke="#fac3a9"/><path d="M479,32L426,152L517,51Z" fill="#facab2" stroke="#facab2"/><path d="M517,51L426,152L491,203Z" fill="#fad1bd" stroke="#fad1bd"/><path d="M517,51L491,203L586,180Z" fill="#fbd7c6" stroke="#fbd7c6"/><path d="M517,51L586,180L671,1Z" fill="#fbd4c0" stroke="#fbd4c0"/><path d="M671,1L586,180L695,173Z" fill="#fadccc" stroke="#fadccc"/><path d="M671,1L695,173L749,28Z" fill="#f4d2c1" stroke="#f4d2c1"/><path d="M749,28L695,173L773,114Z" fill="#f0d5c7" stroke="#f0d5c7"/><path d="M749,28L773,114L869,90Z" fill="#eacec0" stroke="#eacec0"/><path d="M869,90L773,114L851,205Z" fill="#e6d3ca" stroke="#e6d3ca"/><path d="M869,90L851,205L892,187Z" fill="#e1d4ce" stroke="#e1d4ce"/><path d="M869,90L892,187L904,82Z" fill="#dfcec5" stroke="#dfcec5"/><path d="M904,82L892,187L944,107Z" fill="#ddcdc6" stroke="#ddcdc6"/><path d="M1093,17L1005,132L1148,94Z" fill="#cabdb8" stroke="#cabdb8"/><path d="M1093,17L1148,94L1201,5Z" fill="#c2b4ae" stroke="#c2b4ae"/><path d="M1148,94L1005,132L1144,154Z" fill="#c8c2c0" stroke="#c8c2c0"/><path d="M1148,94L1144,154L1237,171Z" fill="#bfbfc0" stroke="#bfbfc0"/><path d="M1148,94L1237,171L1201,5Z" fill="#bdb7b6" stroke="#bdb7b6"/><path d="M1201,5L1237,171L1348,74Z" fill="#b5b2b3" stroke="#b5b2b3"/><path d="M1348,74L1237,171L1318,181Z" fill="#b1b7bd" stroke="#b1b7bd"/><path d="M1348,74L1318,181L1460,125Z" fill="#a9b1b8" stroke="#a9b1b8"/><path d="M1348,74L1460,125L1463,94Z" fill="#a3aab0" stroke="#a3aab0"/><path d="M1463,94L1460,125L1510,158Z" fill="#9dabb4" stroke="#9dabb4"/><path d="M1463,94L1510,158L1571,39Z" fill="#99a5ad" stroke="#99a5ad"/><path d="M1571,39L1510,158L1624,139Z" fill="#93a3af" stroke="#93a3af"/><path d="M1571,39L1624,139L1638,57Z" fill="#8e9da7" stroke="#8e9da7"/><path d="M1638,57L1624,139L1701,156Z" fill="#899fad" stroke="#899fad"/><path d="M1638,57L1701,156L1757,63Z" fill="#8499a7" stroke="#8499a7"/><path d="M1757,63L1701,156L1836,136Z" fill="#8098aa" stroke="#8098aa"/><path d="M1757,63L1836,136L1850,98Z" fill="#8093a5" stroke="#8093a5"/><path d="M1850,98L1836,136L1932,105Z" fill="#8091a5" stroke="#8091a5"/><path d="M1977,82L1932,105L2066,258Z" fill="#808ea9" stroke="#808ea9"/><path d="M1977,82L2066,258L2082,110Z" fill="#808ba7" stroke="#808ba7"/><path d="M1977,82L2082,110L2024,52Z" fill="#80849a" stroke="#80849a"/><path d="M-100,136L-72,893L-91,226Z" fill="#ecb9a6" stroke="#ecb9a6"/><path d="M-100,136L-91,226L54,201Z" fill="#f7ab8a" stroke="#f7ab8a"/><path d="M96,199L133,129L54,201Z" fill="#f8b699" stroke="#f8b699"/><path d="M96,199L54,201L137,254Z" fill="#f8bba1" stroke="#f8bba1"/><path d="M96,199L137,254L133,129Z" fill="#f8ba9f" stroke="#f8ba9f"/><path d="M133,129L137,254L222,147Z" fill="#f8bca1" stroke="#f8bca1"/><path d="M222,147L137,254L227,240Z" fill="#f8c3ab" stroke="#f8c3ab"/><path d="M222,147L227,240L307,217Z" fill="#f9c6b0" stroke="#f9c6b0"/><path d="M398,191L307,217L385,339Z" fill="#fad6c6" stroke="#fad6c6"/><path d="M398,191L385,339L492,304Z" fill="#faded3" stroke="#faded3"/><path d="M398,191L492,304L491,203Z" fill="#fadcce" stroke="#fadcce"/><path d="M398,191L491,203L426,152Z" fill="#fad4c2" stroke="#fad4c2"/><path d="M586,180L491,203L586,290Z" fill="#fbe3d7" stroke="#fbe3d7"/><path d="M586,180L586,290L694,274Z" fill="#fbece4" stroke="#fbece4"/><path d="M586,180L694,274L695,173Z" fill="#f9e7de" stroke="#f9e7de"/><path d="M695,173L694,274L786,276Z" fill="#f2e7e2" stroke="#f2e7e2"/><path d="M695,173L786,276L851,205Z" fill="#ece1dc" stroke="#ece1dc"/><path d="M695,173L851,205L773,114Z" fill="#ecdad2" stroke="#ecdad2"/><path d="M892,187L851,205L841,307Z" fill="#e2dedc" stroke="#e2dedc"/><path d="M892,187L841,307L976,240Z" fill="#dedddd" stroke="#dedddd"/><path d="M892,187L976,240L1005,132Z" fill="#d8d2d0" stroke="#d8d2d0"/><path d="M892,187L1005,132L944,107Z" fill="#d9cdc8" stroke="#d9cdc8"/><path d="M1005,132L976,240L1083,291Z" fill="#d0d3d5" stroke="#d0d3d5"/><path d="M1005,132L1083,291L1144,154Z" fill="#caccce" stroke="#caccce"/><path d="M1144,154L1083,291L1170,265Z" fill="#c4ced4" stroke="#c4ced4"/><path d="M1144,154L1170,265L1237,171Z" fill="#bec6cb" stroke="#bec6cb"/><path d="M1237,171L1170,265L1226,292Z" fill="#bbc9d3" stroke="#bbc9d3"/><path d="M1237,171L1226,292L1318,181Z" fill="#b5c3cc" stroke="#b5c3cc"/><path d="M1318,181L1226,292L1385,272Z" fill="#b0c4d1" stroke="#b0c4d1"/><path d="M1318,181L1385,272L1460,125Z" fill="#a7b9c4" stroke="#a7b9c4"/><path d="M1460,125L1385,272L1480,265Z" fill="#a1b9c8" stroke="#a1b9c8"/><path d="M1460,125L1480,265L1510,158Z" fill="#9cb1bf" stroke="#9cb1bf"/><path d="M1510,158L1480,265L1574,287Z" fill="#98b6c8" stroke="#98b6c8"/><path d="M1510,158L1574,287L1624,139Z" fill="#93aebf" stroke="#93aebf"/><path d="M1624,139L1574,287L1628,285Z" fill="#8eb1c5" stroke="#8eb1c5"/><path d="M1624,139L1628,285L1701,156Z" fill="#8aa9bc" stroke="#8aa9bc"/><path d="M1701,156L1628,285L1770,237Z" fill="#84aac1" stroke="#84aac1"/><path d="M1701,156L1770,237L1836,136Z" fill="#809fb5" stroke="#809fb5"/><path d="M1836,136L1770,237L1839,285Z" fill="#80a2bc" stroke="#80a2bc"/><path d="M1836,136L1839,285L1931,292Z" fill="#80a1bd" stroke="#80a1bd"/><path d="M1836,136L1931,292L1932,105Z" fill="#8097b1" stroke="#8097b1"/><path d="M1932,105L1931,292L2066,258Z" fill="#8098b6" stroke="#8098b6"/><path d="M2082,110L2066,258L2096,338Z" fill="#8094b6" stroke="#8094b6"/><path d="M-91,226L-72,893L-66,769Z" fill="#c5aaa5" stroke="#c5aaa5"/><path d="M-91,226L-66,769L-62,554Z" fill="#dab3a7" stroke="#dab3a7"/><path d="M-91,226L-62,554L-31,379Z" fill="#f2bea9" stroke="#f2bea9"/><path d="M-91,226L-31,379L15,304Z" fill="#f7bba2" stroke="#f7bba2"/><path d="M-91,226L15,304L54,201Z" fill="#f7b699" stroke="#f7b699"/><path d="M54,201L15,304L137,254Z" fill="#f8bda4" stroke="#f8bda4"/><path d="M137,254L15,304L163,329Z" fill="#f8c6b0" stroke="#f8c6b0"/><path d="M137,254L163,329L227,240Z" fill="#f8c9b5" stroke="#f8c9b5"/><path d="M227,240L163,329L296,365Z" fill="#f9d2c2" stroke="#f9d2c2"/><path d="M227,240L296,365L307,217Z" fill="#f9d1c0" stroke="#f9d1c0"/><path d="M307,217L296,365L385,339Z" fill="#f9dacd" stroke="#f9dacd"/><path d="M491,203L492,304L586,290Z" fill="#fbe5dc" stroke="#fbe5dc"/><path d="M586,290L492,304L573,370Z" fill="#fbefe9" stroke="#fbefe9"/><path d="M586,290L573,370L684,355Z" fill="#fbf7f4" stroke="#fbf7f4"/><path d="M586,290L684,355L694,274Z" fill="#faf4f1" stroke="#faf4f1"/><path d="M694,274L684,355L739,340Z" fill="#f4f3f2" stroke="#f4f3f2"/><path d="M694,274L739,340L786,276Z" fill="#f0edec" stroke="#f0edec"/><path d="M786,276L739,340L841,307Z" fill="#ebeced" stroke="#ebeced"/><path d="M786,276L841,307L851,205Z" fill="#e6e3e3" stroke="#e6e3e3"/><path d="M976,240L841,307L972,398Z" fill="#dbe4ea" stroke="#dbe4ea"/><path d="M976,240L972,398L1038,336Z" fill="#d3e1ea" stroke="#d3e1ea"/><path d="M976,240L1038,336L1083,291Z" fill="#cfdae1" stroke="#cfdae1"/><path d="M1083,291L1038,336L1124,307Z" fill="#cadae4" stroke="#cadae4"/><path d="M1083,291L1124,307L1170,265Z" fill="#c5d5de" stroke="#c5d5de"/><path d="M1170,265L1124,307L1226,292Z" fill="#bfd2dd" stroke="#bfd2dd"/><path d="M1226,292L1124,307L1205,372Z" fill="#bed6e3" stroke="#bed6e3"/><path d="M1226,292L1205,372L1308,415Z" fill="#b7d6e8" stroke="#b7d6e8"/><path d="M1226,292L1308,415L1366,336Z" fill="#b1d2e4" stroke="#b1d2e4"/><path d="M1226,292L1366,336L1385,272Z" fill="#aecada" stroke="#aecada"/><path d="M1385,272L1366,336L1416,320Z" fill="#a7c7da" stroke="#a7c7da"/><path d="M1385,272L1416,320L1480,265Z" fill="#a3c2d5" stroke="#a3c2d5"/><path d="M1480,265L1416,320L1502,365Z" fill="#9ec3d9" stroke="#9ec3d9"/><path d="M1480,265L1502,365L1574,287Z" fill="#98bfd5" stroke="#98bfd5"/><path d="M1574,287L1502,365L1607,342Z" fill="#94c0d9" stroke="#94c0d9"/><path d="M1574,287L1607,342L1628,285Z" fill="#8fbad3" stroke="#8fbad3"/><path d="M1628,285L1607,342L1782,383Z" fill="#87b9d6" stroke="#87b9d6"/><path d="M1628,285L1782,383L1770,237Z" fill="#81b2ce" stroke="#81b2ce"/><path d="M1770,237L1782,383L1811,347Z" fill="#80b1d0" stroke="#80b1d0"/><path d="M1770,237L1811,347L1839,285Z" fill="#80abc9" stroke="#80abc9"/><path d="M1839,285L1811,347L1917,331Z" fill="#80acce" stroke="#80acce"/><path d="M1839,285L1917,331L1931,292Z" fill="#80a8c9" stroke="#80a8c9"/><path d="M1931,292L1917,331L2096,338Z" fill="#80a5ca" stroke="#80a5ca"/><path d="M1931,292L2096,338L2066,258Z" fill="#809ec4" stroke="#809ec4"/><path d="M-31,379L-62,554L-8,448Z" fill="#e5baac" stroke="#e5baac"/><path d="M-31,379L-8,448L15,304Z" fill="#f4c3b0" stroke="#f4c3b0"/><path d="M15,304L-8,448L63,486Z" fill="#eec3b3" stroke="#eec3b3"/><path d="M15,304L63,486L163,329Z" fill="#f5cbba" stroke="#f5cbba"/><path d="M163,329L63,486L117,490Z" fill="#eac9bd" stroke="#eac9bd"/><path d="M163,329L117,490L219,431Z" fill="#eecec4" stroke="#eecec4"/><path d="M163,329L219,431L296,365Z" fill="#f6d7cb" stroke="#f6d7cb"/><path d="M296,365L219,431L370,428Z" fill="#f0dad3" stroke="#f0dad3"/><path d="M296,365L370,428L385,339Z" fill="#f6e1da" stroke="#f6e1da"/><path d="M385,339L370,428L464,448Z" fill="#f1e4e0" stroke="#f1e4e0"/><path d="M385,339L464,448L492,304Z" fill="#faeae5" stroke="#faeae5"/><path d="M492,304L464,448L573,370Z" fill="#f8efec" stroke="#f8efec"/><path d="M573,370L464,448L523,498Z" fill="#ecebec" stroke="#ecebec"/><path d="M573,370L523,498L652,411Z" fill="#eff1f4" stroke="#eff1f4"/><path d="M573,370L652,411L684,355Z" fill="#f8f9fb" stroke="#f8f9fb"/><path d="M684,355L652,411L798,460Z" fill="#eaf3f9" stroke="#eaf3f9"/><path d="M684,355L798,460L739,340Z" fill="#ebf3f8" stroke="#ebf3f8"/><path d="M739,340L798,460L841,307Z" fill="#e9f1f6" stroke="#e9f1f6"/><path d="M841,307L798,460L837,469Z" fill="#ddecf5" stroke="#ddecf5"/><path d="M841,307L837,469L972,398Z" fill="#daeaf3" stroke="#daeaf3"/><path d="M972,398L837,469L970,481Z" fill="#cbe3f1" stroke="#cbe3f1"/><path d="M972,398L970,481L1035,447Z" fill="#c5e0ef" stroke="#c5e0ef"/><path d="M972,398L1035,447L1038,336Z" fill="#cbe2ef" stroke="#cbe2ef"/><path d="M1038,336L1035,447L1124,307Z" fill="#cbe1ee" stroke="#cbe1ee"/><path d="M1124,307L1035,447L1193,436Z" fill="#bfdbec" stroke="#bfdbec"/><path d="M1124,307L1193,436L1205,372Z" fill="#bddaeb" stroke="#bddaeb"/><path d="M1205,372L1193,436L1219,441Z" fill="#b1d4e9" stroke="#b1d4e9"/><path d="M1205,372L1219,441L1308,415Z" fill="#aed3e8" stroke="#aed3e8"/><path d="M1366,336L1308,415L1417,420Z" fill="#a4cde4" stroke="#a4cde4"/><path d="M1366,336L1417,420L1416,320Z" fill="#a6cde4" stroke="#a6cde4"/><path d="M1416,320L1417,420L1502,365Z" fill="#9fcae2" stroke="#9fcae2"/><path d="M1502,365L1417,420L1533,476Z" fill="#91c3e0" stroke="#91c3e0"/><path d="M1502,365L1533,476L1607,342Z" fill="#8fc1de" stroke="#8fc1de"/><path d="M1607,342L1533,476L1629,522Z" fill="#80bbdd" stroke="#80bbdd"/><path d="M1607,342L1629,522L1683,495Z" fill="#7ab7db" stroke="#7ab7db"/><path d="M1607,342L1683,495L1782,383Z" fill="#7db8da" stroke="#7db8da"/><path d="M1782,383L1683,495L1759,499Z" fill="#6eb1d8" stroke="#6eb1d8"/><path d="M1782,383L1759,499L1862,446Z" fill="#71afd6" stroke="#71afd6"/><path d="M1782,383L1862,446L1811,347Z" fill="#7ab1d6" stroke="#7ab1d6"/><path d="M1811,347L1862,446L1917,331Z" fill="#7db0d5" stroke="#7db0d5"/><path d="M1917,331L1862,446L1991,479Z" fill="#75a9d3" stroke="#75a9d3"/><path d="M1917,331L1991,479L2096,338Z" fill="#7ca7d0" stroke="#7ca7d0"/><path d="M2096,338L1991,479L2058,482Z" fill="#72a0ce" stroke="#72a0ce"/><path d="M2096,338L2058,482L2062,629Z" fill="#699acd" stroke="#699acd"/><path d="M2096,338L2062,629L2077,744Z" fill="#5994cc" stroke="#5994cc"/><path d="M-8,448L-62,554L14,540Z" fill="#dbb8ad" stroke="#dbb8ad"/><path d="M-8,448L14,540L63,486Z" fill="#dfbdb2" stroke="#dfbdb2"/><path d="M63,486L14,540L121,519Z" fill="#dbbfb7" stroke="#dbbfb7"/><path d="M63,486L121,519L117,490Z" fill="#dec3bb" stroke="#dec3bb"/><path d="M117,490L121,519L219,431Z" fill="#e2c9c1" stroke="#e2c9c1"/><path d="M219,431L121,519L252,589Z" fill="#dccac6" stroke="#dccac6"/><path d="M219,431L252,589L313,520Z" fill="#ddd0ce" stroke="#ddd0ce"/><path d="M219,431L313,520L370,428Z" fill="#e7d7d3" stroke="#e7d7d3"/><path d="M370,428L313,520L401,589Z" fill="#ded8d9" stroke="#ded8d9"/><path d="M370,428L401,589L464,448Z" fill="#e2dedf" stroke="#e2dedf"/><path d="M464,448L401,589L523,498Z" fill="#dee1e5" stroke="#dee1e5"/><path d="M523,498L401,589L540,544Z" fill="#d8e0e8" stroke="#d8e0e8"/><path d="M523,498L540,544L652,411Z" fill="#e4ecf2" stroke="#e4ecf2"/><path d="M652,411L540,544L682,587Z" fill="#dfeef8" stroke="#dfeef8"/><path d="M652,411L682,587L742,540Z" fill="#d9edf8" stroke="#d9edf8"/><path d="M652,411L742,540L798,460Z" fill="#ddedf7" stroke="#ddedf7"/><path d="M798,460L742,540L828,525Z" fill="#cfe7f5" stroke="#cfe7f5"/><path d="M798,460L828,525L837,469Z" fill="#d0e7f4" stroke="#d0e7f4"/><path d="M837,469L828,525L970,481Z" fill="#c8e3f2" stroke="#c8e3f2"/><path d="M970,481L828,525L909,583Z" fill="#bfdef1" stroke="#bfdef1"/><path d="M970,481L909,583L1056,508Z" fill="#b7daef" stroke="#b7daef"/><path d="M970,481L1056,508L1035,447Z" fill="#badbee" stroke="#badbee"/><path d="M1035,447L1056,508L1112,526Z" fill="#b3d7ec" stroke="#b3d7ec"/><path d="M1035,447L1112,526L1193,436Z" fill="#b2d6eb" stroke="#b2d6eb"/><path d="M1193,436L1112,526L1219,441Z" fill="#abd3ea" stroke="#abd3ea"/><path d="M1219,441L1112,526L1295,516Z" fill="#a3cfe8" stroke="#a3cfe8"/><path d="M1219,441L1295,516L1308,415Z" fill="#a2cde6" stroke="#a2cde6"/><path d="M1308,415L1295,516L1417,420Z" fill="#9ccae4" stroke="#9ccae4"/><path d="M1417,420L1295,516L1478,589Z" fill="#8bc2e2" stroke="#8bc2e2"/><path d="M1417,420L1478,589L1533,476Z" fill="#84bee0" stroke="#84bee0"/><path d="M1533,476L1478,589L1592,568Z" fill="#75b7dd" stroke="#75b7dd"/><path d="M1533,476L1592,568L1629,522Z" fill="#73b6dc" stroke="#73b6dc"/><path d="M1683,495L1629,522L1749,591Z" fill="#65aed9" stroke="#65aed9"/><path d="M1683,495L1749,591L1759,499Z" fill="#62acd7" stroke="#62acd7"/><path d="M1759,499L1749,591L1857,540Z" fill="#5ea7d5" stroke="#5ea7d5"/><path d="M1759,499L1857,540L1862,446Z" fill="#67a9d5" stroke="#67a9d5"/><path d="M1862,446L1857,540L1942,536Z" fill="#65a4d3" stroke="#65a4d3"/><path d="M1862,446L1942,536L1991,479Z" fill="#68a3d1" stroke="#68a3d1"/><path d="M1991,479L1942,536L2029,593Z" fill="#5f9ccf" stroke="#5f9ccf"/><path d="M1991,479L2029,593L2058,482Z" fill="#639bce" stroke="#639bce"/><path d="M2058,482L2029,593L2062,629Z" fill="#5a96cd" stroke="#5a96cd"/><path d="M-62,554L-66,769L-21,647Z" fill="#c0aaa7" stroke="#c0aaa7"/><path d="M-62,554L-21,647L14,540Z" fill="#cfb2ac" stroke="#cfb2ac"/><path d="M14,540L-21,647L47,605Z" fill="#ccb4b0" stroke="#ccb4b0"/><path d="M14,540L47,605L121,519Z" fill="#d4bbb6" stroke="#d4bbb6"/><path d="M121,519L47,605L159,662Z" fill="#cdbdbb" stroke="#cdbdbb"/><path d="M121,519L159,662L252,589Z" fill="#cec2c3" stroke="#cec2c3"/><path d="M252,589L159,662L258,684Z" fill="#c4c2c8" stroke="#c4c2c8"/><path d="M252,589L258,684L364,640Z" fill="#c6c9d0" stroke="#c6c9d0"/><path d="M252,589L364,640L313,520Z" fill="#d0ced2" stroke="#d0ced2"/><path d="M313,520L364,640L401,589Z" fill="#d0d2d8" stroke="#d0d2d8"/><path d="M401,589L364,640L450,644Z" fill="#c9d3dd" stroke="#c9d3dd"/><path d="M401,589L450,644L540,544Z" fill="#d0dbe4" stroke="#d0dbe4"/><path d="M540,544L450,644L554,623Z" fill="#cddeea" stroke="#cddeea"/><path d="M540,544L554,623L626,622Z" fill="#cfe4f1" stroke="#cfe4f1"/><path d="M540,544L626,622L682,587Z" fill="#d2e8f6" stroke="#d2e8f6"/><path d="M682,587L626,622L768,694Z" fill="#c3e4f7" stroke="#c3e4f7"/><path d="M682,587L768,694L742,540Z" fill="#c4e3f5" stroke="#c4e3f5"/><path d="M742,540L768,694L852,647Z" fill="#badef4" stroke="#badef4"/><path d="M742,540L852,647L828,525Z" fill="#c2e1f4" stroke="#c2e1f4"/><path d="M828,525L852,647L909,583Z" fill="#b9ddf2" stroke="#b9ddf2"/><path d="M909,583L852,647L980,654Z" fill="#abd7f0" stroke="#abd7f0"/><path d="M909,583L980,654L1056,508Z" fill="#acd6ee" stroke="#acd6ee"/><path d="M1056,508L980,654L1050,664Z" fill="#a2d1ec" stroke="#a2d1ec"/><path d="M1056,508L1050,664L1112,526Z" fill="#a5d1eb" stroke="#a5d1eb"/><path d="M1112,526L1050,664L1142,663Z" fill="#98ccea" stroke="#98ccea"/><path d="M1112,526L1142,663L1309,592Z" fill="#93c8e8" stroke="#93c8e8"/><path d="M1112,526L1309,592L1295,516Z" fill="#96c9e7" stroke="#96c9e7"/><path d="M1295,516L1309,592L1478,589Z" fill="#84c0e2" stroke="#84c0e2"/><path d="M1309,592L1142,663L1283,655Z" fill="#84c1e5" stroke="#84c1e5"/><path d="M1309,592L1283,655L1361,662Z" fill="#7cbde3" stroke="#7cbde3"/><path d="M1309,592L1361,662L1478,589Z" fill="#79bbe1" stroke="#79bbe1"/><path d="M1478,589L1361,662L1496,617Z" fill="#70b7df" stroke="#70b7df"/><path d="M1478,589L1496,617L1509,620Z" fill="#6eb5de" stroke="#6eb5de"/><path d="M1478,589L1509,620L1592,568Z" fill="#6db4dd" stroke="#6db4dd"/><path d="M1592,568L1509,620L1620,647Z" fill="#64afdb" stroke="#64afdb"/><path d="M1592,568L1620,647L1629,522Z" fill="#66afda" stroke="#66afda"/><path d="M1629,522L1620,647L1749,591Z" fill="#5eacd9" stroke="#5eacd9"/><path d="M1749,591L1620,647L1776,778Z" fill="#49a2d6" stroke="#49a2d6"/><path d="M1749,591L1776,778L1798,622Z" fill="#489fd4" stroke="#489fd4"/><path d="M1749,591L1798,622L1822,613Z" fill="#52a3d4" stroke="#52a3d4"/><path d="M1749,591L1822,613L1857,540Z" fill="#57a3d4" stroke="#57a3d4"/><path d="M1857,540L1822,613L1911,662Z" fill="#539ed3" stroke="#539ed3"/><path d="M1857,540L1911,662L1942,536Z" fill="#579ed1" stroke="#579ed1"/><path d="M1942,536L1911,662L2029,593Z" fill="#5499cf" stroke="#5499cf"/><path d="M2029,593L1911,662L2062,629Z" fill="#4f94ce" stroke="#4f94ce"/><path d="M-21,647L-66,769L85,748Z" fill="#b5aaad" stroke="#b5aaad"/><path d="M-21,647L85,748L47,605Z" fill="#bfb1b2" stroke="#bfb1b2"/><path d="M47,605L85,748L159,662Z" fill="#beb6b9" stroke="#beb6b9"/><path d="M159,662L85,748L137,754Z" fill="#b6b5bc" stroke="#b6b5bc"/><path d="M159,662L137,754L264,727Z" fill="#b7bac2" stroke="#b7bac2"/><path d="M159,662L264,727L258,684Z" fill="#bcbfc8" stroke="#bcbfc8"/><path d="M258,684L264,727L323,734Z" fill="#b8c2ce" stroke="#b8c2ce"/><path d="M258,684L323,734L364,640Z" fill="#bdc7d2" stroke="#bdc7d2"/><path d="M364,640L323,734L450,644Z" fill="#c0ced9" stroke="#c0ced9"/><path d="M450,644L323,734L489,755Z" fill="#b9cede" stroke="#b9cede"/><path d="M450,644L489,755L554,623Z" fill="#c1d8e7" stroke="#c1d8e7"/><path d="M554,623L489,755L556,762Z" fill="#bad8eb" stroke="#bad8eb"/><path d="M554,623L556,762L626,622Z" fill="#c2dff1" stroke="#c2dff1"/><path d="M626,622L556,762L696,762Z" fill="#bae0f6" stroke="#bae0f6"/><path d="M626,622L696,762L768,694Z" fill="#b8dff6" stroke="#b8dff6"/><path d="M768,694L696,762L733,766Z" fill="#abd9f4" stroke="#abd9f4"/><path d="M768,694L733,766L873,751Z" fill="#a5d6f3" stroke="#a5d6f3"/><path d="M768,694L873,751L852,647Z" fill="#a8d6f1" stroke="#a8d6f1"/><path d="M852,647L873,751L933,751Z" fill="#9ed1f0" stroke="#9ed1f0"/><path d="M852,647L933,751L980,654Z" fill="#a0d2ef" stroke="#a0d2ef"/><path d="M980,654L933,751L1050,664Z" fill="#98cded" stroke="#98cded"/><path d="M1050,664L933,751L1066,777Z" fill="#8dc8eb" stroke="#8dc8eb"/><path d="M1050,664L1066,777L1142,663Z" fill="#8bc7e9" stroke="#8bc7e9"/><path d="M1142,663L1066,777L1157,753Z" fill="#81c2e8" stroke="#81c2e8"/><path d="M1142,663L1157,753L1283,655Z" fill="#80c0e6" stroke="#80c0e6"/><path d="M1283,655L1157,753L1266,770Z" fill="#75bbe5" stroke="#75bbe5"/><path d="M1283,655L1266,770L1361,662Z" fill="#73bae3" stroke="#73bae3"/><path d="M1361,662L1266,770L1398,745Z" fill="#69b5e1" stroke="#69b5e1"/><path d="M1361,662L1398,745L1429,732Z" fill="#65b3e0" stroke="#65b3e0"/><path d="M1361,662L1429,732L1496,617Z" fill="#6ab4df" stroke="#6ab4df"/><path d="M1496,617L1429,732L1509,620Z" fill="#66b2de" stroke="#66b2de"/><path d="M1509,620L1429,732L1544,736Z" fill="#5eaedd" stroke="#5eaedd"/><path d="M1509,620L1544,736L1620,647Z" fill="#5cacdb" stroke="#5cacdb"/><path d="M1620,647L1544,736L1677,797Z" fill="#4aa4d9" stroke="#4aa4d9"/><path d="M1620,647L1677,797L1776,778Z" fill="#3f9fd6" stroke="#3f9fd6"/><path d="M1798,622L1776,778L1868,784Z" fill="#3c98d3" stroke="#3c98d3"/><path d="M1798,622L1868,784L1911,662Z" fill="#4398d2" stroke="#4398d2"/><path d="M1798,622L1911,662L1822,613Z" fill="#4e9dd3" stroke="#4e9dd3"/><path d="M1911,662L1868,784L1945,758Z" fill="#3b92d0" stroke="#3b92d0"/><path d="M1911,662L1945,758L2062,629Z" fill="#4492ce" stroke="#4492ce"/><path d="M2062,629L1945,758L2077,744Z" fill="#3f8ccc" stroke="#3f8ccc"/><path d="M-66,769L-72,893L11,831Z" fill="#a09ea7" stroke="#a09ea7"/><path d="M-66,769L11,831L85,748Z" fill="#aaa6ad" stroke="#aaa6ad"/><path d="M85,748L11,831L153,817Z" fill="#a7abb5" stroke="#a7abb5"/><path d="M85,748L153,817L137,754Z" fill="#acb0bb" stroke="#acb0bb"/><path d="M137,754L153,817L264,727Z" fill="#aeb6c2" stroke="#aeb6c2"/><path d="M264,727L153,817L297,842Z" fill="#a9b9c7" stroke="#a9b9c7"/><path d="M264,727L297,842L323,734Z" fill="#aebfcf" stroke="#aebfcf"/><path d="M323,734L297,842L346,843Z" fill="#a7bfd1" stroke="#a7bfd1"/><path d="M323,734L346,843L489,755Z" fill="#adc6d9" stroke="#adc6d9"/><path d="M489,755L346,843L434,870Z" fill="#a5c6dd" stroke="#a5c6dd"/><path d="M489,755L434,870L585,810Z" fill="#a7cee6" stroke="#a7cee6"/><path d="M489,755L585,810L556,762Z" fill="#aed4eb" stroke="#aed4eb"/><path d="M556,762L585,810L696,762Z" fill="#aed9f4" stroke="#aed9f4"/><path d="M696,762L585,810L654,839Z" fill="#a9d9f6" stroke="#a9d9f6"/><path d="M696,762L654,839L701,820Z" fill="#a4d7f5" stroke="#a4d7f5"/><path d="M696,762L701,820L733,766Z" fill="#a6d7f5" stroke="#a6d7f5"/><path d="M733,766L701,820L855,817Z" fill="#9cd3f2" stroke="#9cd3f2"/><path d="M733,766L855,817L873,751Z" fill="#9ad1f1" stroke="#9ad1f1"/><path d="M873,751L855,817L933,751Z" fill="#93cdef" stroke="#93cdef"/><path d="M933,751L855,817L914,870Z" fill="#8bc9ee" stroke="#8bc9ee"/><path d="M933,751L914,870L1070,824Z" fill="#82c5ec" stroke="#82c5ec"/><path d="M933,751L1070,824L1066,777Z" fill="#82c4eb" stroke="#82c4eb"/><path d="M1066,777L1070,824L1139,822Z" fill="#76bee8" stroke="#76bee8"/><path d="M1066,777L1139,822L1157,753Z" fill="#77bee8" stroke="#77bee8"/><path d="M1157,753L1139,822L1266,770Z" fill="#70bae6" stroke="#70bae6"/><path d="M1266,770L1139,822L1219,874Z" fill="#66b6e5" stroke="#66b6e5"/><path d="M1266,770L1219,874L1371,847Z" fill="#5cb0e2" stroke="#5cb0e2"/><path d="M1266,770L1371,847L1398,745Z" fill="#5db0e0" stroke="#5db0e0"/><path d="M1398,745L1371,847L1456,825Z" fill="#53abde" stroke="#53abde"/><path d="M1398,745L1456,825L1429,732Z" fill="#58adde" stroke="#58adde"/><path d="M1429,732L1456,825L1544,736Z" fill="#53aadd" stroke="#53aadd"/><path d="M1544,736L1456,825L1577,810Z" fill="#49a5db" stroke="#49a5db"/><path d="M1544,736L1577,810L1677,797Z" fill="#42a1d9" stroke="#42a1d9"/><path d="M1677,797L1577,810L1635,846Z" fill="#389cd7" stroke="#389cd7"/><path d="M1677,797L1635,846L1765,890Z" fill="#2c97d5" stroke="#2c97d5"/><path d="M1677,797L1765,890L1776,778Z" fill="#2b96d4" stroke="#2b96d4"/><path d="M1776,778L1765,890L1868,845Z" fill="#2890d1" stroke="#2890d1"/><path d="M1776,778L1868,845L1868,784Z" fill="#2f91d1" stroke="#2f91d1"/><path d="M1868,784L1868,845L1940,837Z" fill="#2b8ccf" stroke="#2b8ccf"/><path d="M1868,784L1940,837L1945,758Z" fill="#308dce" stroke="#308dce"/><path d="M1945,758L1940,837L2004,846Z" fill="#2c89cd" stroke="#2c89cd"/><path d="M1945,758L2004,846L2077,744Z" fill="#3288cc" stroke="#3288cc"/><path d="M2077,744L2004,846L2013,907Z" fill="#2983ca" stroke="#2983ca"/><path d="M2077,744L2013,907L2036,1027Z" fill="#1e7ec9" stroke="#1e7ec9"/><path d="M2077,744L2036,1027L2024,1115Z" fill="#1179c9" stroke="#1179c9"/><path d="M-72,893L-33,1094L14,1040Z" fill="#8092a6" stroke="#8092a6"/><path d="M-72,893L14,1040L-8,921Z" fill="#8b96a8" stroke="#8b96a8"/><path d="M-72,893L-8,921L11,831Z" fill="#979ca8" stroke="#979ca8"/><path d="M11,831L-8,921L62,932Z" fill="#959fad" stroke="#959fad"/><path d="M11,831L62,932L153,817Z" fill="#9ca6b4" stroke="#9ca6b4"/><path d="M153,817L62,932L138,940Z" fill="#95a6b8" stroke="#95a6b8"/><path d="M153,817L138,940L267,935Z" fill="#96acc0" stroke="#96acc0"/><path d="M153,817L267,935L297,842Z" fill="#9cb3c7" stroke="#9cb3c7"/><path d="M297,842L267,935L332,903Z" fill="#97b6ce" stroke="#97b6ce"/><path d="M297,842L332,903L346,843Z" fill="#9dbad1" stroke="#9dbad1"/><path d="M346,843L332,903L401,902Z" fill="#99bcd5" stroke="#99bcd5"/><path d="M346,843L401,902L434,870Z" fill="#9cc0d9" stroke="#9cc0d9"/><path d="M434,870L401,902L438,1026Z" fill="#91bedc" stroke="#91bedc"/><path d="M434,870L438,1026L593,928Z" fill="#90c3e3" stroke="#90c3e3"/><path d="M434,870L593,928L585,810Z" fill="#9dccea" stroke="#9dccea"/><path d="M585,810L593,928L654,839Z" fill="#a0d3f2" stroke="#a0d3f2"/><path d="M654,839L593,928L642,992Z" fill="#94d0f4" stroke="#94d0f4"/><path d="M654,839L642,992L756,959Z" fill="#8ecef3" stroke="#8ecef3"/><path d="M654,839L756,959L701,820Z" fill="#96d1f4" stroke="#96d1f4"/><path d="M701,820L756,959L855,817Z" fill="#90cdf2" stroke="#90cdf2"/><path d="M855,817L756,959L894,962Z" fill="#80c6ef" stroke="#80c6ef"/><path d="M855,817L894,962L914,870Z" fill="#7fc5ee" stroke="#7fc5ee"/><path d="M914,870L894,962L934,916Z" fill="#76c1ed" stroke="#76c1ed"/><path d="M914,870L934,916L1036,902Z" fill="#75bfeb" stroke="#75bfeb"/><path d="M914,870L1036,902L1070,824Z" fill="#75bfea" stroke="#75bfea"/><path d="M1070,824L1036,902L1139,822Z" fill="#70bbe8" stroke="#70bbe8"/><path d="M1139,822L1036,902L1186,987Z" fill="#61b5e6" stroke="#61b5e6"/><path d="M1139,822L1186,987L1219,874Z" fill="#5cb2e4" stroke="#5cb2e4"/><path d="M1219,874L1186,987L1269,998Z" fill="#4cabe2" stroke="#4cabe2"/><path d="M1219,874L1269,998L1343,971Z" fill="#48a8e1" stroke="#48a8e1"/><path d="M1219,874L1343,971L1371,847Z" fill="#4daae0" stroke="#4daae0"/><path d="M1371,847L1343,971L1466,919Z" fill="#41a4de" stroke="#41a4de"/><path d="M1371,847L1466,919L1456,825Z" fill="#46a5dd" stroke="#46a5dd"/><path d="M1456,825L1466,919L1577,810Z" fill="#41a2db" stroke="#41a2db"/><path d="M1577,810L1466,919L1611,923Z" fill="#359cd9" stroke="#359cd9"/><path d="M1577,810L1611,923L1635,846Z" fill="#329bd8" stroke="#329bd8"/><path d="M1635,846L1611,923L1765,890Z" fill="#2795d5" stroke="#2795d5"/><path d="M1765,890L1611,923L1716,986Z" fill="#1b90d4" stroke="#1b90d4"/><path d="M1765,890L1716,986L1792,1047Z" fill="#0f89d1" stroke="#0f89d1"/><path d="M1765,890L1792,1047L1899,932Z" fill="#1286d0" stroke="#1286d0"/><path d="M1765,890L1899,932L1868,845Z" fill="#1f8ad0" stroke="#1f8ad0"/><path d="M1868,845L1899,932L1940,837Z" fill="#2288ce" stroke="#2288ce"/><path d="M1940,837L1899,932L2013,907Z" fill="#1e83cc" stroke="#1e83cc"/><path d="M1940,837L2013,907L2004,846Z" fill="#2383cc" stroke="#2383cc"/><path d="M-8,921L14,1040L62,932Z" fill="#8899ad" stroke="#8899ad"/><path d="M62,932L14,1040L134,1081Z" fill="#7f99b1" stroke="#7f99b1"/><path d="M62,932L134,1081L138,940Z" fill="#859fb7" stroke="#859fb7"/><path d="M138,940L134,1081L228,1029Z" fill="#80a1bd" stroke="#80a1bd"/><path d="M138,940L228,1029L267,935Z" fill="#89a9c2" stroke="#89a9c2"/><path d="M267,935L228,1029L395,1077Z" fill="#81adcc" stroke="#81adcc"/><path d="M267,935L395,1077L332,903Z" fill="#89b3d0" stroke="#89b3d0"/><path d="M332,903L395,1077L438,1026Z" fill="#84b6d7" stroke="#84b6d7"/><path d="M332,903L438,1026L401,902Z" fill="#8fbad8" stroke="#8fbad8"/><path d="M593,928L438,1026L615,1021Z" fill="#87c4ea" stroke="#87c4ea"/><path d="M593,928L615,1021L642,992Z" fill="#89cbf2" stroke="#89cbf2"/><path d="M642,992L615,1021L779,1047Z" fill="#7ec7f3" stroke="#7ec7f3"/><path d="M642,992L779,1047L756,959Z" fill="#7cc6f2" stroke="#7cc6f2"/><path d="M756,959L779,1047L894,962Z" fill="#75c1ef" stroke="#75c1ef"/><path d="M894,962L779,1047L813,1077Z" fill="#6bbeee" stroke="#6bbeee"/><path d="M894,962L813,1077L948,1004Z" fill="#68bbec" stroke="#68bbec"/><path d="M894,962L948,1004L934,916Z" fill="#6dbdec" stroke="#6dbdec"/><path d="M934,916L948,1004L1016,1006Z" fill="#66b9ea" stroke="#66b9ea"/><path d="M934,916L1016,1006L1036,902Z" fill="#69baea" stroke="#69baea"/><path d="M1036,902L1016,1006L1186,987Z" fill="#5bb3e7" stroke="#5bb3e7"/><path d="M1186,987L1016,1006L1077,1137Z" fill="#4bace6" stroke="#4bace6"/><path d="M1186,987L1077,1137L1191,1098Z" fill="#42a7e3" stroke="#42a7e3"/><path d="M1186,987L1191,1098L1269,998Z" fill="#40a6e2" stroke="#40a6e2"/><path d="M1269,998L1191,1098L1293,1079Z" fill="#37a2e0" stroke="#37a2e0"/><path d="M1269,998L1293,1079L1336,1075Z" fill="#329fdf" stroke="#329fdf"/><path d="M1269,998L1336,1075L1343,971Z" fill="#37a1df" stroke="#37a1df"/><path d="M1343,971L1336,1075L1408,1036Z" fill="#2f9ddd" stroke="#2f9ddd"/><path d="M1343,971L1408,1036L1466,919Z" fill="#349fdc" stroke="#349fdc"/><path d="M1466,919L1408,1036L1526,1057Z" fill="#2898da" stroke="#2898da"/><path d="M1466,919L1526,1057L1588,971Z" fill="#2597d9" stroke="#2597d9"/><path d="M1466,919L1588,971L1611,923Z" fill="#2a98d8" stroke="#2a98d8"/><path d="M1588,971L1526,1057L1677,1018Z" fill="#1790d6" stroke="#1790d6"/><path d="M1588,971L1677,1018L1611,923Z" fill="#1c91d5" stroke="#1c91d5"/><path d="M1611,923L1677,1018L1716,986Z" fill="#178fd4" stroke="#178fd4"/><path d="M1716,986L1677,1018L1792,1047Z" fill="#0887d2" stroke="#0887d2"/><path d="M1899,932L1792,1047L1900,1073Z" fill="#077fce" stroke="#077fce"/><path d="M1899,932L1900,1073L1986,991Z" fill="#0a7dcc" stroke="#0a7dcc"/><path d="M1899,932L1986,991L2013,907Z" fill="#157ecb" stroke="#157ecb"/><path d="M1986,991L1900,1073L1938,1105Z" fill="#0077cb" stroke="#0077cb"/><path d="M1986,991L1938,1105L2036,1027Z" fill="#0376ca" stroke="#0376ca"/><path d="M1986,991L2036,1027L2013,907Z" fill="#0f7ac9" stroke="#0f7ac9"/><path d="M-33,1094L20,1141L-20,1103Z" fill="#788ba7" stroke="#788ba7"/><path d="M-33,1094L-20,1103L14,1040Z" fill="#788ea7" stroke="#788ea7"/><path d="M14,1040L-20,1103L20,1141Z" fill="#788ea9" stroke="#788ea9"/><path d="M14,1040L20,1141L134,1081Z" fill="#7893af" stroke="#7893af"/><path d="M134,1081L20,1141L153,1141Z" fill="#7894b4" stroke="#7894b4"/><path d="M134,1081L153,1141L228,1029Z" fill="#799dbd" stroke="#799dbd"/><path d="M228,1029L153,1141L270,1183Z" fill="#799ec2" stroke="#799ec2"/><path d="M228,1029L270,1183L300,1156Z" fill="#79a2c7" stroke="#79a2c7"/><path d="M228,1029L300,1156L395,1077Z" fill="#7aa8cd" stroke="#7aa8cd"/><path d="M395,1077L300,1156L466,1171Z" fill="#7aacd5" stroke="#7aacd5"/><path d="M395,1077L466,1171L438,1026Z" fill="#7ab3db" stroke="#7ab3db"/><path d="M438,1026L466,1171L569,1083Z" fill="#7bb8e2" stroke="#7bb8e2"/><path d="M438,1026L569,1083L615,1021Z" fill="#7dbfe8" stroke="#7dbfe8"/><path d="M569,1083L466,1171L562,1137Z" fill="#7bb8e6" stroke="#7bb8e6"/><path d="M569,1083L562,1137L632,1138Z" fill="#7bbeed" stroke="#7bbeed"/><path d="M569,1083L632,1138L615,1021Z" fill="#7cc2ef" stroke="#7cc2ef"/><path d="M615,1021L632,1138L779,1047Z" fill="#78c4f2" stroke="#78c4f2"/><path d="M779,1047L632,1138L709,1165Z" fill="#74bef1" stroke="#74bef1"/><path d="M779,1047L709,1165L813,1077Z" fill="#6dbcef" stroke="#6dbcef"/><path d="M813,1077L709,1165L836,1136Z" fill="#6bb9ee" stroke="#6bb9ee"/><path d="M813,1077L836,1136L967,1110Z" fill="#62b5ec" stroke="#62b5ec"/><path d="M813,1077L967,1110L948,1004Z" fill="#5db6eb" stroke="#5db6eb"/><path d="M948,1004L967,1110L1016,1006Z" fill="#58b4e9" stroke="#58b4e9"/><path d="M1016,1006L967,1110L1077,1137Z" fill="#51aee7" stroke="#51aee7"/><path d="M1191,1098L1077,1137L1175,1182Z" fill="#43a2e3" stroke="#43a2e3"/><path d="M1191,1098L1175,1182L1263,1148Z" fill="#3c9ee1" stroke="#3c9ee1"/><path d="M1191,1098L1263,1148L1293,1079Z" fill="#379ee0" stroke="#379ee0"/><path d="M1293,1079L1263,1148L1339,1165Z" fill="#3299de" stroke="#3299de"/><path d="M1293,1079L1339,1165L1336,1075Z" fill="#2f9add" stroke="#2f9add"/><path d="M1336,1075L1339,1165L1439,1164Z" fill="#2995dc" stroke="#2995dc"/><path d="M1336,1075L1439,1164L1408,1036Z" fill="#2796dc" stroke="#2796dc"/><path d="M1408,1036L1439,1164L1510,1119Z" fill="#2092d9" stroke="#2092d9"/><path d="M1408,1036L1510,1119L1526,1057Z" fill="#1d92d9" stroke="#1d92d9"/><path d="M1526,1057L1510,1119L1696,1145Z" fill="#128ad5" stroke="#128ad5"/><path d="M1526,1057L1696,1145L1677,1018Z" fill="#0c89d4" stroke="#0c89d4"/><path d="M1677,1018L1696,1145L1760,1125Z" fill="#0382d2" stroke="#0382d2"/><path d="M1677,1018L1760,1125L1792,1047Z" fill="#0083d1" stroke="#0083d1"/><path d="M1792,1047L1760,1125L1822,1081Z" fill="#007fcf" stroke="#007fcf"/><path d="M1792,1047L1822,1081L1900,1073Z" fill="#007dce" stroke="#007dce"/><path d="M1822,1081L1760,1125L1842,1107Z" fill="#007cce" stroke="#007cce"/><path d="M1822,1081L1842,1107L1900,1073Z" fill="#007bcd" stroke="#007bcd"/><path d="M1900,1073L1842,1107L1938,1105Z" fill="#0078cc" stroke="#0078cc"/><path d="M2036,1027L1938,1105L2024,1115Z" fill="#0072c9" stroke="#0072c9"/><path d="M20,1141L270,1183L153,1141Z" fill="#7996b9" stroke="#7996b9"/><path d="M270,1183L1175,1182L466,1171Z" fill="#7cbdf2" stroke="#7cbdf2"/><path d="M270,1183L466,1171L300,1156Z" fill="#7aa5d0" stroke="#7aa5d0"/><path d="M466,1171L1175,1182L709,1165Z" fill="#6cb6ee" stroke="#6cb6ee"/><path d="M466,1171L709,1165L562,1137Z" fill="#7bbaeb" stroke="#7bbaeb"/><path d="M562,1137L709,1165L632,1138Z" fill="#7cc0f2" stroke="#7cc0f2"/><path d="M709,1165L1175,1182L836,1136Z" fill="#5eafea" stroke="#5eafea"/><path d="M836,1136L1175,1182L1077,1137Z" fill="#50a8e6" stroke="#50a8e6"/><path d="M836,1136L1077,1137L967,1110Z" fill="#58aee9" stroke="#58aee9"/><path d="M1175,1182L1439,1164L1339,1165Z" fill="#3095dd" stroke="#3095dd"/><path d="M1175,1182L1339,1165L1263,1148Z" fill="#3699df" stroke="#3699df"/><path d="M1439,1164L1696,1145L1510,1119Z" fill="#1689d6" stroke="#1689d6"/><path d="M1696,1145L2024,1115L1760,1125Z" fill="#0079ce" stroke="#0079ce"/><path d="M1760,1125L2024,1115L1938,1105Z" fill="#0076cb" stroke="#0076cb"/><path d="M1760,1125L1938,1105L1842,1107Z" fill="#0079cd" stroke="#0079cd"/></g></svg>