<?xml version="1.0" standalone="no"?><!-- Generator: Gravit.io --><svg xmlns="http://www.w3.org/2000/svg" xmlns:xlink="http://www.w3.org/1999/xlink" style="isolation:isolate" viewBox="0 0 1024 1024" width="1024" height="1024"><defs><clipPath id="_clipPath_FmLtfbxh9k2GcTSKIwSuDAMkoaPxWS6T"><rect width="1024" height="1024"/></clipPath></defs><g clip-path="url(#_clipPath_FmLtfbxh9k2GcTSKIwSuDAMkoaPxWS6T)"><g id="Logo"><g id="Group"><path d=" M 79.954 924.235 C 49.081 845.486 111.049 635.813 192.193 432.749 C 203.029 405.632 213.917 379.74 224.858 355.072 Q 354.177 63.505 493.286 0 Q 485.848 55.888 486.938 76.859 Q 488.028 97.83 490.993 114.246 Q 534.325 113.336 592.371 122.131 Q 650.417 130.926 691.227 149.127 Q 735.616 115.298 771.167 100.341 Q 806.719 85.383 865.058 79.668 Q 767.635 387.658 760.713 503.884 C 749.388 694.037 766.467 817.543 770.173 871.65 C 794.757 874.905 818.708 872.132 854.608 858.67 C 875.289 850.915 902.997 827.659 894.631 788.999 C 889.211 763.948 855.345 759.508 835.337 762.316 C 827.058 763.478 810.358 761.324 806.431 748.234 C 801.984 733.41 814.107 722.079 824.219 717.845 C 846.452 708.539 891.487 701.036 924.546 731.647 C 952.528 757.556 953.388 796.405 947.811 825.928 C 942.557 853.737 922.098 874.905 905.245 887.76 C 872.698 912.586 817.41 928.334 773.09 934.72 C 770.236 964.722 744.408 976.383 724.211 985.231 C 659.742 1013.473 539.457 1028.252 414.973 1022.926 C 235.059 1015.228 102.041 980.577 79.954 924.235 Z " fill="rgb(68,106,219)"/><path d=" M 449.6 365.5 C 449.2 363.1 449.8 360.7 451.3 358.7 C 452.7 356.7 454.9 355.4 457.3 355.1 C 459.7 354.7 462.2 355.3 464.1 356.7 C 466.1 358.2 467.4 360.3 467.8 362.7 C 468.2 365.7 469.1 368.5 470.4 371.2 C 471.1 372.7 472.2 374 473.4 375.1 C 474.7 376.1 476.1 377 477.7 377.4 C 480.4 378.3 483.3 378.7 486.2 378.7 C 489.3 378.7 492.4 378.2 495.4 377.4 C 497 376.9 498.6 376.2 499.9 375.1 C 501.1 374.2 502.1 373.1 502.8 371.8 C 503.9 369.9 504.7 367.8 505.2 365.6 C 505.7 363.2 507.1 361.1 509.1 359.7 C 511.1 358.4 513.6 357.9 516 358.4 C 518.4 358.9 520.5 360.3 521.8 362.3 C 523.2 364.3 523.7 366.8 523.2 369.2 C 522.3 373.4 520.8 377.3 518.7 381 C 516.8 384.4 514.2 387.4 511.1 389.7 C 507.9 392.2 504.3 394 500.4 395 C 495.8 396.3 491.1 397 486.3 397.1 C 481.5 397.1 476.8 396.4 472.3 395 C 468.3 393.8 464.6 391.7 461.5 389 C 458.3 386.3 455.7 383 453.9 379.3 C 451.8 374.9 450.3 370.3 449.6 365.5 Z " fill="rgb(255,255,255)"/><path d=" M 458.372 184 C 477.556 188.836 463.103 226.829 457.039 243.216 C 450.975 259.602 437.807 298.134 421.697 294.829 C 405.587 291.525 410.78 252.146 418.629 228.679 C 426.478 205.212 439.189 179.165 458.372 184 Z " fill="rgb(255,255,255)"/><path d=" M 623.373 208.9 C 642.556 213.735 631.758 251.355 625.693 267.741 C 619.629 284.128 606.462 322.659 590.351 319.355 C 574.241 316.05 579.435 276.671 587.283 253.204 C 595.132 229.738 604.189 204.064 623.373 208.9 Z " fill="rgb(255,255,255)"/></g></g></g></svg>