<svg enable-background="new 0 0 512 512" viewBox="0 0 512 512" xmlns="http://www.w3.org/2000/svg"><path d="m160.4 54.4c0 .2.2.3.4.3h.4c.2 0 .4 0 .4.3.6 0 0 1.2.6 1.2.7 8-.2 16.3 1.7 22.7 34 .2 65.1 13.2 90.7 24.4 12.1 5.3 20 14.4 36.6 15.7 4.2-7.7 7.2-13.5 19.2-14 .3-.1.6-.1.9-.1 4.5 0 7.9 6.7 8.7 20.1-.6 2.3 1.4 5.6.8 7.9 1.6 8.5 4.8 23.4 7 33.2 3.8 17.4-3.3 32.2-3.5 48.9-.2 1.4 1.4 1.7 1.7 1.7 22.9 5.8 35.5 11.7 45.1 21.6 6.4-13.8 17.6-18.9 30.3-18.9 28.3 0 64.3 25.3 72.9 35.8 3.7 4.5 14.6 9.8 17.4 14 2.6 4.5 2.3 9.2 0 14-1 2.1-2 5.3-3.5 7-2.3 2.9-5.4 4.6-8.7 5.2-.2 0-.5 0-.7 0-35.2 0-38.5-28.1-63.4-33.8-1.8-.4-4.4-1.6-6.7-1.6-1 0-1.9.2-2.7.9-5.3 11.5 11.9 39.3 5.5 64.2-10.5 41.1-36.6 77.4-68 97.8-10.3 5.3-20.9 7-31.4 10.5-3.5 2.4-2.7 6.9-5.2 10.5-3.9 5.5-16.7 14.7-23.1 16.1-3.9.8-7.7 1.2-11.3 1.2-14.5 0-25.9-6-26.7-13.7-20.8-.6-41.7-1.2-62.7-1.8-27.7 0-55.6-4.2-76.8-5.2-1.1 6.9-5 8.8-10.5 10.5-8.8-.8-17.8-.2-26.2-3.5-8.3-3.5-9.3-8.3-14-15.7-5-8.1-14.9-5.7-22.7-15.7-14.8-19-8.9-63-6.4-81 2.6-18.7 6.5-32.3 11.6-52.7 7.7-30.6 16.9-54.4 26.2-83.1 5.5-16.9 19.8-45.3 16.5-50.4-6.7-5.7-43.6-1.7-50.7-8.4-1.9-2.5-.8-3.2 1.4-3.2 2.4 0 6.1.9 8.3 1.3 2.8 1.8 8.2 2.3 13.9 2.3 5.6 0 11.5-.5 15.7-.6 0-.6 0-1.2 0-1.7-7.3-2.9-26.6-10.7-24.2-14.4.4-.5 1-.8 1.8-.8 6.1 0 22.6 14.1 37.8 15.2 1.1-1.1.2-2.9.2-3.5-7.7-6.5-22.2-16.5-41.9-17.5-.4.1-.8.1-1.1.1-5.8 0-5.3-7.1 1.1-7.1 18.8.3 40.4 11.4 48.9 22.7.6.2 1.2.4 1.8.4 1 0 2-.5 3.4-2.1 9.5-21.1 36.8-77.1 63.2-77.2m-9.9 20.3c1.1 0 2.1-.3 2.9-1.1 1.3-1.4 1.9-2.5 1.7-5.2-.6-3-3.5-2.8-5.8-2.9-2.9 1.7-5.3 3.3-4.7 6.4.9 1.4 3.6 2.8 5.9 2.8m159.9 56.5c.9-2.8.2-6.4-1.7-10.5-1.1-1.4-2.2-2-3.3-2-1.2 0-2.4.8-3.7 2-.9 2.6-1.2 3-1.7 7 3.6 2.4 3.8 3 10.4 3.5m-159.1 30.5c1.1 0 2.4-.8 3.9-2.5 4.1-5.5 8.2-7 17.7-7h1.5c3 .5 6.4 3.7 7.7 6.1 3.1 5.1 3.2 7 6.3 10.5 1.3-.1 3.7-2.1 3.2-3.2-1.2-11.5-7.2-15.6-15.2-19-3.4-.5-5.4-1.7-12.3-1.7-.1 0-.1 0-.2 0-7.2 1.8-12.8 3.4-15.7 14.2.8 1.7 1.9 2.6 3.1 2.6m96.6 32.9c1.2 0 2-.5 3.2-.5 1.6-1.5 4.6-6.7 13.6-6.7 2.5 0 5.5.4 9.1 1.4 7.5 4.4 10.7 11.2 12.2 21 .6.7 1.3 1.1 1.9 1.1.7 0 1.4-.5 1.6-1.5 1.3-1.9.4-1.2 1.1-4.7-.7-9.7-6.2-15.5-13.7-20.6-5.1-1.8-8.4-2.2-14.5-2.2-.8 0-1.6 0-2.6 0-5.7.7-9.8 3.5-12.2 8.7-.2 1.8 0 3.7.3 4m-32.8 40.7c3.3 0 6.6-.3 10-1.1 7.1-5.5 1.2-4.1-.1-5.2-16.2-.3-25.2-7.1-40.1-12.4-.3-.1-.6-.1-.8-.1-2.1 0-.5 2.3 2.6 5.5 5.3 8.5 16.2 13.3 28.4 13.3m150.5 18.9c1.8 0 1.9-3.7 3-11.1-4-1.4-12.5-14.6-30.6-16.3.6 1.2 13.5 10 17.9 15.8 3.9 5.6 7 7 9.5 11.6zm-13.2 23.2c-1.5 0-1.8-2.3-2.8-3.7-4.5-7.6-6.5-16.4-13-23.7-3.5-3.9-5.7-8.1-11.7-10.6-1.8 1.1-1.7 1.3-2.2 1.8-20.7 14.4-2.8 83 3.5 104.8 3.7 12.8 4.3 22 12.9 28.3 4-.6 10.8-8.2 15-14.4 7.8-11.6 17-29 20.9-45.4 2.4-10-8.7-33.1-8.7-55.9-7.1-1.3-24.1-24-31.9-24-.6 0-1.2.1-1.6.4-.8 1.6 12.3 8.4 16.3 21.1 2.7 5.5 5 10.8 6.4 16.6.1 2.5 0 3.5-2.7 4.5-.2.2-.3.2-.4.2m-192-230c-14 0-28.3 11.1-43.7 33.7-10.2 15-18.4 31.6-23.4 42.5-4.8-4.6-11.2-8.9-18.5-12.4-10.3-5-21.4-7.8-31.2-7.9h-.1c-7.6 0-12.2 5.5-12.2 10.9 0 4.5 2.8 8.1 7 9.5-.1 1.1 0 2.3.4 3.4.5 1.5 1.3 2.8 2.7 4.2-.1 0-.1 0-.2 0-.5-.1-1.1-.2-1.7-.3-2.4-.5-5.3-1.1-7.8-1.1-5.5 0-7.8 2.9-8.6 4.7-.9 1.8-1.8 5.4 1.7 9.8.2.3.5.6.7.8 5.2 4.9 15.3 5.7 31.3 6.5 5.1.3 13 .6 17.3 1.5-1.3 5.6-5.9 16.9-8.6 23.5-2.8 6.9-5.7 14.1-7.7 20-2.6 7.9-5.2 15.6-7.7 23-6.7 19.7-13 38.3-18.7 60.6-.8 3.2-1.6 6.2-2.3 9.1-4 15.8-7.2 28.2-9.4 44.4-4.2 30.2-7.1 67.2 7.8 86.3 5.2 6.6 11.2 9.1 15.6 10.9 3.6 1.5 5.4 2.3 6.6 4.2.9 1.5 1.7 2.8 2.4 4.1 3.1 5.5 6 10.6 14.7 14.3.1 0 .1.1.2.1 7.3 2.8 14.5 3.2 21.5 3.5 2.3.1 4.4.2 6.6.4h.6c.7 0 1.4-.1 2.1-.3 3.7-1.2 10-3.1 13.4-9.8 6.3.4 13.2 1.1 20.4 1.8 15.7 1.5 33.6 3.2 51.3 3.2 19 .5 38.6 1.1 57.8 1.6 4.7 8.3 16.9 13.9 31.7 13.9 4.2 0 8.6-.5 12.8-1.4 8.5-1.8 22.6-12.2 27.4-18.9 1.7-2.5 2.5-5 3-6.9.1-.5.3-1.1.5-1.6 2.7-.9 5.5-1.6 8.4-2.4 7.2-2 14.7-4 22.3-7.9.2-.1.4-.2.6-.4 33.8-22 60.3-60.1 71-101.9 4-15.5 0-31.5-3.3-44.2-1.2-4.9-2.7-10.6-3-14.7.6.2 1.2.4 1.8.5 8.7 2 14.3 7.4 20.8 13.7 9.9 9.5 21.1 20.3 44.2 20.3h.8c.4 0 .8 0 1.2-.1 5.1-1 9.5-3.6 12.8-7.6 1.7-2 2.7-4.5 3.6-6.6.3-.7.6-1.3.8-1.8v-.1c4.3-9.2 2.2-16.2-.3-20.5-.1-.1-.2-.3-.3-.4-2.2-3.2-6.2-5.9-10.5-8.8-2.7-1.9-6.1-4.2-7.3-5.6-9.4-11.5-47.3-38.4-78.3-38.4-13.7 0-24.6 5.2-32 15.1-9-6.9-20.6-11.9-38-16.5.4-4.5 1.2-9 2-13.7 1.8-10.2 3.8-20.7 1.1-32.7-1.8-8.1-5-22.9-6.7-31.9.1-2.1-.3-4-.7-5.4-.1-.4-.2-.9-.3-1.2.1-.5.1-1 .1-1.5-.5-7.4-1.7-13.2-3.6-17.5-3.6-8-9.1-9.1-12.1-9.1-.6 0-1.1 0-1.7.1-12.9.6-18.4 6.8-22.3 13.4-7.2-1.4-12.4-4.5-18.2-8.1-3.6-2.2-7.4-4.5-11.8-6.4-27-11.9-55.9-23.5-87.7-24.9-.2-2.2-.2-4.7-.3-7.2 0-3-.1-6.1-.4-9.3-.1-.8-.3-1.5-.6-2.2-.3-1.3-1-2.3-1.8-3.1-1-1.1-2.3-2-3.9-2.3-.4-.3-1.3-.5-2.1-.5zm179.8 318.3c-2.4-3.2-3.6-7.4-5.3-14.2-.6-2.3-1.2-4.8-2-7.4-3.2-11.2-9.1-33.1-11.6-54.1-3.6-29.1 1.2-38.8 4.3-42.1 1.2 1 2.1 2.2 3.4 3.8.8 1 1.5 1.9 2.5 2.9 3.3 3.7 5.3 8.2 7.4 13 1.4 3.2 2.9 6.5 4.8 9.7 0 .1.1.2.2.2.1.1.2.4.2.5 2.8 6.4 7 6.4 8.4 6.4.7 0 1.4-.1 2.1-.3.2 0 .4-.1.6-.2 3.5-1.2 5.4-3.1 6.4-5.1 1.1 5.5 2.4 10.7 3.6 15.4 1.8 7.3 3.9 15.5 3.2 18.7-4.6 19.4-16.4 37.9-19.9 43.1-3 4.2-6.1 7.7-8.3 9.7z" fill="#446adb"/></svg>