<svg width="232" height="116" viewBox="0 0 232 116" fill="none" xmlns="http://www.w3.org/2000/svg">
<symbol id="illustration" viewBox="0 0 232 116">
<g clip-path="url(#clip0_2502_316)">
<path d="M150.887 69.3225C151.372 69.5594 151.902 69.6835 152.443 69.706C153.244 69.6722 154.011 69.3677 154.632 68.8375C155.647 67.9577 156.481 66.8862 157.079 65.6793C157.429 64.9687 158.049 64.4273 158.794 64.1679C159.549 63.9085 160.373 63.9649 161.083 64.3145C161.794 64.6642 162.335 65.2845 162.595 66.0403C162.843 66.7847 162.798 67.6081 162.448 68.3187C161.489 70.2587 160.158 71.9732 158.523 73.3718C156.831 74.8268 154.688 75.6502 152.466 75.6841C150.831 75.6728 149.229 75.2442 147.796 74.4433C146.578 73.744 145.665 72.6048 145.236 71.2626C144.852 70.1008 144.683 68.8826 144.717 67.6645C144.74 66.0741 144.92 64.4837 145.236 62.9272C145.586 61.1225 146.026 59.3291 146.556 57.5695C147.729 53.6218 149.127 49.7417 150.74 45.9518C152.229 42.3425 153.898 38.8008 155.726 35.3493C156.459 33.9732 157.248 32.6084 158.072 31.2888C158.703 30.2398 159.425 29.2585 160.226 28.3449C160.745 27.7471 161.478 27.3748 162.279 27.3184C163.069 27.262 163.847 27.5327 164.445 28.0516C165.042 28.5704 165.403 29.3036 165.46 30.1044C165.516 30.894 165.257 31.6722 164.738 32.2701C164.151 32.9355 163.621 33.6574 163.17 34.4244C162.403 35.6313 161.681 36.8833 161.016 38.1466C159.267 41.4401 157.677 44.8239 156.256 48.2641C154.722 51.8622 153.402 55.5392 152.286 59.284C151.812 60.8631 151.417 62.476 151.101 64.1002C150.853 65.3184 150.718 66.5591 150.695 67.8111C150.673 68.3187 150.74 68.8262 150.887 69.3225Z" fill="currentColor"/>
<path d="M147.723 45.1565C147.162 45.1192 146.602 44.8575 146.19 44.4091C145.779 43.9606 145.555 43.4001 145.592 42.8021C145.63 42.2042 145.892 41.6436 146.34 41.2326C146.751 40.8589 147.349 40.6347 147.947 40.672C151.273 40.8215 154.636 40.7053 157.962 40.3357C159.98 40.1114 163.411 39.266 165.449 38.5339C167.4 37.8327 169.628 37.6274 169.239 40.0647C168.937 41.9538 167.728 42.6781 166.579 43.1204C164.157 44.0533 159.71 44.7578 158.486 44.7829C154.719 44.8596 151.31 45.306 147.723 45.1565Z" fill="currentColor"/>
<path fill-rule="evenodd" clip-rule="evenodd" d="M190.782 72.6725C190.342 73.0447 189.879 73.3944 189.394 73.7215C187.669 74.8381 185.785 75.7066 183.822 76.3157C182.424 76.7556 181.014 77.1278 179.581 77.4436C179.029 77.5677 178.476 77.6918 177.923 77.8384C177.1 79.9138 176.231 81.9892 175.34 84.0533C173.863 87.5048 172.16 90.866 170.22 94.0919C169.374 95.5018 168.437 96.8553 167.411 98.1411C166.486 99.3255 165.426 100.42 164.275 101.39C163.418 102.078 162.437 102.574 161.388 102.878C160.362 103.183 159.29 103.341 158.207 103.341C155.985 103.397 153.797 102.675 152.049 101.288C151.045 100.465 150.255 99.4044 149.736 98.2088C149.195 96.9004 148.924 95.4905 148.947 94.0693C148.947 94.0693 148.958 94.058 148.958 94.0468L148.969 93.5054C148.969 93.4828 148.969 93.4715 148.969 93.449C149.105 90.4487 150.154 87.5499 151.981 85.1587C153.346 83.4668 154.959 82.0118 156.775 80.8161C160.542 78.1655 164.614 75.9886 168.911 74.3418C170.411 73.8004 171.912 73.3041 173.446 72.853C173.773 71.9957 174.088 71.1272 174.416 70.2474L178.758 58.0658C180.021 54.4113 181.318 50.7681 182.649 47.1362C183.811 43.9328 185.074 40.7634 186.451 37.639C186.766 36.9059 187.364 36.3419 188.097 36.0486C188.842 35.7554 189.665 35.7779 190.387 36.0937C191.109 36.4096 191.684 37.0074 191.977 37.7518C192.259 38.485 192.248 39.3083 191.921 40.0302C190.613 43.0418 189.383 46.0985 188.266 49.189L184.409 60.0284L180.472 71.0708C181.003 70.9242 181.521 70.7663 182.052 70.6084C183.473 70.1685 184.838 69.5369 186.101 68.736C186.665 68.3412 187.184 67.9014 187.657 67.3938C187.906 67.1118 188.176 66.8524 188.47 66.6155C189.169 66.029 190.049 65.7132 190.962 65.7245C191.876 65.7696 192.756 66.1643 193.41 66.8073C193.681 67.0554 193.94 67.3261 194.177 67.5968C194.752 68.2397 195.395 68.815 196.083 69.3338C196.331 69.4917 196.602 69.6045 196.895 69.6722C197.448 69.8414 198.012 69.9203 198.587 69.9091C199.422 69.9542 200.234 69.6722 200.877 69.1421C201.193 68.8375 201.441 68.454 201.599 68.0367C201.892 67.2246 202.05 66.3561 202.039 65.4763C202.039 65.465 202.039 65.4537 202.039 65.4425L202.05 65.3071C202.027 64.3935 201.858 63.4799 201.531 62.6339C201.114 61.5511 200.629 60.5134 200.087 59.4983C199.253 57.953 198.553 56.3514 197.978 54.7046C197.719 53.9037 197.594 53.0691 197.583 52.2344C197.549 49.5274 198.846 46.967 201.046 45.4104C202.354 44.4968 203.888 44.0118 205.479 44.0005C206.911 43.9892 208.321 44.4291 209.494 45.2412C210.769 46.1662 211.705 47.4858 212.145 48.9973C212.291 49.4371 212.37 49.8996 212.404 50.3621C212.517 51.3546 212.224 52.3585 211.603 53.148C210.983 53.9263 210.081 54.4339 209.088 54.5467C207.622 54.6595 206.234 53.8248 205.648 52.4713C205.31 51.6705 205.332 50.7794 205.693 50.0011C205.637 49.9898 205.58 49.9786 205.524 49.9786C205.152 49.9786 204.791 50.0913 204.486 50.2944C203.888 50.7343 203.539 51.4449 203.572 52.1893C203.561 52.4036 203.595 52.6179 203.651 52.8209C204.114 54.1406 204.689 55.4265 205.355 56.6672C206.02 57.8966 206.595 59.1712 207.103 60.4796C207.689 62.0023 208.005 63.6152 208.028 65.2507C208.028 65.2733 208.028 65.2958 208.028 65.3184V65.4876C208.028 67.0667 207.746 68.6345 207.204 70.1234C206.708 71.4431 205.907 72.6274 204.881 73.5861C203.121 75.1314 200.832 75.9548 198.497 75.8984C197.425 75.8871 196.354 75.7405 195.327 75.4472C194.369 75.1991 193.455 74.7817 192.643 74.2178C191.989 73.744 191.368 73.2252 190.782 72.6725ZM170.513 80.1394C166.847 81.5944 163.362 83.4781 160.136 85.7565C158.839 86.6024 157.666 87.6514 156.684 88.847C155.635 90.2569 155.026 91.9375 154.947 93.6971L154.925 94.1934C154.925 94.7686 155.026 95.3439 155.241 95.874C155.376 96.1673 155.568 96.4267 155.816 96.641C156.481 97.1486 157.294 97.3967 158.128 97.3629C158.67 97.3742 159.2 97.2952 159.719 97.1373C160.001 97.0583 160.26 96.9343 160.497 96.7538C161.309 96.0545 162.053 95.2762 162.719 94.4415C163.587 93.3474 164.377 92.2082 165.099 91.0126C166.892 88.0123 168.483 84.8993 169.847 81.6847C170.073 81.1658 170.299 80.6582 170.513 80.1394Z" fill="currentColor"/>
<path d="M191.649 33.2936C193.506 33.2936 195.012 31.7878 195.012 29.9302C195.012 28.0726 193.506 26.5668 191.649 26.5668C189.791 26.5668 188.285 28.0726 188.285 29.9302C188.285 31.7878 189.791 33.2936 191.649 33.2936Z" fill="currentColor"/>
<path d="M168.806 71.7743C170.88 71.7743 172.561 70.0934 172.561 68.02C172.561 65.9465 170.88 64.2657 168.806 64.2657C166.733 64.2657 165.052 65.9465 165.052 68.02C165.052 70.0934 166.733 71.7743 168.806 71.7743Z" fill="currentColor"/>
<path d="M135.953 52.4939C136.066 51.7945 136.427 51.1516 136.98 50.6892C136.946 50.6102 136.901 50.5425 136.867 50.4749C136.776 50.3395 136.641 50.238 136.483 50.2042L136.066 50.1816C135.581 50.2042 135.118 50.3282 134.69 50.5538C133.9 50.9824 133.133 51.4674 132.411 52.0088C132.389 52.0314 132.366 52.0427 132.344 52.0652L132.287 52.0991C130.844 53.1481 129.603 54.4452 128.633 55.9453C127.392 57.7726 126.49 59.8141 125.971 61.9685C125.802 62.6452 125.711 63.3445 125.711 64.0326C125.7 64.9575 125.926 65.8824 126.354 66.6945C126.772 67.4502 127.347 68.0931 128.046 68.6007C129.795 69.8076 131.881 70.4392 134.002 70.3828C135.378 70.4054 136.743 70.1347 137.995 69.5594C139.912 68.6233 141.66 67.3712 143.161 65.8485C143.725 65.2846 144.255 64.6642 144.717 64.01C144.886 63.807 145.022 63.5701 145.101 63.322C145.337 62.5663 145.868 61.9346 146.567 61.5737C147.278 61.2015 148.09 61.1338 148.845 61.3707C149.601 61.6075 150.233 62.1377 150.605 62.8483C150.966 63.5476 151.034 64.371 150.797 65.1267C150.515 66.029 150.075 66.8637 149.488 67.6081C148.857 68.4879 148.157 69.3113 147.379 70.0783C145.394 72.086 143.093 73.7328 140.555 74.9622C138.502 75.9097 136.269 76.3947 134.013 76.3608C130.652 76.4172 127.358 75.4134 124.595 73.4846C123.151 72.4469 121.944 71.1047 121.087 69.5369C120.185 67.8337 119.711 65.9275 119.733 63.9875C119.745 62.837 119.88 61.6865 120.162 60.5586C120.839 57.7275 122.023 55.043 123.659 52.6292C125.035 50.5425 126.772 48.7153 128.791 47.249C128.802 47.2377 128.813 47.2264 128.825 47.2264L128.858 47.2039C129.817 46.482 130.821 45.8391 131.881 45.2751C133.167 44.5983 134.588 44.2261 136.043 44.1923C136.134 44.1923 136.213 44.1923 136.291 44.2036L136.98 44.2374C137.047 44.2487 137.115 44.2487 137.183 44.26C139.168 44.5194 140.939 45.6586 141.976 47.3843C142.755 48.6702 143.172 50.159 143.161 51.6705C143.172 52.3472 143.082 53.024 142.879 53.6669C142.585 54.7948 141.784 55.7197 140.713 56.1709C140.476 56.2724 140.228 56.3514 139.969 56.3852L139.687 56.4191C139.641 56.4303 139.596 56.4303 139.562 56.4416C138.683 56.5318 137.803 56.2611 137.115 55.6972C136.427 55.1445 135.998 54.3324 135.908 53.4526C135.874 53.1932 135.885 52.9337 135.931 52.6856L135.953 52.4939Z" fill="currentColor"/>
<path fill-rule="evenodd" clip-rule="evenodd" d="M68.7172 41.271C68.6382 41.6996 68.4803 42.1056 68.266 42.4778C68.063 42.8162 67.8036 43.1208 67.4877 43.3576C67.1606 43.6058 66.7997 43.7862 66.4049 43.899C65.9425 44.0344 65.4575 44.1021 64.9724 44.1021C64.4874 44.1133 64.0024 44.0344 63.54 43.899C63.1339 43.775 62.7617 43.5606 62.4459 43.2899C62.1188 43.0192 61.8594 42.6809 61.6789 42.2974C61.4646 41.8575 61.3067 41.3837 61.239 40.8987C61.2052 40.6506 61.2616 40.4024 61.4082 40.1994C61.5548 40.0077 61.7691 39.8723 62.0173 39.8385C62.2654 39.7934 62.5136 39.861 62.7166 40.0077C62.9083 40.1543 63.0437 40.3686 63.0888 40.6168C63.1339 40.91 63.2242 41.2033 63.3482 41.474C63.4272 41.6206 63.5287 41.756 63.6641 41.8688C63.7881 41.9815 63.9348 42.0605 64.0927 42.1056C64.3746 42.1959 64.6679 42.241 64.9612 42.241C65.277 42.241 65.5928 42.1959 65.8974 42.1056C66.0665 42.0605 66.2132 41.9815 66.3598 41.88C66.4726 41.7785 66.5741 41.6657 66.6531 41.5417C66.7659 41.3386 66.8448 41.1243 66.8899 40.8987C66.935 40.6619 67.0817 40.4476 67.2847 40.3122C67.499 40.1769 67.7472 40.1205 67.9953 40.1769C68.2322 40.222 68.4465 40.3686 68.5818 40.5716C68.7172 40.7747 68.7736 41.0341 68.7172 41.271ZM62.1284 22.4308C64.08 22.9228 62.6097 26.788 61.9927 28.4552C61.3757 30.1223 60.0361 34.0423 58.3971 33.7062C56.7581 33.3699 57.2865 29.3636 58.085 26.9762C58.8835 24.5888 60.1767 21.9388 62.1284 22.4308ZM23.6292 97.74C20.4884 89.7283 26.7927 68.3968 35.0481 47.7376C36.1505 44.9789 37.2582 42.3447 38.3714 39.8351C47.1424 20.0596 56.2454 8.01831 65.6803 3.71112C65.1758 7.50172 64.9606 10.1082 65.0345 11.5306C65.1084 12.9529 65.2459 14.2208 65.4471 15.3342C68.386 15.2725 71.8239 15.5399 75.7609 16.1364C79.6979 16.7328 83.0503 17.6483 85.8183 18.8828C88.8289 16.5884 91.5399 14.9339 93.9511 13.9194C96.3624 12.905 99.5465 12.2039 103.503 11.8163C96.8957 32.7056 93.3571 47.0918 92.8876 54.9747C91.7354 74.3203 93.4729 86.8854 93.8499 92.3901C96.351 92.7214 98.7878 92.4393 102.44 91.0696C104.544 90.2806 107.363 87.9146 106.512 83.9815C105.961 81.4329 102.515 80.9812 100.48 81.2669C99.6373 81.3851 97.9382 81.1659 97.5387 79.8342C97.0863 78.326 98.3197 77.1732 99.3485 76.7425C101.61 75.7957 106.192 75.0324 109.555 78.1466C112.402 80.7825 112.49 84.7349 111.922 87.7385C111.388 90.5677 109.306 92.7214 107.592 94.0291C104.281 96.5548 98.6557 98.1571 94.1467 98.8066C93.8564 101.859 91.2287 103.045 89.174 103.945C82.6151 106.819 70.3776 108.322 57.7131 107.78C39.409 106.997 25.8763 103.472 23.6292 97.74ZM78.9149 24.9639C80.8666 25.4559 79.7681 29.2832 79.1511 30.9503C78.5341 32.6175 77.1945 36.5375 75.5555 36.2014C73.9165 35.8651 74.4448 31.8588 75.2434 29.4713C76.0418 27.084 76.9634 24.4719 78.9149 24.9639Z" fill="currentColor"/>
</g>
<defs>
<clipPath id="clip0_2502_316">
<rect width="231" height="115.5" fill="currentColor" transform="translate(0.5)"/>
</clipPath>
</defs>
</symbol>
</svg>
