<?xml version="1.0" encoding="UTF-8"?><!DOCTYPE svg PUBLIC "-//W3C//DTD SVG 1.1//EN" "http://www.w3.org/Graphics/SVG/1.1/DTD/svg11.dtd"><svg xmlns="http://www.w3.org/2000/svg" xmlns:xlink="http://www.w3.org/1999/xlink">
<symbol id="illustration" viewBox="0 0 315 244">
<path d="M38.5081 170.214C39.1877 157.676 43.4345 142.216 52.2858 121.929C63.8077 95.5205 69.0165 62.8124 73.1633 36.7733C75.3352 23.1349 77.2159 11.3255 79.5598 3.209C85.8938 8.72 90.1568 16.191 92.3938 25.669C98.5105 23.129 104.393 21.5247 110.042 20.856C115.69 20.188 123.177 20.723 132.502 22.461C133.43 20.8939 134.39 19.0484 135.492 16.9276C137.803 12.4836 140.743 6.83105 145.337 0C151.277 22.8427 156.625 42.6293 161.38 59.36C164.697 71.0332 167.625 86.0313 169.672 102.107L149.853 106.649C147.279 107.239 144.94 108.828 143.217 110.878C141.494 112.928 140.332 115.505 140.193 118.142L134.715 222.705C130.79 224.024 126.533 225.203 122.048 226.095C124.183 221.315 125.303 214.772 125.481 206.513C125.492 205.961 125.054 205.504 124.502 205.492C123.95 205.48 123.493 205.918 123.481 206.471C123.315 214.215 122.303 220.252 120.498 224.636C118.7 229.002 116.15 231.659 112.912 232.824C111.208 233.437 109.763 233.343 108.487 232.645C107.169 231.925 105.903 230.492 104.747 228.181C102.43 223.547 100.76 215.794 99.808 204.801C99.7604 204.25 99.2757 203.843 98.7255 203.891C98.1753 203.938 97.7678 204.423 97.8155 204.973C98.6926 215.101 100.189 222.734 102.358 227.78C79.4938 227.234 57.9166 220.039 45.8688 200.541C42.9828 195.87 40.8425 190.893 39.6118 185.308C24.3056 182.609 14.2591 183.545 11.3408 192.256C8.9098 199.51 10.3058 208.763 16.5458 211.249C18.8542 212.169 21.9318 212.349 24.8941 212.523C29.7664 212.81 34.3266 213.078 34.6388 216.584C35.1728 222.6 18.6958 220.996 12.1778 218.188C3.7348 214.552 -2.4462 201.366 0.947802 189.311C4.67132 176.084 17.1914 169.718 38.5081 170.214Z" fill="currentColor"/>
<path d="M144.748 112.165C143.255 113.941 142.302 116.116 142.191 118.246L136.037 237.276C135.787 242.043 139.299 244.807 143.874 243.444C170.923 235.384 197.967 227.308 225.014 219.242C225.492 218.09 225.973 216.808 226.455 215.393C227.487 212.368 227.861 207.795 227.498 201.587C227.137 195.402 226.05 187.685 224.231 178.428C224.124 177.886 224.477 177.36 225.019 177.254C225.561 177.147 226.087 177.5 226.193 178.042C228.022 187.348 229.126 195.161 229.495 201.47C229.862 207.755 229.506 212.641 228.348 216.039C226.68 220.934 224.949 224.517 223.116 226.667C222.757 227.087 222.126 227.137 221.706 226.779C221.286 226.421 221.236 225.789 221.594 225.369C222.359 224.472 223.136 223.239 223.923 221.654L202.786 227.958C201.636 228.301 202.337 230.077 202.854 231.113C205.964 237.349 225.417 238.876 237.254 237.349C251.394 235.524 263.253 226.858 263.527 217.644C263.609 214.854 262.116 212.66 259.449 211.059L248.215 214.409C247.773 217.438 246.987 220.406 245.941 223.313C245.754 223.832 245.181 224.102 244.661 223.915C244.142 223.728 243.872 223.155 244.059 222.635C245.991 217.268 246.975 211.755 246.503 206.083L246.503 206.079C245.96 199.552 243.589 188.984 240.062 174.748C239.929 174.211 240.256 173.669 240.792 173.536C241.328 173.404 241.871 173.73 242.003 174.267C245.521 188.462 247.939 199.199 248.497 205.917C248.674 208.054 248.656 210.164 248.47 212.246C265.506 207.165 282.552 202.118 299.59 197.041C304.166 195.678 308.102 190.701 308.376 185.935L314.482 79.59C314.756 74.824 311.2 71.82 306.546 72.887L150.299 108.599C148.22 109.075 146.242 110.388 144.748 112.165Z" fill="currentColor"/>
<path d="M95.5988 62.088C95.5988 53.676 101.35 46.847 108.434 46.847C115.517 46.847 119.664 53.676 119.664 62.088C119.664 70.5 115.517 77.329 108.434 77.329C101.35 77.329 95.5988 70.5 95.5988 62.088Z" fill="white"/>
<path d="M132.498 59.682C132.498 51.27 134.864 45.597 141.322 43.638C147.641 41.722 153.048 48.568 153.355 58.879C153.605 67.285 147.963 74.121 141.322 74.121C134.681 74.121 132.498 68.093 132.498 59.682Z" fill="white"/>
<path d="M124.298 84.555C123.983 81.026 125.477 78.743 127.63 78.879C129.747 79.012 131.261 81.241 130.962 84.555C130.683 87.652 129.469 90.232 127.63 90.232C125.791 90.232 124.574 87.653 124.298 84.555Z" fill="white"/>
<path fill-rule="evenodd" clip-rule="evenodd" d="M104.802 52.541C106.019 51.798 107.502 51.388 109.24 51.338C114.429 51.191 118.402 56.067 118.064 63.104C118.041 63.581 117.999 64.054 117.942 64.52C117.608 64.288 117.23 64.173 116.834 64.173C115.27 64.173 114 65.97 114 68.184C114 69.606 114.524 70.856 115.309 71.575C113.77 73.755 111.655 75.057 109.24 74.869C103.658 74.432 100.748 69.454 100.441 63.812C100.934 64.048 101.466 64.173 102.02 64.173C104.677 64.173 106.833 61.298 106.833 57.756C106.833 55.6 106.034 53.691 104.802 52.541Z" fill="currentColor"/>
<path fill-rule="evenodd" clip-rule="evenodd" d="M139.642 50.655C140.945 49.654 142.476 49.232 144 49.232C148.042 49.232 151.126 53.857 151.126 60.001C151.126 60.399 151.11 60.794 151.086 61.187C150.947 61.111 150.794 61.063 150.635 61.035C149.226 60.787 147.797 62.206 147.446 64.201C147.153 65.869 147.707 67.416 148.722 68.018C147.415 69.954 145.702 71.178 144 71.232C140.375 71.346 136.402 66.954 136.024 60.928C138.193 60.915 140.243 58.805 140.777 55.903C141.154 53.846 140.678 51.891 139.642 50.655Z" fill="currentColor"/>
<path d="M197 69.232L194 49.232" stroke="currentColor" stroke-width="4" stroke-miterlimit="3" stroke-linecap="round" stroke-linejoin="round"/>
<path d="M241.858 62.286L244.651 42.003" stroke="currentColor" stroke-width="4" stroke-miterlimit="3" stroke-linecap="round" stroke-linejoin="round"/>
<path d="M288.093 62.965L291.624 49.146" stroke="currentColor" stroke-width="4" stroke-miterlimit="3" stroke-linecap="round" stroke-linejoin="round"/>
<path d="M111.211 118.52L95.5988 113.907" stroke="white" stroke-width="4" stroke-miterlimit="3" stroke-linecap="round" stroke-linejoin="round"/>
<path d="M109.263 163.544L93.2768 162.232" stroke="white" stroke-width="4" stroke-miterlimit="3" stroke-linecap="round" stroke-linejoin="round"/>
</symbol>
</svg>