<svg width="381" height="409" viewBox="0 0 381 409" fill="none" xmlns="http://www.w3.org/2000/svg">
<symbol id="illustration" viewBox="0 0 381 409">
<path d="M99.6086 174.487C92.1704 120.009 48.254 196.77 37.1009 145.264" fill="transparent" stroke="currentColor" stroke-width="20" stroke-linecap="round" stroke-linejoin="round"/>
<path d="M67 187.5C106.644 74.4088 137.5 20.5 170.5 0C168 9.5 168.325 23.474 170.5 32C190.687 25.6252 235.126 37.0847 243.5 48C251.5 38.5 266 25.5 281 25.5C268 136 275.595 158.5 281 246C285.027 311.192 272.855 337.885 247 361.329C239.5 381 236 407.5 221 408C209 408.4 206.667 391.64 207 383.21C189.766 388.169 171.142 389.189 152.701 387.354C140.868 386.177 129.242 383.43 118.342 379C119.061 387.833 116 403.267 105 402.5C87.8 401.3 81 379 76 353C46.6654 321.495 37.9512 270.365 67 187.5Z" fill="currentColor"/>
<path d="M259.787 196C280.787 137.5 305.287 211.5 333.787 171" stroke="currentColor" fill="transparent" stroke-width="20" stroke-linecap="round" stroke-linejoin="round"/>
<path d="M255.616 328.458C326.266 294.584 271.196 370.828 323 374" stroke="currentColor" fill="transparent" stroke-width="20" stroke-linecap="round" stroke-linejoin="round"/>
<path d="M192.231 127.864C192.326 128.667 192.084 129.454 191.544 130.092C191.038 130.733 190.273 131.127 189.457 131.186C188.64 131.278 187.805 131.037 187.186 130.54C186.536 130.008 186.131 129.289 186.036 128.486C185.95 127.483 185.693 126.539 185.299 125.62C185.087 125.111 184.737 124.661 184.35 124.275C183.927 123.921 183.469 123.599 182.935 123.439C182.038 123.095 181.065 122.913 180.085 122.864C179.038 122.812 177.982 122.925 176.956 123.14C176.407 123.279 175.855 123.485 175.397 123.828C174.977 124.106 174.621 124.455 174.363 124.874C173.96 125.486 173.655 126.17 173.449 126.892C173.24 127.68 172.733 128.354 172.034 128.785C171.337 129.182 170.484 129.306 169.681 129.1C168.879 128.893 168.193 128.393 167.787 127.707C167.347 127.02 167.219 126.181 167.428 125.393C167.802 124.014 168.373 122.745 169.144 121.552C169.842 120.455 170.77 119.503 171.856 118.792C172.978 118.016 174.224 117.48 175.558 117.213C177.134 116.859 178.733 116.706 180.357 116.754C181.978 116.835 183.554 117.147 185.051 117.688C186.383 118.154 187.598 118.913 188.6 119.862C189.637 120.812 190.46 121.951 191.007 123.21C191.643 124.706 192.074 126.258 192.231 127.864Z" fill="white"/>
<path d="M165.956 63.1991C172.033 64.8456 167.455 77.7807 165.534 83.3598C163.613 88.9386 159.441 102.057 154.338 100.932C149.234 99.807 150.879 86.4001 153.366 78.4105C155.852 70.421 159.879 61.553 165.956 63.1991Z" fill="white"/>
<path d="M221.203 72.1917C227.899 73.7563 224.13 85.9303 222.013 91.2328C219.897 96.5357 215.301 109.005 209.677 107.935C204.054 106.866 205.867 94.1226 208.607 86.5286C211.346 78.9349 214.507 70.6267 221.203 72.1917Z" fill="white"/>
<g clip-path="url(#clip0)">
<path d="M62.0712 139.352C62.2278 140.713 61.8372 142.081 60.9854 143.155C60.1335 144.228 58.8902 144.919 57.5289 145.076L16.4665 149.8C15.1052 149.957 13.7374 149.566 12.6641 148.714C11.5907 147.862 10.8997 146.619 10.7431 145.258L6.6092 109.328C6.45258 107.967 6.84314 106.599 7.69498 105.526C8.54682 104.452 9.79015 103.761 11.1515 103.605L23.9835 102.128L30.0021 109.237L53.0997 106.58C54.461 106.423 55.8288 106.813 56.9021 107.665C57.9755 108.517 58.6665 109.76 58.8231 111.122L62.0712 139.352Z" stroke="currentColor" stroke-width="4" fill="transparent" stroke-linecap="round" stroke-linejoin="round"/>
</g>
<g clip-path="url(#clip1)">
<path d="M363.032 173.019C362.681 174.344 361.817 175.474 360.632 176.162C359.447 176.85 358.037 177.039 356.713 176.688L316.763 166.085C315.438 165.734 314.308 164.871 313.62 163.686C312.932 162.501 312.743 161.091 313.094 159.766L322.371 124.81C322.723 123.485 323.586 122.355 324.771 121.667C325.956 120.979 327.366 120.79 328.69 121.141L341.175 124.455L344.181 133.271L366.653 139.234C367.977 139.586 369.108 140.449 369.796 141.634C370.484 142.819 370.673 144.229 370.321 145.553L363.032 173.019Z" stroke="currentColor" stroke-width="4" fill="transparent" stroke-linecap="round" stroke-linejoin="round"/>
</g>
</symbol>
<defs>
<clipPath id="clip0">
<rect width="62" height="62" fill="white" transform="translate(0 97.0867) rotate(-6.56333)"/>
</clipPath>
<clipPath id="clip1">
<rect width="62" height="62" fill="white" transform="translate(320.691 111) rotate(14.863)"/>
</clipPath>
</defs>
</svg>
